G04 EAGLE Gerber RS-274X export*
G75*
%MOMM*%
%FSLAX34Y34*%
%LPD*%
%INTop Copper*%
%IPPOS*%
%AMOC8*
5,1,8,0,0,1.08239X$1,22.5*%
G01*
%ADD10C,1.879600*%
%ADD11R,1.270000X2.032000*%
%ADD12R,2.032000X1.270000*%
%ADD13R,0.350000X0.800000*%
%ADD14R,0.800000X0.350000*%
%ADD15R,2.800000X2.800000*%
%ADD16C,2.184400*%
%ADD17R,2.060000X1.270000*%
%ADD18R,1.270000X2.060000*%
%ADD19R,1.408000X1.408000*%
%ADD20R,1.200000X1.400000*%
%ADD21R,1.600200X5.715000*%
%ADD22C,0.756400*%
%ADD23C,0.254000*%
%ADD24C,0.152400*%
%ADD25C,0.508000*%
%ADD26P,0.818720X8X22.500000*%
%ADD27C,0.200000*%
%ADD28C,0.203200*%

G36*
X654242Y10172D02*
X654242Y10172D01*
X654314Y10174D01*
X654363Y10192D01*
X654414Y10200D01*
X654478Y10234D01*
X654545Y10259D01*
X654586Y10291D01*
X654632Y10316D01*
X654681Y10368D01*
X654737Y10412D01*
X654765Y10456D01*
X654801Y10494D01*
X654831Y10559D01*
X654870Y10619D01*
X654883Y10670D01*
X654905Y10717D01*
X654913Y10788D01*
X654930Y10858D01*
X654926Y10910D01*
X654932Y10961D01*
X654916Y11032D01*
X654911Y11103D01*
X654891Y11151D01*
X654879Y11202D01*
X654843Y11263D01*
X654815Y11329D01*
X654770Y11385D01*
X654753Y11413D01*
X654735Y11428D01*
X654710Y11460D01*
X653720Y12450D01*
X650239Y20853D01*
X650239Y29947D01*
X653720Y38350D01*
X660150Y44780D01*
X668553Y48261D01*
X677647Y48261D01*
X686050Y44780D01*
X686840Y43990D01*
X686898Y43948D01*
X686950Y43899D01*
X686997Y43877D01*
X687039Y43847D01*
X687108Y43826D01*
X687173Y43795D01*
X687225Y43790D01*
X687275Y43774D01*
X687346Y43776D01*
X687417Y43768D01*
X687468Y43779D01*
X687520Y43781D01*
X687588Y43805D01*
X687658Y43821D01*
X687703Y43847D01*
X687751Y43865D01*
X687807Y43910D01*
X687869Y43947D01*
X687903Y43986D01*
X687943Y44019D01*
X687982Y44079D01*
X688029Y44134D01*
X688048Y44182D01*
X688076Y44226D01*
X688094Y44295D01*
X688121Y44362D01*
X688129Y44433D01*
X688137Y44464D01*
X688135Y44488D01*
X688139Y44529D01*
X688139Y397431D01*
X688128Y397502D01*
X688126Y397574D01*
X688108Y397623D01*
X688100Y397674D01*
X688066Y397738D01*
X688041Y397805D01*
X688009Y397846D01*
X687984Y397892D01*
X687932Y397941D01*
X687888Y397997D01*
X687844Y398025D01*
X687806Y398061D01*
X687741Y398091D01*
X687681Y398130D01*
X687630Y398143D01*
X687583Y398165D01*
X687512Y398173D01*
X687442Y398190D01*
X687390Y398186D01*
X687339Y398192D01*
X687268Y398176D01*
X687197Y398171D01*
X687149Y398151D01*
X687098Y398139D01*
X687037Y398103D01*
X686971Y398075D01*
X686915Y398030D01*
X686887Y398013D01*
X686872Y397995D01*
X686840Y397970D01*
X686050Y397180D01*
X677647Y393699D01*
X668553Y393699D01*
X660150Y397180D01*
X653720Y403610D01*
X650239Y412013D01*
X650239Y421107D01*
X653720Y429510D01*
X653950Y429740D01*
X653992Y429798D01*
X654041Y429850D01*
X654063Y429897D01*
X654093Y429939D01*
X654114Y430008D01*
X654145Y430073D01*
X654150Y430125D01*
X654166Y430175D01*
X654164Y430246D01*
X654172Y430317D01*
X654161Y430368D01*
X654159Y430420D01*
X654135Y430488D01*
X654119Y430558D01*
X654093Y430603D01*
X654075Y430651D01*
X654030Y430707D01*
X653993Y430769D01*
X653954Y430803D01*
X653921Y430843D01*
X653861Y430882D01*
X653806Y430929D01*
X653758Y430948D01*
X653714Y430976D01*
X653645Y430994D01*
X653578Y431021D01*
X653507Y431029D01*
X653476Y431037D01*
X653452Y431035D01*
X653411Y431039D01*
X45089Y431039D01*
X45018Y431028D01*
X44946Y431026D01*
X44897Y431008D01*
X44846Y431000D01*
X44782Y430966D01*
X44715Y430941D01*
X44674Y430909D01*
X44628Y430884D01*
X44579Y430833D01*
X44523Y430788D01*
X44495Y430744D01*
X44459Y430706D01*
X44429Y430641D01*
X44390Y430581D01*
X44377Y430530D01*
X44355Y430483D01*
X44347Y430412D01*
X44330Y430342D01*
X44334Y430290D01*
X44328Y430239D01*
X44344Y430168D01*
X44349Y430097D01*
X44369Y430049D01*
X44381Y429998D01*
X44417Y429937D01*
X44445Y429871D01*
X44490Y429815D01*
X44507Y429787D01*
X44525Y429772D01*
X44550Y429740D01*
X44780Y429510D01*
X48261Y421107D01*
X48261Y412013D01*
X44780Y403610D01*
X38350Y397180D01*
X29947Y393699D01*
X20853Y393699D01*
X12450Y397180D01*
X11460Y398170D01*
X11402Y398212D01*
X11350Y398261D01*
X11303Y398283D01*
X11261Y398313D01*
X11192Y398334D01*
X11127Y398365D01*
X11075Y398370D01*
X11025Y398386D01*
X10954Y398384D01*
X10883Y398392D01*
X10832Y398381D01*
X10780Y398379D01*
X10712Y398355D01*
X10642Y398339D01*
X10597Y398313D01*
X10549Y398295D01*
X10493Y398250D01*
X10431Y398213D01*
X10397Y398174D01*
X10357Y398141D01*
X10318Y398081D01*
X10271Y398026D01*
X10252Y397978D01*
X10224Y397934D01*
X10206Y397865D01*
X10179Y397798D01*
X10171Y397727D01*
X10163Y397696D01*
X10165Y397672D01*
X10161Y397631D01*
X10161Y44329D01*
X10172Y44258D01*
X10174Y44186D01*
X10192Y44137D01*
X10200Y44086D01*
X10234Y44022D01*
X10259Y43955D01*
X10291Y43914D01*
X10316Y43868D01*
X10368Y43819D01*
X10412Y43763D01*
X10456Y43735D01*
X10494Y43699D01*
X10559Y43669D01*
X10619Y43630D01*
X10670Y43617D01*
X10717Y43595D01*
X10788Y43587D01*
X10858Y43570D01*
X10910Y43574D01*
X10961Y43568D01*
X11032Y43584D01*
X11103Y43589D01*
X11151Y43609D01*
X11202Y43621D01*
X11263Y43657D01*
X11329Y43685D01*
X11385Y43730D01*
X11413Y43747D01*
X11428Y43765D01*
X11460Y43790D01*
X12450Y44780D01*
X20853Y48261D01*
X29947Y48261D01*
X38350Y44780D01*
X44780Y38350D01*
X48261Y29947D01*
X48261Y20853D01*
X44780Y12450D01*
X43790Y11460D01*
X43748Y11402D01*
X43699Y11350D01*
X43677Y11303D01*
X43647Y11261D01*
X43626Y11192D01*
X43595Y11127D01*
X43590Y11075D01*
X43574Y11025D01*
X43576Y10954D01*
X43568Y10883D01*
X43579Y10832D01*
X43581Y10780D01*
X43605Y10712D01*
X43621Y10642D01*
X43647Y10597D01*
X43665Y10549D01*
X43710Y10493D01*
X43747Y10431D01*
X43786Y10397D01*
X43819Y10357D01*
X43879Y10318D01*
X43934Y10271D01*
X43982Y10252D01*
X44026Y10224D01*
X44095Y10206D01*
X44162Y10179D01*
X44233Y10171D01*
X44264Y10163D01*
X44288Y10165D01*
X44329Y10161D01*
X654171Y10161D01*
X654242Y10172D01*
G37*
%LPC*%
G36*
X598668Y213335D02*
X598668Y213335D01*
X597775Y214228D01*
X597775Y218964D01*
X597772Y218984D01*
X597774Y219003D01*
X597752Y219105D01*
X597736Y219207D01*
X597726Y219224D01*
X597722Y219244D01*
X597669Y219333D01*
X597620Y219424D01*
X597606Y219438D01*
X597596Y219455D01*
X597517Y219522D01*
X597442Y219594D01*
X597424Y219602D01*
X597409Y219615D01*
X597313Y219654D01*
X597219Y219697D01*
X597199Y219699D01*
X597181Y219707D01*
X597014Y219725D01*
X583946Y219725D01*
X583926Y219722D01*
X583907Y219724D01*
X583805Y219702D01*
X583703Y219686D01*
X583686Y219676D01*
X583666Y219672D01*
X583577Y219619D01*
X583486Y219570D01*
X583472Y219556D01*
X583455Y219546D01*
X583388Y219467D01*
X583316Y219392D01*
X583308Y219374D01*
X583295Y219359D01*
X583256Y219263D01*
X583213Y219169D01*
X583211Y219149D01*
X583203Y219131D01*
X583185Y218964D01*
X583185Y215268D01*
X582292Y214375D01*
X560708Y214375D01*
X559815Y215268D01*
X559815Y217694D01*
X559812Y217714D01*
X559814Y217733D01*
X559792Y217835D01*
X559776Y217937D01*
X559766Y217954D01*
X559762Y217974D01*
X559709Y218063D01*
X559660Y218154D01*
X559646Y218168D01*
X559636Y218185D01*
X559557Y218252D01*
X559482Y218324D01*
X559464Y218332D01*
X559449Y218345D01*
X559353Y218384D01*
X559259Y218427D01*
X559239Y218429D01*
X559221Y218437D01*
X559054Y218455D01*
X555214Y218455D01*
X541035Y232634D01*
X541035Y255179D01*
X541021Y255269D01*
X541013Y255360D01*
X541001Y255390D01*
X540996Y255422D01*
X540953Y255502D01*
X540917Y255586D01*
X540891Y255618D01*
X540880Y255639D01*
X540857Y255661D01*
X540812Y255717D01*
X522417Y274112D01*
X522343Y274165D01*
X522274Y274225D01*
X522244Y274237D01*
X522217Y274256D01*
X522130Y274283D01*
X522046Y274317D01*
X522005Y274321D01*
X521982Y274328D01*
X521950Y274327D01*
X521879Y274335D01*
X410301Y274335D01*
X410211Y274321D01*
X410120Y274313D01*
X410090Y274301D01*
X410058Y274296D01*
X409978Y274253D01*
X409894Y274217D01*
X409862Y274191D01*
X409841Y274180D01*
X409822Y274161D01*
X409820Y274160D01*
X409814Y274154D01*
X409763Y274112D01*
X389666Y254015D01*
X245201Y254015D01*
X245111Y254001D01*
X245020Y253993D01*
X244990Y253981D01*
X244958Y253976D01*
X244878Y253933D01*
X244794Y253897D01*
X244762Y253871D01*
X244741Y253860D01*
X244719Y253837D01*
X244663Y253792D01*
X237388Y246517D01*
X237335Y246443D01*
X237275Y246374D01*
X237263Y246344D01*
X237244Y246317D01*
X237217Y246230D01*
X237183Y246146D01*
X237179Y246105D01*
X237172Y246082D01*
X237173Y246050D01*
X237165Y245979D01*
X237165Y233628D01*
X236272Y232735D01*
X220928Y232735D01*
X220035Y233628D01*
X220035Y248972D01*
X220928Y249865D01*
X233279Y249865D01*
X233369Y249879D01*
X233460Y249887D01*
X233490Y249899D01*
X233522Y249904D01*
X233602Y249947D01*
X233686Y249983D01*
X233718Y250009D01*
X233739Y250020D01*
X233761Y250043D01*
X233817Y250088D01*
X241092Y257363D01*
X241509Y257780D01*
X241551Y257838D01*
X241600Y257890D01*
X241622Y257937D01*
X241653Y257979D01*
X241674Y258048D01*
X241704Y258113D01*
X241710Y258165D01*
X241725Y258215D01*
X241723Y258286D01*
X241731Y258357D01*
X241720Y258408D01*
X241719Y258460D01*
X241694Y258528D01*
X241679Y258598D01*
X241652Y258643D01*
X241634Y258691D01*
X241590Y258747D01*
X241553Y258809D01*
X241513Y258843D01*
X241481Y258883D01*
X241420Y258922D01*
X241366Y258969D01*
X241317Y258988D01*
X241274Y259016D01*
X241204Y259034D01*
X241138Y259061D01*
X241066Y259069D01*
X241035Y259077D01*
X241012Y259075D01*
X240971Y259079D01*
X237708Y259079D01*
X236219Y260568D01*
X236219Y269494D01*
X236216Y269514D01*
X236218Y269533D01*
X236196Y269635D01*
X236180Y269737D01*
X236170Y269754D01*
X236166Y269774D01*
X236113Y269863D01*
X236064Y269954D01*
X236050Y269968D01*
X236040Y269985D01*
X235961Y270052D01*
X235886Y270124D01*
X235868Y270132D01*
X235853Y270145D01*
X235757Y270184D01*
X235663Y270227D01*
X235643Y270229D01*
X235625Y270237D01*
X235458Y270255D01*
X93439Y270255D01*
X93349Y270241D01*
X93258Y270233D01*
X93228Y270221D01*
X93196Y270216D01*
X93116Y270173D01*
X93032Y270137D01*
X93000Y270111D01*
X92979Y270100D01*
X92957Y270077D01*
X92901Y270032D01*
X80488Y257619D01*
X80435Y257545D01*
X80375Y257476D01*
X80363Y257446D01*
X80344Y257420D01*
X80317Y257333D01*
X80283Y257248D01*
X80279Y257207D01*
X80272Y257184D01*
X80273Y257152D01*
X80265Y257081D01*
X80265Y250626D01*
X80268Y250606D01*
X80266Y250587D01*
X80288Y250485D01*
X80304Y250383D01*
X80314Y250366D01*
X80318Y250346D01*
X80371Y250257D01*
X80420Y250166D01*
X80434Y250152D01*
X80444Y250135D01*
X80523Y250068D01*
X80598Y249996D01*
X80616Y249988D01*
X80631Y249975D01*
X80727Y249936D01*
X80821Y249893D01*
X80841Y249891D01*
X80859Y249883D01*
X81026Y249865D01*
X83872Y249865D01*
X84765Y248972D01*
X84765Y233628D01*
X83872Y232735D01*
X68528Y232735D01*
X67635Y233628D01*
X67635Y248972D01*
X68528Y249865D01*
X71374Y249865D01*
X71394Y249868D01*
X71413Y249866D01*
X71515Y249888D01*
X71617Y249904D01*
X71634Y249914D01*
X71654Y249918D01*
X71743Y249971D01*
X71834Y250020D01*
X71848Y250034D01*
X71865Y250044D01*
X71932Y250123D01*
X72004Y250198D01*
X72012Y250216D01*
X72025Y250231D01*
X72064Y250327D01*
X72107Y250421D01*
X72109Y250441D01*
X72117Y250459D01*
X72135Y250626D01*
X72135Y260764D01*
X89756Y278385D01*
X132894Y278385D01*
X132914Y278388D01*
X132933Y278386D01*
X133035Y278408D01*
X133137Y278424D01*
X133154Y278434D01*
X133174Y278438D01*
X133263Y278491D01*
X133354Y278540D01*
X133368Y278554D01*
X133385Y278564D01*
X133452Y278643D01*
X133524Y278718D01*
X133532Y278736D01*
X133545Y278751D01*
X133584Y278847D01*
X133627Y278941D01*
X133629Y278961D01*
X133637Y278979D01*
X133655Y279146D01*
X133655Y290401D01*
X133636Y290518D01*
X133618Y290636D01*
X133616Y290640D01*
X133616Y290644D01*
X133560Y290749D01*
X133505Y290855D01*
X133502Y290858D01*
X133500Y290862D01*
X133415Y290943D01*
X133329Y291026D01*
X133325Y291028D01*
X133322Y291031D01*
X133216Y291080D01*
X133107Y291132D01*
X133103Y291133D01*
X133099Y291135D01*
X132983Y291148D01*
X132863Y291162D01*
X132858Y291161D01*
X132855Y291162D01*
X132841Y291159D01*
X132697Y291137D01*
X132034Y290959D01*
X130824Y290959D01*
X130824Y297387D01*
X130821Y297406D01*
X130823Y297426D01*
X130801Y297528D01*
X130785Y297630D01*
X130775Y297647D01*
X130771Y297667D01*
X130718Y297756D01*
X130669Y297847D01*
X130655Y297861D01*
X130645Y297878D01*
X130566Y297945D01*
X130491Y298016D01*
X130473Y298025D01*
X130465Y298031D01*
X130443Y298073D01*
X130429Y298087D01*
X130419Y298104D01*
X130340Y298171D01*
X130265Y298243D01*
X130247Y298251D01*
X130232Y298264D01*
X130135Y298303D01*
X130042Y298346D01*
X130022Y298348D01*
X130004Y298356D01*
X129837Y298374D01*
X125659Y298374D01*
X125659Y300296D01*
X125652Y300340D01*
X125654Y300383D01*
X125632Y300460D01*
X125620Y300539D01*
X125599Y300578D01*
X125587Y300620D01*
X125542Y300686D01*
X125504Y300757D01*
X125473Y300787D01*
X125448Y300823D01*
X125384Y300871D01*
X125326Y300926D01*
X125286Y300944D01*
X125251Y300971D01*
X125115Y301024D01*
X125103Y301030D01*
X125100Y301030D01*
X125095Y301032D01*
X124719Y301132D01*
X124140Y301467D01*
X123667Y301940D01*
X123332Y302519D01*
X123159Y303166D01*
X123159Y303714D01*
X123156Y303734D01*
X123158Y303753D01*
X123136Y303855D01*
X123120Y303957D01*
X123110Y303974D01*
X123106Y303994D01*
X123053Y304083D01*
X123004Y304174D01*
X122990Y304188D01*
X122980Y304205D01*
X122901Y304272D01*
X122826Y304344D01*
X122808Y304352D01*
X122793Y304365D01*
X122697Y304404D01*
X122603Y304447D01*
X122583Y304449D01*
X122565Y304457D01*
X122398Y304475D01*
X115068Y304475D01*
X114811Y304732D01*
X114737Y304786D01*
X114668Y304845D01*
X114638Y304857D01*
X114612Y304876D01*
X114525Y304903D01*
X114440Y304937D01*
X114399Y304941D01*
X114377Y304948D01*
X114344Y304947D01*
X114273Y304955D01*
X110192Y304955D01*
X96699Y318449D01*
X96683Y318460D01*
X96670Y318476D01*
X96583Y318532D01*
X96499Y318592D01*
X96480Y318598D01*
X96464Y318609D01*
X96363Y318634D01*
X96264Y318664D01*
X96244Y318664D01*
X96225Y318669D01*
X96122Y318661D01*
X96018Y318658D01*
X96000Y318651D01*
X95980Y318650D01*
X95885Y318609D01*
X95787Y318574D01*
X95772Y318561D01*
X95753Y318553D01*
X95622Y318449D01*
X92387Y315213D01*
X38396Y315213D01*
X38333Y315203D01*
X38269Y315203D01*
X38213Y315183D01*
X38154Y315174D01*
X38097Y315144D01*
X38037Y315123D01*
X37989Y315086D01*
X37936Y315058D01*
X37892Y315012D01*
X37842Y314973D01*
X37808Y314924D01*
X37767Y314880D01*
X37740Y314822D01*
X37704Y314769D01*
X37689Y314711D01*
X37663Y314657D01*
X37656Y314593D01*
X37639Y314532D01*
X37643Y314472D01*
X37636Y314413D01*
X37650Y314350D01*
X37653Y314286D01*
X37676Y314231D01*
X37688Y314172D01*
X37721Y314117D01*
X37745Y314058D01*
X37784Y314012D01*
X37815Y313961D01*
X37863Y313920D01*
X37905Y313871D01*
X37956Y313840D01*
X38002Y313801D01*
X38061Y313777D01*
X38116Y313744D01*
X38199Y313722D01*
X38230Y313709D01*
X38254Y313707D01*
X38277Y313700D01*
X38712Y313631D01*
X40728Y312976D01*
X42616Y312014D01*
X44330Y310769D01*
X45829Y309270D01*
X47074Y307556D01*
X48036Y305668D01*
X48691Y303652D01*
X48949Y302023D01*
X36322Y302023D01*
X36302Y302020D01*
X36283Y302022D01*
X36181Y302000D01*
X36079Y301983D01*
X36062Y301974D01*
X36042Y301970D01*
X35953Y301917D01*
X35862Y301868D01*
X35848Y301854D01*
X35831Y301844D01*
X35764Y301765D01*
X35693Y301690D01*
X35684Y301672D01*
X35671Y301657D01*
X35633Y301561D01*
X35589Y301467D01*
X35587Y301447D01*
X35579Y301429D01*
X35561Y301262D01*
X35561Y300499D01*
X35559Y300499D01*
X35559Y301262D01*
X35556Y301282D01*
X35558Y301301D01*
X35536Y301403D01*
X35519Y301505D01*
X35510Y301522D01*
X35506Y301542D01*
X35453Y301631D01*
X35404Y301722D01*
X35390Y301736D01*
X35380Y301753D01*
X35301Y301820D01*
X35226Y301891D01*
X35208Y301900D01*
X35193Y301913D01*
X35097Y301952D01*
X35003Y301995D01*
X34983Y301997D01*
X34965Y302005D01*
X34798Y302023D01*
X22171Y302023D01*
X22429Y303652D01*
X23084Y305668D01*
X24046Y307556D01*
X25291Y309270D01*
X26790Y310769D01*
X28504Y312014D01*
X30392Y312976D01*
X32408Y313631D01*
X32843Y313700D01*
X32903Y313720D01*
X32966Y313731D01*
X33019Y313759D01*
X33076Y313777D01*
X33127Y313816D01*
X33184Y313846D01*
X33225Y313889D01*
X33273Y313925D01*
X33309Y313978D01*
X33353Y314024D01*
X33378Y314078D01*
X33412Y314128D01*
X33430Y314189D01*
X33457Y314247D01*
X33463Y314307D01*
X33480Y314364D01*
X33477Y314428D01*
X33484Y314491D01*
X33471Y314550D01*
X33468Y314610D01*
X33445Y314669D01*
X33432Y314732D01*
X33401Y314783D01*
X33379Y314839D01*
X33338Y314888D01*
X33305Y314943D01*
X33260Y314982D01*
X33221Y315028D01*
X33167Y315061D01*
X33118Y315103D01*
X33063Y315125D01*
X33012Y315157D01*
X32950Y315171D01*
X32890Y315195D01*
X32804Y315204D01*
X32772Y315212D01*
X32748Y315211D01*
X32724Y315213D01*
X21913Y315213D01*
X20573Y316553D01*
X20573Y360357D01*
X49853Y389637D01*
X61074Y389637D01*
X61094Y389640D01*
X61113Y389638D01*
X61215Y389660D01*
X61317Y389676D01*
X61334Y389686D01*
X61354Y389690D01*
X61443Y389743D01*
X61534Y389792D01*
X61548Y389806D01*
X61565Y389816D01*
X61632Y389895D01*
X61704Y389970D01*
X61712Y389988D01*
X61725Y390003D01*
X61764Y390099D01*
X61807Y390193D01*
X61809Y390213D01*
X61817Y390231D01*
X61835Y390398D01*
X61835Y393292D01*
X62728Y394185D01*
X84592Y394185D01*
X85485Y393292D01*
X85485Y390398D01*
X85488Y390378D01*
X85486Y390359D01*
X85508Y390257D01*
X85524Y390155D01*
X85534Y390138D01*
X85538Y390118D01*
X85591Y390029D01*
X85640Y389938D01*
X85654Y389924D01*
X85664Y389907D01*
X85743Y389840D01*
X85818Y389768D01*
X85836Y389760D01*
X85851Y389747D01*
X85947Y389708D01*
X86041Y389665D01*
X86061Y389663D01*
X86079Y389655D01*
X86246Y389637D01*
X144457Y389637D01*
X145797Y388297D01*
X145797Y344612D01*
X145816Y344496D01*
X145834Y344378D01*
X145836Y344374D01*
X145836Y344370D01*
X145892Y344265D01*
X145947Y344159D01*
X145950Y344156D01*
X145952Y344152D01*
X146037Y344071D01*
X146123Y343988D01*
X146127Y343986D01*
X146130Y343983D01*
X146237Y343933D01*
X146345Y343882D01*
X146349Y343881D01*
X146353Y343879D01*
X146469Y343866D01*
X146589Y343852D01*
X146594Y343853D01*
X146597Y343852D01*
X146611Y343855D01*
X146755Y343877D01*
X147366Y344041D01*
X148576Y344041D01*
X148576Y337613D01*
X148579Y337594D01*
X148577Y337574D01*
X148599Y337472D01*
X148615Y337370D01*
X148625Y337353D01*
X148629Y337333D01*
X148682Y337244D01*
X148731Y337153D01*
X148745Y337139D01*
X148755Y337122D01*
X148834Y337055D01*
X148909Y336984D01*
X148927Y336975D01*
X148935Y336969D01*
X148957Y336927D01*
X148971Y336913D01*
X148981Y336896D01*
X149060Y336829D01*
X149135Y336757D01*
X149153Y336749D01*
X149168Y336736D01*
X149265Y336697D01*
X149358Y336654D01*
X149378Y336652D01*
X149396Y336644D01*
X149563Y336626D01*
X153741Y336626D01*
X153741Y334704D01*
X153748Y334660D01*
X153746Y334617D01*
X153768Y334540D01*
X153780Y334461D01*
X153801Y334422D01*
X153813Y334380D01*
X153858Y334314D01*
X153896Y334243D01*
X153927Y334213D01*
X153952Y334177D01*
X154016Y334129D01*
X154074Y334074D01*
X154114Y334056D01*
X154149Y334029D01*
X154284Y333976D01*
X154297Y333970D01*
X154300Y333970D01*
X154305Y333968D01*
X154681Y333868D01*
X155260Y333533D01*
X155733Y333060D01*
X156068Y332481D01*
X156168Y332105D01*
X156186Y332065D01*
X156196Y332022D01*
X156237Y331954D01*
X156269Y331881D01*
X156299Y331849D01*
X156322Y331811D01*
X156382Y331759D01*
X156437Y331701D01*
X156475Y331680D01*
X156509Y331651D01*
X156583Y331621D01*
X156653Y331583D01*
X156696Y331576D01*
X156737Y331559D01*
X156882Y331543D01*
X156895Y331541D01*
X156899Y331541D01*
X156904Y331541D01*
X158826Y331541D01*
X158826Y327363D01*
X158829Y327344D01*
X158827Y327324D01*
X158849Y327222D01*
X158865Y327120D01*
X158875Y327103D01*
X158879Y327083D01*
X158932Y326994D01*
X158981Y326903D01*
X158995Y326889D01*
X159005Y326872D01*
X159084Y326805D01*
X159159Y326734D01*
X159177Y326725D01*
X159185Y326719D01*
X159207Y326677D01*
X159221Y326663D01*
X159231Y326646D01*
X159310Y326579D01*
X159385Y326507D01*
X159403Y326499D01*
X159418Y326486D01*
X159515Y326447D01*
X159608Y326404D01*
X159628Y326402D01*
X159646Y326394D01*
X159813Y326376D01*
X166241Y326376D01*
X166241Y325882D01*
X166244Y325862D01*
X166242Y325843D01*
X166264Y325741D01*
X166280Y325639D01*
X166290Y325622D01*
X166294Y325602D01*
X166347Y325513D01*
X166396Y325422D01*
X166410Y325408D01*
X166420Y325391D01*
X166499Y325324D01*
X166574Y325252D01*
X166592Y325244D01*
X166607Y325231D01*
X166703Y325192D01*
X166797Y325149D01*
X166817Y325147D01*
X166835Y325139D01*
X167002Y325121D01*
X173892Y325121D01*
X173982Y325135D01*
X174073Y325143D01*
X174103Y325155D01*
X174135Y325160D01*
X174216Y325203D01*
X174300Y325239D01*
X174332Y325265D01*
X174352Y325276D01*
X174375Y325299D01*
X174431Y325344D01*
X204688Y355601D01*
X232192Y355601D01*
X233681Y354112D01*
X233681Y280888D01*
X232477Y279684D01*
X232436Y279626D01*
X232386Y279574D01*
X232364Y279527D01*
X232334Y279485D01*
X232313Y279416D01*
X232283Y279351D01*
X232277Y279299D01*
X232261Y279249D01*
X232263Y279178D01*
X232255Y279107D01*
X232267Y279056D01*
X232268Y279004D01*
X232292Y278936D01*
X232308Y278866D01*
X232334Y278821D01*
X232352Y278773D01*
X232397Y278717D01*
X232434Y278655D01*
X232473Y278621D01*
X232506Y278581D01*
X232566Y278542D01*
X232621Y278495D01*
X232669Y278476D01*
X232713Y278448D01*
X232782Y278430D01*
X232849Y278403D01*
X232920Y278395D01*
X232951Y278387D01*
X232975Y278389D01*
X233016Y278385D01*
X235458Y278385D01*
X235478Y278388D01*
X235497Y278386D01*
X235599Y278408D01*
X235701Y278424D01*
X235718Y278434D01*
X235738Y278438D01*
X235827Y278491D01*
X235918Y278540D01*
X235932Y278554D01*
X235949Y278564D01*
X236016Y278643D01*
X236088Y278718D01*
X236096Y278736D01*
X236109Y278751D01*
X236148Y278847D01*
X236191Y278941D01*
X236193Y278961D01*
X236201Y278979D01*
X236219Y279146D01*
X236219Y359918D01*
X236216Y359938D01*
X236218Y359957D01*
X236196Y360059D01*
X236180Y360161D01*
X236170Y360178D01*
X236166Y360198D01*
X236113Y360287D01*
X236064Y360378D01*
X236050Y360392D01*
X236040Y360409D01*
X235961Y360476D01*
X235886Y360548D01*
X235868Y360556D01*
X235853Y360569D01*
X235757Y360608D01*
X235663Y360651D01*
X235643Y360653D01*
X235625Y360661D01*
X235458Y360679D01*
X222468Y360679D01*
X213359Y369788D01*
X213359Y407452D01*
X214167Y408260D01*
X214208Y408318D01*
X214258Y408370D01*
X214280Y408417D01*
X214310Y408459D01*
X214331Y408528D01*
X214361Y408593D01*
X214367Y408645D01*
X214383Y408695D01*
X214381Y408766D01*
X214389Y408837D01*
X214377Y408888D01*
X214376Y408940D01*
X214352Y409008D01*
X214336Y409078D01*
X214310Y409123D01*
X214292Y409171D01*
X214247Y409227D01*
X214210Y409289D01*
X214171Y409323D01*
X214138Y409363D01*
X214078Y409402D01*
X214023Y409449D01*
X213975Y409468D01*
X213931Y409496D01*
X213862Y409514D01*
X213795Y409541D01*
X213724Y409549D01*
X213693Y409557D01*
X213669Y409555D01*
X213628Y409559D01*
X209326Y409559D01*
X208679Y409732D01*
X208100Y410067D01*
X207627Y410540D01*
X207292Y411119D01*
X207119Y411766D01*
X207119Y417577D01*
X214898Y417577D01*
X214918Y417580D01*
X214937Y417578D01*
X215039Y417600D01*
X215141Y417617D01*
X215158Y417626D01*
X215178Y417630D01*
X215267Y417683D01*
X215358Y417732D01*
X215372Y417746D01*
X215389Y417756D01*
X215456Y417835D01*
X215527Y417910D01*
X215536Y417928D01*
X215549Y417943D01*
X215588Y418039D01*
X215631Y418133D01*
X215633Y418153D01*
X215641Y418171D01*
X215659Y418338D01*
X215659Y419101D01*
X215661Y419101D01*
X215661Y418338D01*
X215664Y418318D01*
X215662Y418299D01*
X215684Y418197D01*
X215701Y418095D01*
X215710Y418078D01*
X215714Y418058D01*
X215767Y417969D01*
X215816Y417878D01*
X215830Y417864D01*
X215840Y417847D01*
X215919Y417780D01*
X215994Y417709D01*
X216012Y417700D01*
X216027Y417687D01*
X216123Y417648D01*
X216217Y417605D01*
X216237Y417603D01*
X216255Y417595D01*
X216422Y417577D01*
X224201Y417577D01*
X224201Y411766D01*
X224028Y411119D01*
X223693Y410540D01*
X223393Y410240D01*
X223352Y410182D01*
X223302Y410130D01*
X223280Y410083D01*
X223250Y410041D01*
X223229Y409972D01*
X223199Y409907D01*
X223193Y409855D01*
X223177Y409805D01*
X223179Y409734D01*
X223171Y409663D01*
X223183Y409612D01*
X223184Y409560D01*
X223208Y409492D01*
X223224Y409422D01*
X223250Y409377D01*
X223268Y409329D01*
X223313Y409273D01*
X223350Y409211D01*
X223389Y409177D01*
X223422Y409137D01*
X223482Y409098D01*
X223537Y409051D01*
X223585Y409032D01*
X223629Y409004D01*
X223698Y408986D01*
X223765Y408959D01*
X223836Y408951D01*
X223867Y408943D01*
X223891Y408945D01*
X223932Y408941D01*
X252512Y408941D01*
X254224Y407229D01*
X268830Y392623D01*
X268846Y392611D01*
X268859Y392596D01*
X268946Y392540D01*
X269030Y392479D01*
X269049Y392474D01*
X269066Y392463D01*
X269166Y392438D01*
X269265Y392407D01*
X269285Y392408D01*
X269304Y392403D01*
X269407Y392411D01*
X269511Y392413D01*
X269530Y392420D01*
X269549Y392422D01*
X269644Y392462D01*
X269742Y392498D01*
X269757Y392510D01*
X269776Y392518D01*
X269907Y392623D01*
X270108Y392825D01*
X284072Y392825D01*
X284965Y391932D01*
X284965Y376804D01*
X284979Y376714D01*
X284987Y376623D01*
X284999Y376593D01*
X285004Y376561D01*
X285047Y376480D01*
X285083Y376396D01*
X285109Y376364D01*
X285120Y376344D01*
X285143Y376321D01*
X285188Y376265D01*
X289561Y371892D01*
X289561Y260568D01*
X289357Y260364D01*
X289316Y260306D01*
X289266Y260254D01*
X289244Y260207D01*
X289214Y260165D01*
X289193Y260096D01*
X289163Y260031D01*
X289157Y259979D01*
X289141Y259929D01*
X289143Y259858D01*
X289135Y259787D01*
X289147Y259736D01*
X289148Y259684D01*
X289172Y259616D01*
X289188Y259546D01*
X289214Y259501D01*
X289232Y259453D01*
X289277Y259397D01*
X289314Y259335D01*
X289353Y259301D01*
X289386Y259261D01*
X289446Y259222D01*
X289501Y259175D01*
X289549Y259156D01*
X289593Y259128D01*
X289662Y259110D01*
X289729Y259083D01*
X289800Y259075D01*
X289831Y259067D01*
X289855Y259069D01*
X289896Y259065D01*
X387259Y259065D01*
X387349Y259079D01*
X387440Y259087D01*
X387470Y259099D01*
X387502Y259104D01*
X387582Y259147D01*
X387666Y259183D01*
X387698Y259209D01*
X387719Y259220D01*
X387741Y259243D01*
X387744Y259244D01*
X387746Y259247D01*
X387797Y259288D01*
X407894Y279385D01*
X524286Y279385D01*
X546085Y257586D01*
X546085Y235041D01*
X546099Y234951D01*
X546107Y234860D01*
X546119Y234830D01*
X546124Y234798D01*
X546167Y234718D01*
X546203Y234634D01*
X546229Y234602D01*
X546240Y234581D01*
X546263Y234559D01*
X546308Y234503D01*
X557083Y223728D01*
X557157Y223675D01*
X557226Y223615D01*
X557256Y223603D01*
X557283Y223584D01*
X557370Y223557D01*
X557454Y223523D01*
X557495Y223519D01*
X557518Y223512D01*
X557550Y223513D01*
X557621Y223505D01*
X559054Y223505D01*
X559074Y223508D01*
X559093Y223506D01*
X559195Y223528D01*
X559297Y223544D01*
X559314Y223554D01*
X559334Y223558D01*
X559423Y223611D01*
X559514Y223660D01*
X559528Y223674D01*
X559545Y223684D01*
X559612Y223763D01*
X559684Y223838D01*
X559692Y223856D01*
X559705Y223871D01*
X559744Y223967D01*
X559787Y224061D01*
X559789Y224081D01*
X559797Y224099D01*
X559815Y224266D01*
X559815Y229232D01*
X560708Y230125D01*
X582292Y230125D01*
X583185Y229232D01*
X583185Y225536D01*
X583188Y225516D01*
X583186Y225497D01*
X583208Y225395D01*
X583224Y225293D01*
X583234Y225276D01*
X583238Y225256D01*
X583291Y225167D01*
X583340Y225076D01*
X583354Y225062D01*
X583364Y225045D01*
X583443Y224978D01*
X583518Y224906D01*
X583536Y224898D01*
X583551Y224885D01*
X583647Y224846D01*
X583741Y224803D01*
X583761Y224801D01*
X583779Y224793D01*
X583946Y224775D01*
X597014Y224775D01*
X597034Y224778D01*
X597053Y224776D01*
X597155Y224798D01*
X597257Y224814D01*
X597274Y224824D01*
X597294Y224828D01*
X597383Y224881D01*
X597474Y224930D01*
X597488Y224944D01*
X597505Y224954D01*
X597572Y225033D01*
X597644Y225108D01*
X597652Y225126D01*
X597665Y225141D01*
X597704Y225237D01*
X597747Y225331D01*
X597749Y225351D01*
X597757Y225369D01*
X597775Y225536D01*
X597775Y228192D01*
X598668Y229085D01*
X620532Y229085D01*
X621425Y228192D01*
X621425Y214228D01*
X620532Y213335D01*
X598668Y213335D01*
G37*
%LPD*%
G36*
X287078Y260613D02*
X287078Y260613D01*
X287136Y260611D01*
X287218Y260633D01*
X287302Y260645D01*
X287355Y260669D01*
X287411Y260683D01*
X287484Y260726D01*
X287561Y260761D01*
X287606Y260799D01*
X287656Y260829D01*
X287714Y260890D01*
X287778Y260945D01*
X287810Y260993D01*
X287850Y261036D01*
X287889Y261111D01*
X287936Y261181D01*
X287953Y261237D01*
X287980Y261289D01*
X287991Y261357D01*
X288021Y261452D01*
X288024Y261552D01*
X288035Y261620D01*
X288035Y370840D01*
X288023Y370927D01*
X288020Y371015D01*
X288003Y371067D01*
X287995Y371122D01*
X287960Y371202D01*
X287932Y371285D01*
X287905Y371324D01*
X287879Y371381D01*
X287783Y371495D01*
X287737Y371558D01*
X287713Y371582D01*
X287700Y371592D01*
X287696Y371598D01*
X287687Y371604D01*
X287671Y371622D01*
X287577Y371685D01*
X287486Y371753D01*
X287459Y371763D01*
X287435Y371780D01*
X287327Y371814D01*
X287220Y371854D01*
X287191Y371857D01*
X287164Y371865D01*
X287050Y371868D01*
X286937Y371878D01*
X286909Y371872D01*
X286880Y371873D01*
X286770Y371844D01*
X286658Y371821D01*
X286633Y371808D01*
X286605Y371801D01*
X286507Y371743D01*
X286406Y371690D01*
X286385Y371670D01*
X286360Y371656D01*
X286282Y371573D01*
X286200Y371494D01*
X286186Y371469D01*
X286166Y371448D01*
X286114Y371347D01*
X286057Y371249D01*
X286049Y371221D01*
X286036Y371195D01*
X286023Y371118D01*
X285987Y370973D01*
X285989Y370911D01*
X285981Y370864D01*
X285981Y370365D01*
X285808Y369719D01*
X285473Y369140D01*
X285000Y368667D01*
X284421Y368332D01*
X283774Y368159D01*
X279121Y368159D01*
X279121Y379754D01*
X279109Y379841D01*
X279106Y379928D01*
X279089Y379981D01*
X279081Y380036D01*
X279046Y380115D01*
X279019Y380199D01*
X278991Y380238D01*
X278965Y380295D01*
X278869Y380408D01*
X278824Y380472D01*
X278594Y380702D01*
X278524Y380754D01*
X278460Y380814D01*
X278411Y380839D01*
X278367Y380873D01*
X278285Y380904D01*
X278207Y380944D01*
X278160Y380952D01*
X278101Y380974D01*
X277953Y380986D01*
X277876Y380999D01*
X277089Y380999D01*
X277089Y381786D01*
X277077Y381873D01*
X277074Y381960D01*
X277057Y382013D01*
X277049Y382068D01*
X277014Y382147D01*
X276987Y382231D01*
X276959Y382270D01*
X276933Y382327D01*
X276837Y382440D01*
X276792Y382504D01*
X276562Y382734D01*
X276492Y382786D01*
X276428Y382846D01*
X276379Y382872D01*
X276335Y382905D01*
X276253Y382936D01*
X276175Y382976D01*
X276128Y382984D01*
X276069Y383006D01*
X275921Y383018D01*
X275844Y383031D01*
X268199Y383031D01*
X268199Y390676D01*
X268187Y390763D01*
X268184Y390850D01*
X268167Y390903D01*
X268159Y390957D01*
X268124Y391037D01*
X268097Y391121D01*
X268069Y391160D01*
X268043Y391217D01*
X267947Y391330D01*
X267902Y391394D01*
X252178Y407118D01*
X252108Y407170D01*
X252044Y407230D01*
X251995Y407256D01*
X251951Y407289D01*
X251869Y407320D01*
X251791Y407360D01*
X251744Y407368D01*
X251685Y407390D01*
X251537Y407402D01*
X251460Y407415D01*
X215900Y407415D01*
X215842Y407407D01*
X215784Y407409D01*
X215702Y407387D01*
X215619Y407375D01*
X215565Y407352D01*
X215509Y407337D01*
X215436Y407294D01*
X215359Y407259D01*
X215314Y407221D01*
X215264Y407192D01*
X215206Y407130D01*
X215142Y407076D01*
X215110Y407027D01*
X215070Y406984D01*
X215031Y406909D01*
X214985Y406839D01*
X214967Y406783D01*
X214940Y406731D01*
X214929Y406663D01*
X214899Y406568D01*
X214896Y406468D01*
X214885Y406400D01*
X214885Y370840D01*
X214897Y370753D01*
X214900Y370666D01*
X214917Y370613D01*
X214925Y370559D01*
X214960Y370479D01*
X214987Y370395D01*
X215015Y370356D01*
X215041Y370299D01*
X215137Y370186D01*
X215182Y370122D01*
X222802Y362502D01*
X222872Y362450D01*
X222936Y362390D01*
X222985Y362364D01*
X223029Y362331D01*
X223111Y362300D01*
X223189Y362260D01*
X223237Y362252D01*
X223295Y362230D01*
X223443Y362218D01*
X223520Y362205D01*
X237745Y362205D01*
X237745Y261620D01*
X237753Y261562D01*
X237751Y261504D01*
X237773Y261422D01*
X237785Y261339D01*
X237809Y261285D01*
X237823Y261229D01*
X237866Y261156D01*
X237901Y261079D01*
X237939Y261034D01*
X237969Y260984D01*
X238030Y260926D01*
X238085Y260862D01*
X238133Y260830D01*
X238176Y260790D01*
X238251Y260751D01*
X238321Y260705D01*
X238377Y260687D01*
X238429Y260660D01*
X238497Y260649D01*
X238592Y260619D01*
X238692Y260616D01*
X238760Y260605D01*
X287020Y260605D01*
X287078Y260613D01*
G37*
G36*
X91530Y316754D02*
X91530Y316754D01*
X91621Y316761D01*
X91651Y316773D01*
X91683Y316779D01*
X91763Y316821D01*
X91847Y316857D01*
X91879Y316883D01*
X91900Y316894D01*
X91922Y316917D01*
X91978Y316962D01*
X93756Y318740D01*
X93798Y318798D01*
X93848Y318850D01*
X93870Y318897D01*
X93900Y318939D01*
X93921Y319008D01*
X93951Y319073D01*
X93957Y319125D01*
X93972Y319175D01*
X93970Y319246D01*
X93978Y319317D01*
X93967Y319368D01*
X93966Y319420D01*
X93941Y319488D01*
X93926Y319558D01*
X93899Y319602D01*
X93881Y319651D01*
X93837Y319707D01*
X93800Y319769D01*
X93760Y319803D01*
X93728Y319843D01*
X93667Y319882D01*
X93613Y319929D01*
X93565Y319948D01*
X93521Y319976D01*
X93451Y319994D01*
X93385Y320021D01*
X93313Y320029D01*
X93282Y320037D01*
X93259Y320035D01*
X93218Y320039D01*
X90423Y320039D01*
X90423Y327407D01*
X102108Y327407D01*
X102198Y327422D01*
X102289Y327429D01*
X102319Y327441D01*
X102351Y327447D01*
X102431Y327489D01*
X102515Y327525D01*
X102547Y327551D01*
X102568Y327562D01*
X102590Y327585D01*
X102646Y327630D01*
X110805Y335789D01*
X124898Y335789D01*
X124918Y335792D01*
X124937Y335790D01*
X125039Y335812D01*
X125141Y335829D01*
X125158Y335838D01*
X125178Y335842D01*
X125267Y335895D01*
X125358Y335944D01*
X125372Y335958D01*
X125389Y335968D01*
X125456Y336047D01*
X125528Y336122D01*
X125536Y336140D01*
X125549Y336155D01*
X125588Y336251D01*
X125631Y336345D01*
X125633Y336365D01*
X125641Y336383D01*
X125659Y336550D01*
X125659Y336626D01*
X129837Y336626D01*
X129856Y336629D01*
X129876Y336627D01*
X129936Y336640D01*
X130063Y336626D01*
X136337Y336626D01*
X136356Y336629D01*
X136376Y336627D01*
X136436Y336640D01*
X136563Y336626D01*
X142837Y336626D01*
X142856Y336629D01*
X142876Y336627D01*
X142978Y336649D01*
X143080Y336665D01*
X143097Y336675D01*
X143117Y336679D01*
X143206Y336732D01*
X143297Y336781D01*
X143311Y336795D01*
X143328Y336805D01*
X143395Y336884D01*
X143466Y336959D01*
X143475Y336977D01*
X143481Y336985D01*
X143523Y337007D01*
X143537Y337021D01*
X143554Y337031D01*
X143621Y337110D01*
X143693Y337185D01*
X143701Y337203D01*
X143714Y337218D01*
X143753Y337315D01*
X143796Y337408D01*
X143798Y337428D01*
X143806Y337446D01*
X143824Y337613D01*
X143824Y344115D01*
X143879Y344147D01*
X143970Y344196D01*
X143984Y344210D01*
X144001Y344220D01*
X144068Y344299D01*
X144140Y344374D01*
X144148Y344392D01*
X144161Y344407D01*
X144200Y344503D01*
X144243Y344597D01*
X144245Y344617D01*
X144253Y344635D01*
X144271Y344802D01*
X144271Y387350D01*
X144268Y387370D01*
X144270Y387389D01*
X144248Y387491D01*
X144232Y387593D01*
X144222Y387610D01*
X144218Y387630D01*
X144165Y387719D01*
X144116Y387810D01*
X144102Y387824D01*
X144092Y387841D01*
X144013Y387908D01*
X143938Y387980D01*
X143920Y387988D01*
X143905Y388001D01*
X143809Y388040D01*
X143715Y388083D01*
X143695Y388085D01*
X143677Y388093D01*
X143510Y388111D01*
X87262Y388111D01*
X87242Y388108D01*
X87223Y388110D01*
X87121Y388088D01*
X87019Y388072D01*
X87002Y388062D01*
X86982Y388058D01*
X86893Y388005D01*
X86802Y387956D01*
X86788Y387942D01*
X86771Y387932D01*
X86704Y387853D01*
X86685Y387833D01*
X74422Y387833D01*
X74402Y387830D01*
X74383Y387832D01*
X74281Y387810D01*
X74179Y387793D01*
X74162Y387784D01*
X74142Y387780D01*
X74053Y387727D01*
X73962Y387678D01*
X73948Y387664D01*
X73931Y387654D01*
X73864Y387575D01*
X73793Y387500D01*
X73784Y387482D01*
X73771Y387467D01*
X73732Y387371D01*
X73689Y387277D01*
X73687Y387257D01*
X73679Y387239D01*
X73661Y387072D01*
X73661Y386309D01*
X73659Y386309D01*
X73659Y387072D01*
X73656Y387092D01*
X73658Y387111D01*
X73636Y387213D01*
X73619Y387315D01*
X73610Y387332D01*
X73606Y387352D01*
X73553Y387441D01*
X73504Y387532D01*
X73490Y387546D01*
X73480Y387563D01*
X73401Y387630D01*
X73326Y387701D01*
X73308Y387710D01*
X73293Y387723D01*
X73197Y387762D01*
X73103Y387805D01*
X73083Y387807D01*
X73065Y387815D01*
X72898Y387833D01*
X60644Y387833D01*
X60640Y387841D01*
X60561Y387908D01*
X60486Y387980D01*
X60468Y387988D01*
X60453Y388001D01*
X60357Y388040D01*
X60263Y388083D01*
X60243Y388085D01*
X60225Y388093D01*
X60058Y388111D01*
X50800Y388111D01*
X50710Y388097D01*
X50619Y388089D01*
X50589Y388077D01*
X50557Y388072D01*
X50477Y388029D01*
X50393Y387993D01*
X50361Y387967D01*
X50340Y387956D01*
X50318Y387933D01*
X50262Y387888D01*
X22322Y359948D01*
X22269Y359874D01*
X22209Y359805D01*
X22197Y359775D01*
X22178Y359749D01*
X22151Y359662D01*
X22117Y359577D01*
X22113Y359536D01*
X22106Y359513D01*
X22107Y359481D01*
X22099Y359410D01*
X22099Y341906D01*
X22110Y341839D01*
X22111Y341771D01*
X22129Y341718D01*
X22139Y341663D01*
X22170Y341603D01*
X22193Y341539D01*
X22227Y341495D01*
X22254Y341446D01*
X22303Y341399D01*
X22345Y341346D01*
X22391Y341315D01*
X22432Y341276D01*
X22494Y341248D01*
X22550Y341211D01*
X22604Y341196D01*
X22655Y341173D01*
X22722Y341165D01*
X22788Y341148D01*
X22844Y341152D01*
X22899Y341146D01*
X22966Y341160D01*
X23033Y341165D01*
X23085Y341186D01*
X23140Y341198D01*
X23198Y341233D01*
X23261Y341259D01*
X23303Y341295D01*
X23351Y341324D01*
X23395Y341376D01*
X23446Y341420D01*
X23489Y341486D01*
X23511Y341511D01*
X23519Y341530D01*
X23538Y341560D01*
X24046Y342556D01*
X25291Y344270D01*
X26790Y345769D01*
X28504Y347014D01*
X30392Y347976D01*
X32408Y348631D01*
X34037Y348889D01*
X34037Y336262D01*
X34040Y336242D01*
X34038Y336223D01*
X34060Y336121D01*
X34077Y336019D01*
X34086Y336002D01*
X34090Y335982D01*
X34143Y335893D01*
X34192Y335802D01*
X34206Y335788D01*
X34216Y335771D01*
X34295Y335704D01*
X34370Y335633D01*
X34388Y335624D01*
X34403Y335611D01*
X34499Y335573D01*
X34593Y335529D01*
X34613Y335527D01*
X34631Y335519D01*
X34798Y335501D01*
X35561Y335501D01*
X35561Y335499D01*
X34798Y335499D01*
X34778Y335496D01*
X34759Y335498D01*
X34657Y335476D01*
X34555Y335459D01*
X34538Y335450D01*
X34518Y335446D01*
X34429Y335393D01*
X34338Y335344D01*
X34324Y335330D01*
X34307Y335320D01*
X34240Y335241D01*
X34169Y335166D01*
X34160Y335148D01*
X34147Y335133D01*
X34108Y335037D01*
X34065Y334943D01*
X34063Y334923D01*
X34055Y334905D01*
X34037Y334738D01*
X34037Y322111D01*
X32408Y322369D01*
X30392Y323024D01*
X28504Y323986D01*
X26790Y325231D01*
X25291Y326730D01*
X24046Y328444D01*
X23538Y329440D01*
X23498Y329494D01*
X23466Y329554D01*
X23426Y329593D01*
X23393Y329638D01*
X23337Y329677D01*
X23288Y329724D01*
X23237Y329747D01*
X23191Y329779D01*
X23127Y329799D01*
X23065Y329827D01*
X23009Y329833D01*
X22956Y329849D01*
X22888Y329847D01*
X22821Y329854D01*
X22766Y329842D01*
X22710Y329840D01*
X22647Y329817D01*
X22580Y329802D01*
X22532Y329773D01*
X22480Y329754D01*
X22427Y329711D01*
X22369Y329676D01*
X22333Y329633D01*
X22289Y329598D01*
X22253Y329541D01*
X22209Y329489D01*
X22188Y329437D01*
X22158Y329390D01*
X22143Y329324D01*
X22117Y329261D01*
X22109Y329182D01*
X22101Y329151D01*
X22103Y329130D01*
X22099Y329094D01*
X22099Y317500D01*
X22102Y317480D01*
X22100Y317461D01*
X22122Y317359D01*
X22139Y317257D01*
X22148Y317240D01*
X22152Y317220D01*
X22205Y317131D01*
X22254Y317040D01*
X22268Y317026D01*
X22278Y317009D01*
X22357Y316942D01*
X22432Y316871D01*
X22450Y316862D01*
X22465Y316849D01*
X22561Y316810D01*
X22655Y316767D01*
X22675Y316765D01*
X22693Y316757D01*
X22860Y316739D01*
X91440Y316739D01*
X91530Y316754D01*
G37*
%LPC*%
G36*
X419968Y181215D02*
X419968Y181215D01*
X419075Y182108D01*
X419075Y189754D01*
X419072Y189774D01*
X419074Y189793D01*
X419052Y189895D01*
X419036Y189997D01*
X419026Y190014D01*
X419022Y190034D01*
X418969Y190123D01*
X418920Y190214D01*
X418906Y190228D01*
X418896Y190245D01*
X418817Y190312D01*
X418742Y190384D01*
X418724Y190392D01*
X418709Y190405D01*
X418613Y190444D01*
X418519Y190487D01*
X418499Y190489D01*
X418481Y190497D01*
X418314Y190515D01*
X418054Y190515D01*
X390337Y218232D01*
X390263Y218285D01*
X390194Y218345D01*
X390164Y218357D01*
X390137Y218376D01*
X390050Y218403D01*
X389966Y218437D01*
X389925Y218441D01*
X389902Y218448D01*
X389870Y218447D01*
X389799Y218455D01*
X184374Y218455D01*
X175275Y227554D01*
X175275Y231974D01*
X175272Y231994D01*
X175274Y232013D01*
X175252Y232115D01*
X175236Y232217D01*
X175226Y232234D01*
X175222Y232254D01*
X175169Y232343D01*
X175120Y232434D01*
X175106Y232448D01*
X175096Y232465D01*
X175017Y232532D01*
X174942Y232604D01*
X174924Y232612D01*
X174909Y232625D01*
X174813Y232664D01*
X174719Y232707D01*
X174699Y232709D01*
X174681Y232717D01*
X174514Y232735D01*
X170128Y232735D01*
X169235Y233628D01*
X169235Y248972D01*
X170128Y249865D01*
X185472Y249865D01*
X186365Y248972D01*
X186365Y233628D01*
X185472Y232735D01*
X181086Y232735D01*
X181066Y232732D01*
X181047Y232734D01*
X180945Y232712D01*
X180843Y232696D01*
X180826Y232686D01*
X180806Y232682D01*
X180717Y232629D01*
X180626Y232580D01*
X180612Y232566D01*
X180595Y232556D01*
X180528Y232477D01*
X180456Y232402D01*
X180448Y232384D01*
X180435Y232369D01*
X180396Y232273D01*
X180353Y232179D01*
X180351Y232159D01*
X180343Y232141D01*
X180325Y231974D01*
X180325Y229961D01*
X180339Y229871D01*
X180347Y229780D01*
X180359Y229750D01*
X180364Y229718D01*
X180407Y229638D01*
X180443Y229554D01*
X180469Y229522D01*
X180480Y229501D01*
X180503Y229479D01*
X180548Y229423D01*
X186243Y223728D01*
X186317Y223675D01*
X186386Y223615D01*
X186416Y223603D01*
X186443Y223584D01*
X186530Y223557D01*
X186614Y223523D01*
X186655Y223519D01*
X186678Y223512D01*
X186710Y223513D01*
X186781Y223505D01*
X207967Y223505D01*
X208038Y223516D01*
X208109Y223518D01*
X208158Y223536D01*
X208210Y223544D01*
X208273Y223578D01*
X208340Y223603D01*
X208381Y223635D01*
X208427Y223660D01*
X208476Y223711D01*
X208532Y223756D01*
X208561Y223800D01*
X208596Y223838D01*
X208627Y223903D01*
X208665Y223963D01*
X208678Y224014D01*
X208700Y224061D01*
X208708Y224132D01*
X208725Y224202D01*
X208721Y224254D01*
X208727Y224305D01*
X208712Y224376D01*
X208706Y224447D01*
X208686Y224495D01*
X208675Y224546D01*
X208638Y224607D01*
X208610Y224673D01*
X208565Y224729D01*
X208549Y224757D01*
X208531Y224772D01*
X208505Y224804D01*
X208072Y225237D01*
X200797Y232512D01*
X200723Y232565D01*
X200654Y232625D01*
X200624Y232637D01*
X200597Y232656D01*
X200510Y232683D01*
X200426Y232717D01*
X200385Y232721D01*
X200362Y232728D01*
X200330Y232727D01*
X200259Y232735D01*
X195528Y232735D01*
X194635Y233628D01*
X194635Y248972D01*
X195528Y249865D01*
X210872Y249865D01*
X211765Y248972D01*
X211765Y233628D01*
X210872Y232735D01*
X209553Y232735D01*
X209482Y232724D01*
X209411Y232722D01*
X209362Y232704D01*
X209310Y232696D01*
X209247Y232662D01*
X209180Y232637D01*
X209139Y232605D01*
X209093Y232580D01*
X209044Y232528D01*
X208988Y232484D01*
X208959Y232440D01*
X208924Y232402D01*
X208893Y232337D01*
X208855Y232277D01*
X208842Y232226D01*
X208820Y232179D01*
X208812Y232108D01*
X208795Y232038D01*
X208799Y231986D01*
X208793Y231935D01*
X208808Y231864D01*
X208814Y231793D01*
X208834Y231745D01*
X208845Y231694D01*
X208882Y231633D01*
X208910Y231567D01*
X208955Y231511D01*
X208971Y231483D01*
X208989Y231468D01*
X209015Y231436D01*
X211643Y228808D01*
X211717Y228755D01*
X211786Y228695D01*
X211816Y228683D01*
X211843Y228664D01*
X211930Y228637D01*
X212014Y228603D01*
X212055Y228599D01*
X212078Y228592D01*
X212110Y228593D01*
X212181Y228585D01*
X392339Y228585D01*
X392429Y228599D01*
X392520Y228607D01*
X392550Y228619D01*
X392582Y228624D01*
X392662Y228667D01*
X392746Y228703D01*
X392778Y228729D01*
X392799Y228740D01*
X392821Y228763D01*
X392877Y228808D01*
X410434Y246365D01*
X418314Y246365D01*
X418334Y246368D01*
X418353Y246366D01*
X418455Y246388D01*
X418557Y246404D01*
X418574Y246414D01*
X418594Y246418D01*
X418683Y246471D01*
X418774Y246520D01*
X418788Y246534D01*
X418805Y246544D01*
X418872Y246623D01*
X418944Y246698D01*
X418952Y246716D01*
X418965Y246731D01*
X419004Y246827D01*
X419047Y246921D01*
X419049Y246941D01*
X419057Y246959D01*
X419075Y247126D01*
X419075Y254772D01*
X419968Y255665D01*
X433932Y255665D01*
X434825Y254772D01*
X434825Y232908D01*
X433932Y232015D01*
X419968Y232015D01*
X419075Y232908D01*
X419075Y240554D01*
X419072Y240574D01*
X419074Y240593D01*
X419052Y240695D01*
X419036Y240797D01*
X419026Y240814D01*
X419022Y240834D01*
X418969Y240923D01*
X418920Y241014D01*
X418906Y241028D01*
X418896Y241045D01*
X418817Y241112D01*
X418742Y241184D01*
X418724Y241192D01*
X418709Y241205D01*
X418613Y241244D01*
X418519Y241287D01*
X418499Y241289D01*
X418481Y241297D01*
X418314Y241315D01*
X412841Y241315D01*
X412751Y241301D01*
X412660Y241293D01*
X412630Y241281D01*
X412598Y241276D01*
X412518Y241233D01*
X412434Y241197D01*
X412402Y241171D01*
X412381Y241160D01*
X412359Y241137D01*
X412303Y241092D01*
X394746Y223535D01*
X394013Y223535D01*
X393942Y223524D01*
X393871Y223522D01*
X393822Y223504D01*
X393770Y223496D01*
X393707Y223462D01*
X393640Y223437D01*
X393599Y223405D01*
X393553Y223380D01*
X393504Y223329D01*
X393448Y223284D01*
X393419Y223240D01*
X393384Y223202D01*
X393353Y223137D01*
X393315Y223077D01*
X393302Y223026D01*
X393280Y222979D01*
X393272Y222908D01*
X393255Y222838D01*
X393259Y222786D01*
X393253Y222735D01*
X393268Y222664D01*
X393274Y222593D01*
X393294Y222545D01*
X393305Y222494D01*
X393342Y222433D01*
X393370Y222367D01*
X393415Y222311D01*
X393431Y222283D01*
X393449Y222268D01*
X393475Y222236D01*
X393908Y221803D01*
X417776Y197935D01*
X417834Y197893D01*
X417886Y197844D01*
X417933Y197822D01*
X417975Y197791D01*
X418044Y197770D01*
X418109Y197740D01*
X418161Y197734D01*
X418211Y197719D01*
X418282Y197721D01*
X418353Y197713D01*
X418404Y197724D01*
X418456Y197725D01*
X418524Y197750D01*
X418594Y197765D01*
X418639Y197792D01*
X418687Y197810D01*
X418743Y197855D01*
X418805Y197891D01*
X418839Y197931D01*
X418879Y197963D01*
X418918Y198024D01*
X418965Y198078D01*
X418984Y198127D01*
X419012Y198170D01*
X419030Y198240D01*
X419057Y198306D01*
X419065Y198378D01*
X419073Y198409D01*
X419071Y198432D01*
X419075Y198473D01*
X419075Y203972D01*
X419968Y204865D01*
X433932Y204865D01*
X434825Y203972D01*
X434825Y182108D01*
X433932Y181215D01*
X419968Y181215D01*
G37*
%LPD*%
G36*
X231198Y280933D02*
X231198Y280933D01*
X231256Y280931D01*
X231338Y280953D01*
X231422Y280965D01*
X231475Y280989D01*
X231531Y281003D01*
X231604Y281046D01*
X231681Y281081D01*
X231726Y281119D01*
X231776Y281149D01*
X231834Y281210D01*
X231898Y281265D01*
X231930Y281313D01*
X231970Y281356D01*
X232009Y281431D01*
X232056Y281501D01*
X232073Y281557D01*
X232100Y281609D01*
X232111Y281677D01*
X232141Y281772D01*
X232144Y281872D01*
X232155Y281940D01*
X232155Y353060D01*
X232148Y353110D01*
X232149Y353124D01*
X232147Y353129D01*
X232149Y353176D01*
X232127Y353258D01*
X232115Y353342D01*
X232092Y353395D01*
X232077Y353451D01*
X232034Y353524D01*
X231999Y353601D01*
X231961Y353646D01*
X231932Y353696D01*
X231870Y353754D01*
X231816Y353818D01*
X231767Y353850D01*
X231724Y353890D01*
X231649Y353929D01*
X231579Y353976D01*
X231523Y353993D01*
X231471Y354020D01*
X231403Y354031D01*
X231308Y354061D01*
X231208Y354064D01*
X231140Y354075D01*
X205740Y354075D01*
X205653Y354063D01*
X205566Y354060D01*
X205513Y354043D01*
X205459Y354035D01*
X205379Y354000D01*
X205295Y353973D01*
X205256Y353945D01*
X205199Y353919D01*
X205086Y353823D01*
X205022Y353778D01*
X174840Y323595D01*
X167256Y323595D01*
X167198Y323587D01*
X167140Y323589D01*
X167058Y323567D01*
X166974Y323555D01*
X166921Y323532D01*
X166865Y323517D01*
X166792Y323474D01*
X166715Y323439D01*
X166670Y323401D01*
X166620Y323372D01*
X166562Y323310D01*
X166498Y323256D01*
X166466Y323207D01*
X166426Y323164D01*
X166387Y323089D01*
X166340Y323019D01*
X166323Y322963D01*
X166296Y322911D01*
X166285Y322843D01*
X166255Y322748D01*
X166252Y322648D01*
X166241Y322580D01*
X166241Y321765D01*
X160020Y321765D01*
X159962Y321757D01*
X159904Y321759D01*
X159822Y321737D01*
X159739Y321726D01*
X159685Y321702D01*
X159629Y321687D01*
X159556Y321644D01*
X159479Y321609D01*
X159434Y321572D01*
X159384Y321542D01*
X159326Y321480D01*
X159262Y321426D01*
X159230Y321377D01*
X159190Y321334D01*
X159151Y321259D01*
X159105Y321189D01*
X159087Y321133D01*
X159060Y321081D01*
X159049Y321013D01*
X159019Y320918D01*
X159016Y320818D01*
X159005Y320750D01*
X159013Y320692D01*
X159011Y320634D01*
X159011Y320633D01*
X159033Y320552D01*
X159045Y320468D01*
X159069Y320415D01*
X159083Y320358D01*
X159126Y320286D01*
X159161Y320209D01*
X159199Y320164D01*
X159229Y320114D01*
X159290Y320056D01*
X159345Y319992D01*
X159393Y319960D01*
X159436Y319919D01*
X159511Y319881D01*
X159581Y319834D01*
X159637Y319817D01*
X159689Y319790D01*
X159757Y319779D01*
X159852Y319749D01*
X159952Y319746D01*
X160020Y319735D01*
X166241Y319735D01*
X166241Y318666D01*
X166068Y318019D01*
X166061Y318008D01*
X166032Y317935D01*
X165994Y317867D01*
X165979Y317804D01*
X165955Y317744D01*
X165947Y317667D01*
X165929Y317591D01*
X165932Y317526D01*
X165926Y317461D01*
X165939Y317385D01*
X165943Y317307D01*
X165963Y317255D01*
X165976Y317181D01*
X166011Y317111D01*
X166018Y317082D01*
X166042Y317043D01*
X166061Y316992D01*
X166068Y316981D01*
X166241Y316334D01*
X166241Y315265D01*
X160020Y315265D01*
X159962Y315257D01*
X159904Y315259D01*
X159822Y315237D01*
X159739Y315226D01*
X159685Y315202D01*
X159629Y315187D01*
X159556Y315144D01*
X159479Y315109D01*
X159434Y315072D01*
X159384Y315042D01*
X159326Y314980D01*
X159262Y314926D01*
X159230Y314877D01*
X159190Y314834D01*
X159151Y314759D01*
X159105Y314689D01*
X159087Y314633D01*
X159060Y314581D01*
X159049Y314513D01*
X159019Y314418D01*
X159016Y314318D01*
X159005Y314250D01*
X159013Y314192D01*
X159011Y314134D01*
X159011Y314133D01*
X159033Y314052D01*
X159045Y313968D01*
X159069Y313915D01*
X159083Y313858D01*
X159126Y313786D01*
X159161Y313709D01*
X159199Y313664D01*
X159229Y313614D01*
X159290Y313556D01*
X159345Y313492D01*
X159393Y313460D01*
X159436Y313419D01*
X159511Y313381D01*
X159581Y313334D01*
X159637Y313317D01*
X159689Y313290D01*
X159757Y313279D01*
X159852Y313249D01*
X159952Y313246D01*
X160020Y313235D01*
X166241Y313235D01*
X166241Y312420D01*
X166249Y312362D01*
X166247Y312304D01*
X166269Y312222D01*
X166281Y312139D01*
X166304Y312085D01*
X166319Y312029D01*
X166362Y311956D01*
X166397Y311879D01*
X166435Y311834D01*
X166464Y311784D01*
X166526Y311726D01*
X166580Y311662D01*
X166629Y311630D01*
X166672Y311590D01*
X166747Y311551D01*
X166817Y311505D01*
X166873Y311487D01*
X166925Y311460D01*
X166993Y311449D01*
X167088Y311419D01*
X167188Y311416D01*
X167256Y311405D01*
X174840Y311405D01*
X205022Y281222D01*
X205092Y281170D01*
X205156Y281110D01*
X205205Y281084D01*
X205249Y281051D01*
X205331Y281020D01*
X205409Y280980D01*
X205457Y280972D01*
X205515Y280950D01*
X205663Y280938D01*
X205740Y280925D01*
X231140Y280925D01*
X231198Y280933D01*
G37*
%LPC*%
G36*
X598668Y152375D02*
X598668Y152375D01*
X597775Y153268D01*
X597775Y156964D01*
X597772Y156984D01*
X597774Y157003D01*
X597752Y157105D01*
X597736Y157207D01*
X597726Y157224D01*
X597722Y157244D01*
X597669Y157333D01*
X597620Y157424D01*
X597606Y157438D01*
X597596Y157455D01*
X597517Y157522D01*
X597442Y157594D01*
X597424Y157602D01*
X597409Y157615D01*
X597313Y157654D01*
X597219Y157697D01*
X597199Y157699D01*
X597181Y157707D01*
X597014Y157725D01*
X583946Y157725D01*
X583926Y157722D01*
X583907Y157724D01*
X583805Y157702D01*
X583703Y157686D01*
X583686Y157676D01*
X583666Y157672D01*
X583577Y157619D01*
X583486Y157570D01*
X583472Y157556D01*
X583455Y157546D01*
X583388Y157467D01*
X583316Y157392D01*
X583308Y157374D01*
X583295Y157359D01*
X583256Y157263D01*
X583213Y157169D01*
X583211Y157149D01*
X583203Y157131D01*
X583185Y156964D01*
X583185Y154308D01*
X582292Y153415D01*
X560708Y153415D01*
X559815Y154308D01*
X559815Y156734D01*
X559812Y156754D01*
X559814Y156773D01*
X559792Y156875D01*
X559776Y156977D01*
X559766Y156994D01*
X559762Y157014D01*
X559709Y157103D01*
X559660Y157194D01*
X559646Y157208D01*
X559636Y157225D01*
X559557Y157292D01*
X559482Y157364D01*
X559464Y157372D01*
X559449Y157385D01*
X559353Y157424D01*
X559259Y157467D01*
X559239Y157469D01*
X559221Y157477D01*
X559054Y157495D01*
X552674Y157495D01*
X533415Y176754D01*
X533415Y252639D01*
X533401Y252729D01*
X533393Y252820D01*
X533381Y252850D01*
X533376Y252882D01*
X533333Y252962D01*
X533297Y253046D01*
X533271Y253078D01*
X533260Y253099D01*
X533237Y253121D01*
X533192Y253177D01*
X519877Y266492D01*
X519803Y266545D01*
X519734Y266605D01*
X519704Y266617D01*
X519677Y266636D01*
X519590Y266663D01*
X519506Y266697D01*
X519465Y266701D01*
X519442Y266708D01*
X519410Y266707D01*
X519339Y266715D01*
X412841Y266715D01*
X412751Y266701D01*
X412660Y266693D01*
X412630Y266681D01*
X412598Y266676D01*
X412518Y266633D01*
X412434Y266597D01*
X412402Y266571D01*
X412381Y266560D01*
X412369Y266548D01*
X412368Y266547D01*
X412356Y266535D01*
X412303Y266492D01*
X384586Y238775D01*
X263326Y238775D01*
X263306Y238772D01*
X263287Y238774D01*
X263185Y238752D01*
X263083Y238736D01*
X263066Y238726D01*
X263046Y238722D01*
X262957Y238669D01*
X262866Y238620D01*
X262852Y238606D01*
X262835Y238596D01*
X262768Y238517D01*
X262696Y238442D01*
X262688Y238424D01*
X262675Y238409D01*
X262636Y238313D01*
X262593Y238219D01*
X262591Y238199D01*
X262583Y238181D01*
X262565Y238014D01*
X262565Y233628D01*
X261672Y232735D01*
X246328Y232735D01*
X245435Y233628D01*
X245435Y248972D01*
X246328Y249865D01*
X261672Y249865D01*
X262565Y248972D01*
X262565Y244586D01*
X262568Y244566D01*
X262566Y244547D01*
X262588Y244445D01*
X262604Y244343D01*
X262614Y244326D01*
X262618Y244306D01*
X262671Y244217D01*
X262720Y244126D01*
X262734Y244112D01*
X262744Y244095D01*
X262823Y244028D01*
X262898Y243956D01*
X262916Y243948D01*
X262931Y243935D01*
X263027Y243896D01*
X263121Y243853D01*
X263141Y243851D01*
X263159Y243843D01*
X263326Y243825D01*
X382179Y243825D01*
X382269Y243839D01*
X382360Y243847D01*
X382390Y243859D01*
X382422Y243864D01*
X382502Y243907D01*
X382586Y243943D01*
X382618Y243969D01*
X382639Y243980D01*
X382661Y244003D01*
X382717Y244048D01*
X410434Y271765D01*
X521746Y271765D01*
X538465Y255046D01*
X538465Y179161D01*
X538470Y179130D01*
X538469Y179119D01*
X538480Y179068D01*
X538487Y178980D01*
X538499Y178950D01*
X538504Y178918D01*
X538518Y178894D01*
X538521Y178878D01*
X538552Y178826D01*
X538583Y178754D01*
X538609Y178722D01*
X538620Y178701D01*
X538637Y178685D01*
X538647Y178667D01*
X538663Y178654D01*
X538688Y178623D01*
X554543Y162768D01*
X554617Y162715D01*
X554686Y162655D01*
X554716Y162643D01*
X554743Y162624D01*
X554830Y162597D01*
X554914Y162563D01*
X554955Y162559D01*
X554978Y162552D01*
X555010Y162553D01*
X555081Y162545D01*
X559054Y162545D01*
X559074Y162548D01*
X559093Y162546D01*
X559195Y162568D01*
X559297Y162584D01*
X559314Y162594D01*
X559334Y162598D01*
X559423Y162651D01*
X559514Y162700D01*
X559528Y162714D01*
X559545Y162724D01*
X559612Y162803D01*
X559684Y162878D01*
X559692Y162896D01*
X559705Y162911D01*
X559744Y163007D01*
X559787Y163101D01*
X559789Y163121D01*
X559797Y163139D01*
X559815Y163306D01*
X559815Y168272D01*
X560708Y169165D01*
X582292Y169165D01*
X583185Y168272D01*
X583185Y163536D01*
X583188Y163516D01*
X583186Y163497D01*
X583208Y163395D01*
X583224Y163293D01*
X583234Y163276D01*
X583238Y163256D01*
X583291Y163167D01*
X583340Y163076D01*
X583354Y163062D01*
X583364Y163045D01*
X583443Y162978D01*
X583518Y162906D01*
X583536Y162898D01*
X583551Y162885D01*
X583647Y162846D01*
X583741Y162803D01*
X583761Y162801D01*
X583779Y162793D01*
X583946Y162775D01*
X597014Y162775D01*
X597034Y162778D01*
X597053Y162776D01*
X597155Y162798D01*
X597257Y162814D01*
X597274Y162824D01*
X597294Y162828D01*
X597383Y162881D01*
X597474Y162930D01*
X597488Y162944D01*
X597505Y162954D01*
X597572Y163033D01*
X597644Y163108D01*
X597652Y163126D01*
X597665Y163141D01*
X597704Y163237D01*
X597747Y163331D01*
X597749Y163351D01*
X597757Y163369D01*
X597775Y163536D01*
X597775Y167232D01*
X598668Y168125D01*
X620532Y168125D01*
X621425Y167232D01*
X621425Y153268D01*
X620532Y152375D01*
X598668Y152375D01*
G37*
%LPD*%
%LPC*%
G36*
X366635Y17271D02*
X366635Y17271D01*
X362621Y18934D01*
X359548Y22007D01*
X357885Y26021D01*
X357885Y30367D01*
X359548Y34381D01*
X362621Y37454D01*
X366635Y39117D01*
X370981Y39117D01*
X374157Y37801D01*
X374271Y37774D01*
X374384Y37746D01*
X374391Y37746D01*
X374397Y37745D01*
X374513Y37756D01*
X374630Y37765D01*
X374635Y37767D01*
X374642Y37768D01*
X374749Y37816D01*
X374856Y37861D01*
X374862Y37866D01*
X374866Y37868D01*
X374880Y37881D01*
X374987Y37966D01*
X398556Y61535D01*
X398609Y61609D01*
X398669Y61679D01*
X398681Y61709D01*
X398700Y61735D01*
X398727Y61822D01*
X398761Y61907D01*
X398765Y61948D01*
X398772Y61970D01*
X398771Y62002D01*
X398779Y62074D01*
X398779Y82332D01*
X433288Y116841D01*
X636421Y116841D01*
X636536Y116860D01*
X636652Y116877D01*
X636658Y116879D01*
X636664Y116880D01*
X636766Y116935D01*
X636871Y116988D01*
X636876Y116993D01*
X636881Y116996D01*
X636961Y117080D01*
X637044Y117164D01*
X637047Y117170D01*
X637051Y117174D01*
X637058Y117191D01*
X637124Y117311D01*
X638440Y120487D01*
X641513Y123560D01*
X645527Y125223D01*
X649873Y125223D01*
X653887Y123560D01*
X656960Y120487D01*
X658623Y116473D01*
X658623Y112127D01*
X656960Y108113D01*
X653887Y105040D01*
X649873Y103377D01*
X645527Y103377D01*
X641513Y105040D01*
X638440Y108113D01*
X637124Y111289D01*
X637063Y111389D01*
X637003Y111489D01*
X636998Y111493D01*
X636995Y111498D01*
X636905Y111573D01*
X636816Y111649D01*
X636810Y111651D01*
X636805Y111655D01*
X636697Y111697D01*
X636588Y111741D01*
X636580Y111742D01*
X636576Y111743D01*
X636557Y111744D01*
X636421Y111759D01*
X435708Y111759D01*
X435618Y111745D01*
X435527Y111737D01*
X435497Y111725D01*
X435465Y111720D01*
X435384Y111677D01*
X435300Y111641D01*
X435268Y111615D01*
X435248Y111604D01*
X435225Y111581D01*
X435169Y111536D01*
X404084Y80451D01*
X404031Y80377D01*
X403971Y80307D01*
X403959Y80277D01*
X403940Y80251D01*
X403913Y80164D01*
X403879Y80079D01*
X403875Y80038D01*
X403868Y80016D01*
X403869Y79984D01*
X403861Y79912D01*
X403861Y59654D01*
X378580Y34373D01*
X378512Y34278D01*
X378442Y34184D01*
X378440Y34178D01*
X378436Y34173D01*
X378402Y34062D01*
X378366Y33950D01*
X378366Y33944D01*
X378364Y33938D01*
X378367Y33821D01*
X378368Y33704D01*
X378370Y33697D01*
X378370Y33692D01*
X378377Y33675D01*
X378415Y33543D01*
X379731Y30367D01*
X379731Y26021D01*
X378068Y22007D01*
X374995Y18934D01*
X370981Y17271D01*
X366635Y17271D01*
G37*
%LPD*%
%LPC*%
G36*
X458075Y17271D02*
X458075Y17271D01*
X454061Y18934D01*
X450988Y22007D01*
X449325Y26021D01*
X449325Y30367D01*
X450988Y34381D01*
X454061Y37454D01*
X458075Y39117D01*
X462421Y39117D01*
X465597Y37801D01*
X465711Y37774D01*
X465824Y37746D01*
X465831Y37746D01*
X465837Y37745D01*
X465953Y37756D01*
X466070Y37765D01*
X466075Y37767D01*
X466082Y37768D01*
X466189Y37816D01*
X466296Y37861D01*
X466302Y37866D01*
X466306Y37868D01*
X466320Y37881D01*
X466427Y37966D01*
X482630Y54169D01*
X484342Y55881D01*
X636172Y55881D01*
X636262Y55895D01*
X636353Y55903D01*
X636383Y55915D01*
X636415Y55920D01*
X636496Y55963D01*
X636580Y55999D01*
X636612Y56025D01*
X636632Y56036D01*
X636655Y56059D01*
X636711Y56104D01*
X637928Y57321D01*
X637996Y57415D01*
X638066Y57510D01*
X638068Y57516D01*
X638072Y57521D01*
X638106Y57632D01*
X638142Y57744D01*
X638142Y57750D01*
X638144Y57756D01*
X638141Y57873D01*
X638140Y57990D01*
X638138Y57997D01*
X638138Y58002D01*
X638131Y58019D01*
X638093Y58151D01*
X636777Y61327D01*
X636777Y65673D01*
X638440Y69687D01*
X641513Y72760D01*
X645527Y74423D01*
X649873Y74423D01*
X653887Y72760D01*
X656960Y69687D01*
X658623Y65673D01*
X658623Y61327D01*
X656960Y57313D01*
X653887Y54240D01*
X649873Y52577D01*
X645527Y52577D01*
X642351Y53893D01*
X642237Y53920D01*
X642124Y53948D01*
X642117Y53948D01*
X642111Y53949D01*
X641995Y53938D01*
X641878Y53929D01*
X641873Y53927D01*
X641866Y53926D01*
X641759Y53878D01*
X641652Y53833D01*
X641646Y53828D01*
X641642Y53826D01*
X641628Y53813D01*
X641521Y53728D01*
X638592Y50799D01*
X486762Y50799D01*
X486672Y50785D01*
X486581Y50777D01*
X486551Y50765D01*
X486519Y50760D01*
X486438Y50717D01*
X486354Y50681D01*
X486322Y50655D01*
X486302Y50644D01*
X486279Y50621D01*
X486223Y50576D01*
X470020Y34373D01*
X469952Y34278D01*
X469882Y34184D01*
X469880Y34178D01*
X469876Y34173D01*
X469842Y34062D01*
X469806Y33950D01*
X469806Y33944D01*
X469804Y33938D01*
X469807Y33821D01*
X469808Y33704D01*
X469810Y33697D01*
X469810Y33692D01*
X469817Y33675D01*
X469855Y33543D01*
X471171Y30367D01*
X471171Y26021D01*
X469508Y22007D01*
X466435Y18934D01*
X462421Y17271D01*
X458075Y17271D01*
G37*
%LPD*%
G36*
X203935Y278396D02*
X203935Y278396D01*
X204007Y278398D01*
X204056Y278416D01*
X204107Y278424D01*
X204170Y278458D01*
X204238Y278483D01*
X204278Y278515D01*
X204324Y278540D01*
X204374Y278592D01*
X204430Y278636D01*
X204458Y278680D01*
X204494Y278718D01*
X204524Y278783D01*
X204563Y278843D01*
X204576Y278894D01*
X204597Y278941D01*
X204605Y279012D01*
X204623Y279082D01*
X204619Y279134D01*
X204625Y279185D01*
X204609Y279256D01*
X204604Y279327D01*
X204583Y279375D01*
X204572Y279426D01*
X204535Y279487D01*
X204507Y279553D01*
X204463Y279609D01*
X204446Y279637D01*
X204428Y279652D01*
X204403Y279684D01*
X174431Y309656D01*
X174357Y309709D01*
X174287Y309769D01*
X174257Y309781D01*
X174231Y309800D01*
X174144Y309827D01*
X174059Y309861D01*
X174018Y309865D01*
X173996Y309872D01*
X173964Y309871D01*
X173892Y309879D01*
X170891Y309879D01*
X170820Y309868D01*
X170748Y309866D01*
X170699Y309848D01*
X170648Y309840D01*
X170585Y309806D01*
X170517Y309781D01*
X170477Y309749D01*
X170431Y309724D01*
X170381Y309672D01*
X170325Y309628D01*
X170297Y309584D01*
X170261Y309546D01*
X170231Y309481D01*
X170192Y309421D01*
X170180Y309370D01*
X170158Y309323D01*
X170150Y309252D01*
X170132Y309182D01*
X170136Y309130D01*
X170131Y309079D01*
X170146Y309008D01*
X170151Y308937D01*
X170172Y308889D01*
X170183Y308838D01*
X170220Y308777D01*
X170248Y308711D01*
X170293Y308655D01*
X170309Y308627D01*
X170327Y308612D01*
X170353Y308580D01*
X178735Y300198D01*
X180595Y298338D01*
X180595Y297125D01*
X180596Y297116D01*
X180596Y297113D01*
X180600Y297092D01*
X180609Y297035D01*
X180617Y296944D01*
X180629Y296915D01*
X180634Y296883D01*
X180677Y296802D01*
X180713Y296718D01*
X180739Y296686D01*
X180750Y296665D01*
X180773Y296643D01*
X180818Y296587D01*
X183107Y294298D01*
X183107Y289902D01*
X179998Y286793D01*
X175602Y286793D01*
X172493Y289902D01*
X172493Y294298D01*
X174073Y295878D01*
X174085Y295894D01*
X174100Y295907D01*
X174131Y295955D01*
X174139Y295963D01*
X174145Y295976D01*
X174156Y295994D01*
X174217Y296078D01*
X174222Y296097D01*
X174233Y296114D01*
X174259Y296214D01*
X174289Y296313D01*
X174288Y296333D01*
X174293Y296352D01*
X174285Y296455D01*
X174283Y296559D01*
X174276Y296577D01*
X174274Y296597D01*
X174234Y296692D01*
X174198Y296790D01*
X174186Y296805D01*
X174178Y296824D01*
X174073Y296955D01*
X166705Y304322D01*
X166631Y304375D01*
X166562Y304435D01*
X166532Y304447D01*
X166506Y304466D01*
X166419Y304493D01*
X166334Y304527D01*
X166293Y304531D01*
X166271Y304538D01*
X166238Y304537D01*
X166167Y304545D01*
X164717Y304545D01*
X164627Y304531D01*
X164536Y304523D01*
X164506Y304511D01*
X164474Y304506D01*
X164417Y304475D01*
X157002Y304475D01*
X156982Y304472D01*
X156963Y304474D01*
X156861Y304452D01*
X156759Y304436D01*
X156742Y304426D01*
X156722Y304422D01*
X156633Y304369D01*
X156542Y304320D01*
X156528Y304306D01*
X156511Y304296D01*
X156444Y304217D01*
X156372Y304142D01*
X156364Y304124D01*
X156351Y304109D01*
X156312Y304013D01*
X156269Y303919D01*
X156267Y303899D01*
X156259Y303881D01*
X156241Y303714D01*
X156241Y303166D01*
X156068Y302519D01*
X155733Y301940D01*
X155260Y301467D01*
X154681Y301132D01*
X154305Y301032D01*
X154265Y301014D01*
X154222Y301004D01*
X154154Y300963D01*
X154081Y300931D01*
X154049Y300901D01*
X154011Y300878D01*
X153959Y300818D01*
X153901Y300763D01*
X153880Y300725D01*
X153851Y300691D01*
X153821Y300617D01*
X153783Y300547D01*
X153776Y300504D01*
X153759Y300463D01*
X153743Y300318D01*
X153741Y300305D01*
X153741Y300301D01*
X153741Y300296D01*
X153741Y298374D01*
X149563Y298374D01*
X149544Y298371D01*
X149524Y298373D01*
X149464Y298360D01*
X149337Y298374D01*
X143063Y298374D01*
X143044Y298371D01*
X143024Y298373D01*
X142922Y298351D01*
X142820Y298335D01*
X142803Y298325D01*
X142783Y298321D01*
X142694Y298268D01*
X142603Y298219D01*
X142589Y298205D01*
X142572Y298195D01*
X142505Y298116D01*
X142434Y298041D01*
X142425Y298023D01*
X142419Y298015D01*
X142377Y297993D01*
X142363Y297979D01*
X142346Y297969D01*
X142279Y297890D01*
X142207Y297815D01*
X142199Y297797D01*
X142186Y297782D01*
X142147Y297685D01*
X142104Y297592D01*
X142102Y297572D01*
X142094Y297554D01*
X142076Y297387D01*
X142076Y290959D01*
X140866Y290959D01*
X140203Y291137D01*
X140084Y291149D01*
X139967Y291162D01*
X139962Y291161D01*
X139958Y291161D01*
X139843Y291135D01*
X139726Y291109D01*
X139723Y291107D01*
X139719Y291106D01*
X139617Y291044D01*
X139515Y290983D01*
X139512Y290980D01*
X139509Y290978D01*
X139433Y290887D01*
X139355Y290796D01*
X139354Y290792D01*
X139351Y290789D01*
X139308Y290680D01*
X139263Y290568D01*
X139263Y290563D01*
X139261Y290560D01*
X139261Y290547D01*
X139245Y290401D01*
X139245Y279146D01*
X139248Y279126D01*
X139246Y279107D01*
X139268Y279005D01*
X139284Y278903D01*
X139294Y278886D01*
X139298Y278866D01*
X139351Y278777D01*
X139400Y278686D01*
X139414Y278672D01*
X139424Y278655D01*
X139503Y278588D01*
X139578Y278516D01*
X139596Y278508D01*
X139611Y278495D01*
X139707Y278456D01*
X139801Y278413D01*
X139821Y278411D01*
X139839Y278403D01*
X140006Y278385D01*
X203864Y278385D01*
X203935Y278396D01*
G37*
%LPC*%
G36*
X179028Y410575D02*
X179028Y410575D01*
X178135Y411468D01*
X178135Y418108D01*
X178132Y418128D01*
X178134Y418147D01*
X178112Y418249D01*
X178096Y418351D01*
X178086Y418368D01*
X178082Y418388D01*
X178029Y418477D01*
X177980Y418568D01*
X177966Y418582D01*
X177956Y418599D01*
X177877Y418666D01*
X177802Y418738D01*
X177784Y418746D01*
X177769Y418759D01*
X177673Y418798D01*
X177579Y418841D01*
X177559Y418843D01*
X177541Y418851D01*
X177374Y418869D01*
X86246Y418869D01*
X86226Y418866D01*
X86207Y418868D01*
X86105Y418846D01*
X86003Y418830D01*
X85986Y418820D01*
X85966Y418816D01*
X85877Y418763D01*
X85786Y418714D01*
X85772Y418700D01*
X85755Y418690D01*
X85688Y418611D01*
X85616Y418536D01*
X85608Y418518D01*
X85595Y418503D01*
X85556Y418407D01*
X85513Y418313D01*
X85511Y418293D01*
X85503Y418275D01*
X85485Y418108D01*
X85485Y414428D01*
X84592Y413535D01*
X62728Y413535D01*
X61835Y414428D01*
X61835Y428392D01*
X62728Y429285D01*
X84592Y429285D01*
X85485Y428392D01*
X85485Y424712D01*
X85488Y424692D01*
X85486Y424673D01*
X85508Y424571D01*
X85524Y424469D01*
X85534Y424452D01*
X85538Y424432D01*
X85591Y424343D01*
X85640Y424252D01*
X85654Y424238D01*
X85664Y424221D01*
X85743Y424154D01*
X85818Y424082D01*
X85836Y424074D01*
X85851Y424061D01*
X85947Y424022D01*
X86041Y423979D01*
X86061Y423977D01*
X86079Y423969D01*
X86246Y423951D01*
X177374Y423951D01*
X177394Y423954D01*
X177413Y423952D01*
X177515Y423974D01*
X177617Y423990D01*
X177634Y424000D01*
X177654Y424004D01*
X177743Y424057D01*
X177834Y424106D01*
X177848Y424120D01*
X177865Y424130D01*
X177932Y424209D01*
X178004Y424284D01*
X178012Y424302D01*
X178025Y424317D01*
X178064Y424413D01*
X178107Y424507D01*
X178109Y424527D01*
X178117Y424545D01*
X178135Y424712D01*
X178135Y426732D01*
X179028Y427625D01*
X192292Y427625D01*
X193185Y426732D01*
X193185Y411468D01*
X192292Y410575D01*
X179028Y410575D01*
G37*
%LPD*%
%LPC*%
G36*
X645527Y217677D02*
X645527Y217677D01*
X641513Y219340D01*
X638440Y222413D01*
X637118Y225605D01*
X637056Y225705D01*
X636996Y225805D01*
X636991Y225809D01*
X636988Y225814D01*
X636898Y225889D01*
X636809Y225965D01*
X636803Y225967D01*
X636799Y225971D01*
X636690Y226013D01*
X636581Y226057D01*
X636574Y226058D01*
X636569Y226059D01*
X636551Y226060D01*
X636414Y226075D01*
X636264Y226075D01*
X614127Y248212D01*
X614053Y248265D01*
X613984Y248325D01*
X613954Y248337D01*
X613927Y248356D01*
X613840Y248383D01*
X613756Y248417D01*
X613715Y248421D01*
X613692Y248428D01*
X613660Y248427D01*
X613589Y248435D01*
X598668Y248435D01*
X597775Y249328D01*
X597775Y263292D01*
X598668Y264185D01*
X620532Y264185D01*
X621425Y263292D01*
X621425Y249328D01*
X621327Y249230D01*
X621315Y249214D01*
X621299Y249202D01*
X621244Y249115D01*
X621183Y249031D01*
X621177Y249012D01*
X621166Y248995D01*
X621141Y248895D01*
X621111Y248796D01*
X621111Y248776D01*
X621106Y248756D01*
X621114Y248653D01*
X621117Y248550D01*
X621124Y248531D01*
X621126Y248511D01*
X621166Y248416D01*
X621202Y248319D01*
X621214Y248303D01*
X621222Y248285D01*
X621327Y248154D01*
X636537Y232943D01*
X636574Y232917D01*
X636605Y232883D01*
X636674Y232845D01*
X636737Y232800D01*
X636781Y232786D01*
X636821Y232764D01*
X636898Y232750D01*
X636972Y232727D01*
X637018Y232729D01*
X637063Y232721D01*
X637140Y232732D01*
X637218Y232734D01*
X637261Y232750D01*
X637306Y232756D01*
X637376Y232792D01*
X637449Y232818D01*
X637485Y232847D01*
X637526Y232868D01*
X637580Y232923D01*
X637641Y232972D01*
X637666Y233011D01*
X637698Y233043D01*
X637764Y233163D01*
X637774Y233179D01*
X637775Y233184D01*
X637779Y233190D01*
X638440Y234787D01*
X641513Y237860D01*
X645527Y239523D01*
X649873Y239523D01*
X653887Y237860D01*
X656960Y234787D01*
X658623Y230773D01*
X658623Y226427D01*
X656960Y222413D01*
X653887Y219340D01*
X649873Y217677D01*
X645527Y217677D01*
G37*
%LPD*%
%LPC*%
G36*
X645527Y166877D02*
X645527Y166877D01*
X641513Y168540D01*
X638440Y171613D01*
X637118Y174805D01*
X637056Y174905D01*
X636996Y175005D01*
X636991Y175009D01*
X636988Y175014D01*
X636898Y175089D01*
X636809Y175165D01*
X636803Y175167D01*
X636799Y175171D01*
X636690Y175213D01*
X636581Y175257D01*
X636574Y175258D01*
X636569Y175259D01*
X636551Y175260D01*
X636414Y175275D01*
X626104Y175275D01*
X624402Y176977D01*
X614127Y187252D01*
X614053Y187305D01*
X613984Y187365D01*
X613954Y187377D01*
X613927Y187396D01*
X613841Y187423D01*
X613756Y187457D01*
X613715Y187461D01*
X613692Y187468D01*
X613660Y187467D01*
X613589Y187475D01*
X598668Y187475D01*
X597775Y188368D01*
X597775Y202332D01*
X598668Y203225D01*
X620532Y203225D01*
X621425Y202332D01*
X621425Y188368D01*
X621327Y188270D01*
X621315Y188254D01*
X621299Y188242D01*
X621244Y188155D01*
X621183Y188071D01*
X621177Y188052D01*
X621166Y188035D01*
X621141Y187935D01*
X621111Y187836D01*
X621111Y187816D01*
X621106Y187796D01*
X621114Y187693D01*
X621117Y187590D01*
X621124Y187571D01*
X621126Y187551D01*
X621166Y187456D01*
X621202Y187359D01*
X621214Y187343D01*
X621222Y187325D01*
X621327Y187194D01*
X627973Y180548D01*
X628047Y180495D01*
X628116Y180435D01*
X628146Y180423D01*
X628173Y180404D01*
X628259Y180377D01*
X628344Y180343D01*
X628385Y180339D01*
X628408Y180332D01*
X628440Y180333D01*
X628511Y180325D01*
X636414Y180325D01*
X636529Y180344D01*
X636645Y180361D01*
X636651Y180363D01*
X636657Y180364D01*
X636760Y180419D01*
X636865Y180472D01*
X636869Y180477D01*
X636875Y180480D01*
X636954Y180564D01*
X637037Y180648D01*
X637041Y180654D01*
X637044Y180658D01*
X637052Y180675D01*
X637118Y180795D01*
X638440Y183987D01*
X641513Y187060D01*
X645527Y188723D01*
X649873Y188723D01*
X653887Y187060D01*
X656960Y183987D01*
X658623Y179973D01*
X658623Y175627D01*
X656960Y171613D01*
X653887Y168540D01*
X649873Y166877D01*
X645527Y166877D01*
G37*
%LPD*%
%LPC*%
G36*
X455068Y232015D02*
X455068Y232015D01*
X454175Y232908D01*
X454175Y254772D01*
X455068Y255665D01*
X469032Y255665D01*
X469925Y254772D01*
X469925Y247126D01*
X469928Y247106D01*
X469926Y247087D01*
X469948Y246985D01*
X469964Y246883D01*
X469974Y246866D01*
X469978Y246846D01*
X470031Y246757D01*
X470080Y246666D01*
X470094Y246652D01*
X470104Y246635D01*
X470183Y246568D01*
X470258Y246496D01*
X470276Y246488D01*
X470291Y246475D01*
X470387Y246436D01*
X470481Y246393D01*
X470501Y246391D01*
X470519Y246383D01*
X470686Y246365D01*
X476394Y246365D01*
X476509Y246384D01*
X476625Y246401D01*
X476631Y246403D01*
X476637Y246404D01*
X476740Y246459D01*
X476845Y246512D01*
X476849Y246517D01*
X476855Y246520D01*
X476934Y246604D01*
X477017Y246688D01*
X477021Y246694D01*
X477024Y246698D01*
X477032Y246715D01*
X477098Y246835D01*
X478420Y250027D01*
X481493Y253100D01*
X485507Y254763D01*
X489853Y254763D01*
X493867Y253100D01*
X496940Y250027D01*
X498603Y246013D01*
X498603Y241667D01*
X496940Y237653D01*
X493867Y234580D01*
X489853Y232917D01*
X485507Y232917D01*
X481493Y234580D01*
X478420Y237653D01*
X477098Y240845D01*
X477036Y240945D01*
X476976Y241045D01*
X476971Y241049D01*
X476968Y241054D01*
X476878Y241129D01*
X476789Y241205D01*
X476783Y241207D01*
X476779Y241211D01*
X476670Y241253D01*
X476561Y241297D01*
X476554Y241298D01*
X476549Y241299D01*
X476531Y241300D01*
X476394Y241315D01*
X470686Y241315D01*
X470666Y241312D01*
X470647Y241314D01*
X470545Y241292D01*
X470443Y241276D01*
X470426Y241266D01*
X470406Y241262D01*
X470317Y241209D01*
X470226Y241160D01*
X470212Y241146D01*
X470195Y241136D01*
X470128Y241057D01*
X470056Y240982D01*
X470048Y240964D01*
X470035Y240949D01*
X469996Y240853D01*
X469953Y240759D01*
X469951Y240739D01*
X469943Y240721D01*
X469925Y240554D01*
X469925Y232908D01*
X469032Y232015D01*
X455068Y232015D01*
G37*
%LPD*%
%LPC*%
G36*
X455068Y181215D02*
X455068Y181215D01*
X454175Y182108D01*
X454175Y203972D01*
X455068Y204865D01*
X469032Y204865D01*
X469925Y203972D01*
X469925Y196326D01*
X469928Y196306D01*
X469926Y196287D01*
X469948Y196185D01*
X469964Y196083D01*
X469974Y196066D01*
X469978Y196046D01*
X470031Y195957D01*
X470080Y195866D01*
X470094Y195852D01*
X470104Y195835D01*
X470183Y195768D01*
X470258Y195696D01*
X470276Y195688D01*
X470291Y195675D01*
X470387Y195636D01*
X470481Y195593D01*
X470501Y195591D01*
X470519Y195583D01*
X470686Y195565D01*
X476394Y195565D01*
X476509Y195584D01*
X476625Y195601D01*
X476631Y195603D01*
X476637Y195604D01*
X476740Y195659D01*
X476845Y195712D01*
X476849Y195717D01*
X476855Y195720D01*
X476934Y195804D01*
X477017Y195888D01*
X477021Y195894D01*
X477024Y195898D01*
X477032Y195915D01*
X477098Y196035D01*
X478420Y199227D01*
X481493Y202300D01*
X485507Y203963D01*
X489853Y203963D01*
X493867Y202300D01*
X496940Y199227D01*
X498603Y195213D01*
X498603Y190867D01*
X496940Y186853D01*
X493867Y183780D01*
X489853Y182117D01*
X485507Y182117D01*
X481493Y183780D01*
X478420Y186853D01*
X477098Y190045D01*
X477036Y190145D01*
X476976Y190245D01*
X476971Y190249D01*
X476968Y190254D01*
X476878Y190329D01*
X476789Y190405D01*
X476783Y190407D01*
X476779Y190411D01*
X476670Y190453D01*
X476561Y190497D01*
X476554Y190498D01*
X476549Y190499D01*
X476531Y190500D01*
X476394Y190515D01*
X470686Y190515D01*
X470666Y190512D01*
X470647Y190514D01*
X470545Y190492D01*
X470443Y190476D01*
X470426Y190466D01*
X470406Y190462D01*
X470317Y190409D01*
X470226Y190360D01*
X470212Y190346D01*
X470195Y190336D01*
X470128Y190257D01*
X470056Y190182D01*
X470048Y190164D01*
X470035Y190149D01*
X469996Y190053D01*
X469953Y189959D01*
X469951Y189939D01*
X469943Y189921D01*
X469925Y189754D01*
X469925Y182108D01*
X469032Y181215D01*
X455068Y181215D01*
G37*
%LPD*%
%LPC*%
G36*
X305208Y369175D02*
X305208Y369175D01*
X304315Y370068D01*
X304315Y391932D01*
X305208Y392825D01*
X306592Y392825D01*
X306612Y392828D01*
X306631Y392826D01*
X306733Y392848D01*
X306835Y392864D01*
X306852Y392874D01*
X306872Y392878D01*
X306961Y392931D01*
X307052Y392980D01*
X307066Y392994D01*
X307083Y393004D01*
X307150Y393083D01*
X307222Y393158D01*
X307230Y393176D01*
X307243Y393191D01*
X307282Y393287D01*
X307325Y393381D01*
X307327Y393401D01*
X307335Y393419D01*
X307353Y393586D01*
X307353Y409814D01*
X307350Y409834D01*
X307352Y409853D01*
X307330Y409955D01*
X307314Y410057D01*
X307304Y410074D01*
X307300Y410094D01*
X307247Y410183D01*
X307198Y410274D01*
X307184Y410288D01*
X307174Y410305D01*
X307095Y410372D01*
X307020Y410444D01*
X307002Y410452D01*
X306987Y410465D01*
X306891Y410504D01*
X306797Y410547D01*
X306777Y410549D01*
X306759Y410557D01*
X306592Y410575D01*
X303008Y410575D01*
X302115Y411468D01*
X302115Y426732D01*
X303008Y427625D01*
X316272Y427625D01*
X317165Y426732D01*
X317165Y411468D01*
X316272Y410575D01*
X312688Y410575D01*
X312668Y410572D01*
X312649Y410574D01*
X312547Y410552D01*
X312445Y410536D01*
X312428Y410526D01*
X312408Y410522D01*
X312319Y410469D01*
X312228Y410420D01*
X312214Y410406D01*
X312197Y410396D01*
X312130Y410317D01*
X312058Y410242D01*
X312050Y410224D01*
X312037Y410209D01*
X311998Y410113D01*
X311955Y410019D01*
X311953Y409999D01*
X311945Y409981D01*
X311927Y409814D01*
X311927Y393586D01*
X311930Y393566D01*
X311928Y393547D01*
X311950Y393445D01*
X311966Y393343D01*
X311976Y393326D01*
X311980Y393306D01*
X312033Y393217D01*
X312082Y393126D01*
X312096Y393112D01*
X312106Y393095D01*
X312185Y393028D01*
X312260Y392956D01*
X312278Y392948D01*
X312293Y392935D01*
X312389Y392896D01*
X312483Y392853D01*
X312503Y392851D01*
X312521Y392843D01*
X312688Y392825D01*
X319172Y392825D01*
X320065Y391932D01*
X320065Y370068D01*
X319172Y369175D01*
X305208Y369175D01*
G37*
%LPD*%
%LPC*%
G36*
X144728Y80335D02*
X144728Y80335D01*
X143835Y81228D01*
X143835Y96572D01*
X144728Y97465D01*
X149114Y97465D01*
X149134Y97468D01*
X149153Y97466D01*
X149255Y97488D01*
X149357Y97504D01*
X149374Y97514D01*
X149394Y97518D01*
X149483Y97571D01*
X149574Y97620D01*
X149588Y97634D01*
X149605Y97644D01*
X149672Y97723D01*
X149744Y97798D01*
X149752Y97816D01*
X149765Y97831D01*
X149804Y97927D01*
X149847Y98021D01*
X149849Y98041D01*
X149857Y98059D01*
X149875Y98226D01*
X149875Y126785D01*
X149861Y126875D01*
X149853Y126966D01*
X149841Y126995D01*
X149836Y127027D01*
X149793Y127108D01*
X149757Y127192D01*
X149731Y127224D01*
X149720Y127245D01*
X149697Y127267D01*
X149652Y127323D01*
X147093Y129882D01*
X147093Y134278D01*
X150202Y137387D01*
X154598Y137387D01*
X157707Y134278D01*
X157707Y129882D01*
X155148Y127323D01*
X155095Y127249D01*
X155035Y127179D01*
X155023Y127149D01*
X155004Y127123D01*
X154977Y127036D01*
X154943Y126951D01*
X154939Y126910D01*
X154932Y126888D01*
X154933Y126856D01*
X154925Y126785D01*
X154925Y98226D01*
X154928Y98206D01*
X154926Y98187D01*
X154948Y98085D01*
X154964Y97983D01*
X154974Y97966D01*
X154978Y97946D01*
X155031Y97857D01*
X155080Y97766D01*
X155094Y97752D01*
X155104Y97735D01*
X155183Y97668D01*
X155258Y97596D01*
X155276Y97588D01*
X155291Y97575D01*
X155387Y97536D01*
X155481Y97493D01*
X155501Y97491D01*
X155519Y97483D01*
X155686Y97465D01*
X160072Y97465D01*
X160965Y96572D01*
X160965Y81228D01*
X160072Y80335D01*
X144728Y80335D01*
G37*
%LPD*%
%LPC*%
G36*
X549515Y62483D02*
X549515Y62483D01*
X545501Y64146D01*
X542428Y67219D01*
X540765Y71233D01*
X540765Y75579D01*
X542428Y79593D01*
X545501Y82666D01*
X549515Y84329D01*
X553861Y84329D01*
X557875Y82666D01*
X560948Y79593D01*
X562611Y75579D01*
X562611Y71233D01*
X560948Y67219D01*
X557875Y64146D01*
X553861Y62483D01*
X549515Y62483D01*
G37*
%LPD*%
%LPC*%
G36*
X549515Y17271D02*
X549515Y17271D01*
X545501Y18934D01*
X542428Y22007D01*
X540765Y26021D01*
X540765Y30367D01*
X542428Y34381D01*
X545501Y37454D01*
X549515Y39117D01*
X553861Y39117D01*
X557875Y37454D01*
X560948Y34381D01*
X562611Y30367D01*
X562611Y26021D01*
X560948Y22007D01*
X557875Y18934D01*
X553861Y17271D01*
X549515Y17271D01*
G37*
%LPD*%
%LPC*%
G36*
X431659Y17271D02*
X431659Y17271D01*
X427645Y18934D01*
X424572Y22007D01*
X422909Y26021D01*
X422909Y30367D01*
X424572Y34381D01*
X427645Y37454D01*
X431659Y39117D01*
X436005Y39117D01*
X440019Y37454D01*
X443092Y34381D01*
X444755Y30367D01*
X444755Y26021D01*
X443092Y22007D01*
X440019Y18934D01*
X436005Y17271D01*
X431659Y17271D01*
G37*
%LPD*%
%LPC*%
G36*
X523099Y17271D02*
X523099Y17271D01*
X519085Y18934D01*
X516012Y22007D01*
X514349Y26021D01*
X514349Y30367D01*
X516012Y34381D01*
X519085Y37454D01*
X523099Y39117D01*
X527445Y39117D01*
X531459Y37454D01*
X534532Y34381D01*
X536195Y30367D01*
X536195Y26021D01*
X534532Y22007D01*
X531459Y18934D01*
X527445Y17271D01*
X523099Y17271D01*
G37*
%LPD*%
%LPC*%
G36*
X124827Y11937D02*
X124827Y11937D01*
X120813Y13600D01*
X117740Y16673D01*
X116077Y20687D01*
X116077Y25033D01*
X117740Y29047D01*
X120813Y32120D01*
X124827Y33783D01*
X129173Y33783D01*
X133187Y32120D01*
X136260Y29047D01*
X137923Y25033D01*
X137923Y20687D01*
X136260Y16673D01*
X133187Y13600D01*
X129173Y11937D01*
X124827Y11937D01*
G37*
%LPD*%
%LPC*%
G36*
X480427Y370077D02*
X480427Y370077D01*
X476413Y371740D01*
X473340Y374813D01*
X471677Y378827D01*
X471677Y383173D01*
X473340Y387187D01*
X476413Y390260D01*
X480427Y391923D01*
X484773Y391923D01*
X488787Y390260D01*
X491860Y387187D01*
X493523Y383173D01*
X493523Y378827D01*
X491860Y374813D01*
X488787Y371740D01*
X484773Y370077D01*
X480427Y370077D01*
G37*
%LPD*%
%LPC*%
G36*
X455027Y370077D02*
X455027Y370077D01*
X451013Y371740D01*
X447940Y374813D01*
X446277Y378827D01*
X446277Y383173D01*
X447940Y387187D01*
X451013Y390260D01*
X455027Y391923D01*
X459373Y391923D01*
X463387Y390260D01*
X466460Y387187D01*
X468123Y383173D01*
X468123Y378827D01*
X466460Y374813D01*
X463387Y371740D01*
X459373Y370077D01*
X455027Y370077D01*
G37*
%LPD*%
%LPC*%
G36*
X404227Y370077D02*
X404227Y370077D01*
X400213Y371740D01*
X397140Y374813D01*
X395477Y378827D01*
X395477Y383173D01*
X397140Y387187D01*
X400213Y390260D01*
X404227Y391923D01*
X408573Y391923D01*
X412587Y390260D01*
X415660Y387187D01*
X417323Y383173D01*
X417323Y378827D01*
X415660Y374813D01*
X412587Y371740D01*
X408573Y370077D01*
X404227Y370077D01*
G37*
%LPD*%
%LPC*%
G36*
X614539Y62483D02*
X614539Y62483D01*
X610525Y64146D01*
X607452Y67219D01*
X605789Y71233D01*
X605789Y75579D01*
X607452Y79593D01*
X610525Y82666D01*
X614539Y84329D01*
X618885Y84329D01*
X622899Y82666D01*
X625972Y79593D01*
X627635Y75579D01*
X627635Y71233D01*
X625972Y67219D01*
X622899Y64146D01*
X618885Y62483D01*
X614539Y62483D01*
G37*
%LPD*%
%LPC*%
G36*
X523099Y62483D02*
X523099Y62483D01*
X519085Y64146D01*
X516012Y67219D01*
X514349Y71233D01*
X514349Y75579D01*
X516012Y79593D01*
X519085Y82666D01*
X523099Y84329D01*
X527445Y84329D01*
X531459Y82666D01*
X534532Y79593D01*
X536195Y75579D01*
X536195Y71233D01*
X534532Y67219D01*
X531459Y64146D01*
X527445Y62483D01*
X523099Y62483D01*
G37*
%LPD*%
%LPC*%
G36*
X431659Y62483D02*
X431659Y62483D01*
X427645Y64146D01*
X424572Y67219D01*
X422909Y71233D01*
X422909Y75579D01*
X424572Y79593D01*
X427645Y82666D01*
X431659Y84329D01*
X436005Y84329D01*
X440019Y82666D01*
X443092Y79593D01*
X444755Y75579D01*
X444755Y71233D01*
X443092Y67219D01*
X440019Y64146D01*
X436005Y62483D01*
X431659Y62483D01*
G37*
%LPD*%
%LPC*%
G36*
X378827Y370077D02*
X378827Y370077D01*
X374813Y371740D01*
X371740Y374813D01*
X370077Y378827D01*
X370077Y383173D01*
X371740Y387187D01*
X374813Y390260D01*
X378827Y391923D01*
X383173Y391923D01*
X387187Y390260D01*
X390260Y387187D01*
X391923Y383173D01*
X391923Y378827D01*
X390260Y374813D01*
X387187Y371740D01*
X383173Y370077D01*
X378827Y370077D01*
G37*
%LPD*%
%LPC*%
G36*
X556627Y370077D02*
X556627Y370077D01*
X552613Y371740D01*
X549540Y374813D01*
X547877Y378827D01*
X547877Y383173D01*
X549540Y387187D01*
X552613Y390260D01*
X556627Y391923D01*
X560973Y391923D01*
X564987Y390260D01*
X568060Y387187D01*
X569723Y383173D01*
X569723Y378827D01*
X568060Y374813D01*
X564987Y371740D01*
X560973Y370077D01*
X556627Y370077D01*
G37*
%LPD*%
%LPC*%
G36*
X531227Y370077D02*
X531227Y370077D01*
X527213Y371740D01*
X524140Y374813D01*
X522477Y378827D01*
X522477Y383173D01*
X524140Y387187D01*
X527213Y390260D01*
X531227Y391923D01*
X535573Y391923D01*
X539587Y390260D01*
X542660Y387187D01*
X544323Y383173D01*
X544323Y378827D01*
X542660Y374813D01*
X539587Y371740D01*
X535573Y370077D01*
X531227Y370077D01*
G37*
%LPD*%
%LPC*%
G36*
X505827Y370077D02*
X505827Y370077D01*
X501813Y371740D01*
X498740Y374813D01*
X497077Y378827D01*
X497077Y383173D01*
X498740Y387187D01*
X501813Y390260D01*
X505827Y391923D01*
X510173Y391923D01*
X514187Y390260D01*
X517260Y387187D01*
X518923Y383173D01*
X518923Y378827D01*
X517260Y374813D01*
X514187Y371740D01*
X510173Y370077D01*
X505827Y370077D01*
G37*
%LPD*%
%LPC*%
G36*
X429627Y370077D02*
X429627Y370077D01*
X425613Y371740D01*
X422540Y374813D01*
X420877Y378827D01*
X420877Y383173D01*
X422540Y387187D01*
X425613Y390260D01*
X429627Y391923D01*
X433973Y391923D01*
X437987Y390260D01*
X441060Y387187D01*
X442723Y383173D01*
X442723Y378827D01*
X441060Y374813D01*
X437987Y371740D01*
X433973Y370077D01*
X429627Y370077D01*
G37*
%LPD*%
G36*
X112587Y310859D02*
X112587Y310859D01*
X112663Y310861D01*
X112708Y310877D01*
X112755Y310884D01*
X112823Y310919D01*
X112894Y310945D01*
X112931Y310975D01*
X112974Y310997D01*
X113027Y311051D01*
X113086Y311099D01*
X113112Y311139D01*
X113145Y311174D01*
X113178Y311242D01*
X113219Y311306D01*
X113231Y311352D01*
X113251Y311396D01*
X113260Y311471D01*
X113279Y311544D01*
X113275Y311592D01*
X113281Y311640D01*
X113262Y311767D01*
X113260Y311789D01*
X113257Y311796D01*
X113256Y311806D01*
X113159Y312166D01*
X113159Y313376D01*
X119587Y313376D01*
X119606Y313379D01*
X119626Y313377D01*
X119728Y313399D01*
X119830Y313415D01*
X119847Y313425D01*
X119867Y313429D01*
X119956Y313482D01*
X120047Y313531D01*
X120061Y313545D01*
X120078Y313555D01*
X120145Y313634D01*
X120216Y313709D01*
X120225Y313727D01*
X120231Y313735D01*
X120273Y313757D01*
X120287Y313771D01*
X120304Y313781D01*
X120371Y313860D01*
X120443Y313935D01*
X120451Y313953D01*
X120464Y313968D01*
X120503Y314065D01*
X120546Y314158D01*
X120548Y314178D01*
X120556Y314196D01*
X120574Y314363D01*
X120574Y320637D01*
X120571Y320656D01*
X120573Y320676D01*
X120560Y320736D01*
X120574Y320863D01*
X120574Y327137D01*
X120571Y327156D01*
X120573Y327176D01*
X120560Y327236D01*
X120574Y327363D01*
X120574Y331541D01*
X122496Y331541D01*
X122540Y331548D01*
X122583Y331546D01*
X122660Y331568D01*
X122739Y331580D01*
X122778Y331601D01*
X122820Y331613D01*
X122886Y331658D01*
X122957Y331696D01*
X122987Y331727D01*
X123023Y331752D01*
X123071Y331816D01*
X123126Y331874D01*
X123144Y331914D01*
X123171Y331949D01*
X123224Y332084D01*
X123230Y332097D01*
X123230Y332100D01*
X123232Y332105D01*
X123332Y332481D01*
X123702Y333121D01*
X123736Y333211D01*
X123776Y333297D01*
X123779Y333325D01*
X123789Y333351D01*
X123793Y333447D01*
X123803Y333541D01*
X123797Y333569D01*
X123798Y333597D01*
X123771Y333689D01*
X123751Y333782D01*
X123737Y333806D01*
X123729Y333833D01*
X123674Y333911D01*
X123625Y333993D01*
X123603Y334011D01*
X123587Y334034D01*
X123511Y334091D01*
X123438Y334153D01*
X123412Y334163D01*
X123389Y334180D01*
X123298Y334209D01*
X123210Y334245D01*
X123175Y334249D01*
X123155Y334255D01*
X123122Y334255D01*
X123043Y334263D01*
X111753Y334263D01*
X111662Y334249D01*
X111572Y334241D01*
X111542Y334229D01*
X111510Y334224D01*
X111429Y334181D01*
X111345Y334145D01*
X111313Y334119D01*
X111292Y334108D01*
X111270Y334085D01*
X111214Y334040D01*
X100808Y323634D01*
X100755Y323560D01*
X100695Y323490D01*
X100683Y323460D01*
X100664Y323434D01*
X100637Y323347D01*
X100603Y323262D01*
X100599Y323221D01*
X100592Y323199D01*
X100593Y323167D01*
X100585Y323095D01*
X100585Y322783D01*
X100599Y322693D01*
X100607Y322602D01*
X100619Y322572D01*
X100624Y322540D01*
X100667Y322460D01*
X100703Y322376D01*
X100729Y322344D01*
X100740Y322323D01*
X100763Y322301D01*
X100808Y322245D01*
X111982Y311070D01*
X112021Y311042D01*
X112054Y311007D01*
X112096Y310984D01*
X112118Y310965D01*
X112142Y310955D01*
X112182Y310927D01*
X112228Y310913D01*
X112270Y310890D01*
X112332Y310879D01*
X112346Y310873D01*
X112362Y310871D01*
X112417Y310854D01*
X112465Y310856D01*
X112512Y310847D01*
X112587Y310859D01*
G37*
%LPC*%
G36*
X170128Y80335D02*
X170128Y80335D01*
X169235Y81228D01*
X169235Y96572D01*
X170128Y97465D01*
X185472Y97465D01*
X186365Y96572D01*
X186365Y81228D01*
X185472Y80335D01*
X170128Y80335D01*
G37*
%LPD*%
%LPC*%
G36*
X43128Y80335D02*
X43128Y80335D01*
X42235Y81228D01*
X42235Y96572D01*
X43128Y97465D01*
X58472Y97465D01*
X59365Y96572D01*
X59365Y81228D01*
X58472Y80335D01*
X43128Y80335D01*
G37*
%LPD*%
%LPC*%
G36*
X220928Y80335D02*
X220928Y80335D01*
X220035Y81228D01*
X220035Y96572D01*
X220928Y97465D01*
X236272Y97465D01*
X237165Y96572D01*
X237165Y81228D01*
X236272Y80335D01*
X220928Y80335D01*
G37*
%LPD*%
%LPC*%
G36*
X17728Y80335D02*
X17728Y80335D01*
X16835Y81228D01*
X16835Y96572D01*
X17728Y97465D01*
X33072Y97465D01*
X33965Y96572D01*
X33965Y81228D01*
X33072Y80335D01*
X17728Y80335D01*
G37*
%LPD*%
%LPC*%
G36*
X195528Y80335D02*
X195528Y80335D01*
X194635Y81228D01*
X194635Y96572D01*
X195528Y97465D01*
X210872Y97465D01*
X211765Y96572D01*
X211765Y81228D01*
X210872Y80335D01*
X195528Y80335D01*
G37*
%LPD*%
%LPC*%
G36*
X144728Y232735D02*
X144728Y232735D01*
X143835Y233628D01*
X143835Y248972D01*
X144728Y249865D01*
X160072Y249865D01*
X160965Y248972D01*
X160965Y233628D01*
X160072Y232735D01*
X144728Y232735D01*
G37*
%LPD*%
%LPC*%
G36*
X17728Y232735D02*
X17728Y232735D01*
X16835Y233628D01*
X16835Y248972D01*
X17728Y249865D01*
X33072Y249865D01*
X33965Y248972D01*
X33965Y233628D01*
X33072Y232735D01*
X17728Y232735D01*
G37*
%LPD*%
%LPC*%
G36*
X93928Y232735D02*
X93928Y232735D01*
X93035Y233628D01*
X93035Y248972D01*
X93928Y249865D01*
X109272Y249865D01*
X110165Y248972D01*
X110165Y233628D01*
X109272Y232735D01*
X93928Y232735D01*
G37*
%LPD*%
%LPC*%
G36*
X93928Y80335D02*
X93928Y80335D01*
X93035Y81228D01*
X93035Y96572D01*
X93928Y97465D01*
X109272Y97465D01*
X110165Y96572D01*
X110165Y81228D01*
X109272Y80335D01*
X93928Y80335D01*
G37*
%LPD*%
%LPC*%
G36*
X119328Y80335D02*
X119328Y80335D01*
X118435Y81228D01*
X118435Y96572D01*
X119328Y97465D01*
X134672Y97465D01*
X135565Y96572D01*
X135565Y81228D01*
X134672Y80335D01*
X119328Y80335D01*
G37*
%LPD*%
%LPC*%
G36*
X119328Y232735D02*
X119328Y232735D01*
X118435Y233628D01*
X118435Y248972D01*
X119328Y249865D01*
X134672Y249865D01*
X135565Y248972D01*
X135565Y233628D01*
X134672Y232735D01*
X119328Y232735D01*
G37*
%LPD*%
%LPC*%
G36*
X68528Y80335D02*
X68528Y80335D01*
X67635Y81228D01*
X67635Y96572D01*
X68528Y97465D01*
X83872Y97465D01*
X84765Y96572D01*
X84765Y81228D01*
X83872Y80335D01*
X68528Y80335D01*
G37*
%LPD*%
%LPC*%
G36*
X251204Y359195D02*
X251204Y359195D01*
X249417Y359776D01*
X247743Y360629D01*
X246222Y361734D01*
X244894Y363062D01*
X243789Y364583D01*
X242936Y366257D01*
X242355Y368044D01*
X242284Y368492D01*
X242257Y368580D01*
X242239Y368670D01*
X242216Y368715D01*
X242201Y368763D01*
X242151Y368841D01*
X242108Y368922D01*
X242073Y368959D01*
X242046Y369001D01*
X241976Y369061D01*
X241913Y369128D01*
X241869Y369154D01*
X241830Y369187D01*
X241747Y369225D01*
X241667Y369272D01*
X241618Y369284D01*
X241572Y369306D01*
X241481Y369319D01*
X241392Y369342D01*
X241341Y369340D01*
X241291Y369348D01*
X241199Y369336D01*
X241108Y369333D01*
X241059Y369317D01*
X241009Y369311D01*
X240925Y369274D01*
X240837Y369246D01*
X240801Y369220D01*
X240749Y369197D01*
X240626Y369095D01*
X240564Y369051D01*
X240320Y368807D01*
X239741Y368472D01*
X239094Y368299D01*
X234441Y368299D01*
X234441Y378969D01*
X241301Y378969D01*
X241301Y376442D01*
X241307Y376397D01*
X241305Y376350D01*
X241327Y376256D01*
X241341Y376161D01*
X241359Y376119D01*
X241370Y376074D01*
X241417Y375990D01*
X241457Y375901D01*
X241487Y375866D01*
X241509Y375826D01*
X241578Y375758D01*
X241640Y375684D01*
X241679Y375659D01*
X241712Y375626D01*
X241797Y375580D01*
X241877Y375527D01*
X241921Y375513D01*
X241962Y375491D01*
X242056Y375470D01*
X242148Y375441D01*
X242194Y375440D01*
X242239Y375430D01*
X242336Y375436D01*
X242432Y375434D01*
X242477Y375445D01*
X242523Y375448D01*
X242614Y375481D01*
X242707Y375506D01*
X242747Y375529D01*
X242791Y375545D01*
X242869Y375602D01*
X242952Y375651D01*
X242983Y375685D01*
X243021Y375712D01*
X243066Y375772D01*
X243146Y375858D01*
X243184Y375933D01*
X243221Y375981D01*
X243789Y377097D01*
X244894Y378618D01*
X246222Y379946D01*
X247743Y381051D01*
X249417Y381904D01*
X251204Y382485D01*
X251969Y382606D01*
X251969Y371856D01*
X251977Y371798D01*
X251975Y371740D01*
X251997Y371658D01*
X252009Y371575D01*
X252033Y371521D01*
X252047Y371465D01*
X252090Y371392D01*
X252125Y371315D01*
X252163Y371271D01*
X252193Y371220D01*
X252254Y371163D01*
X252309Y371098D01*
X252357Y371066D01*
X252400Y371026D01*
X252475Y370987D01*
X252545Y370941D01*
X252601Y370923D01*
X252653Y370896D01*
X252721Y370885D01*
X252816Y370855D01*
X252916Y370852D01*
X252984Y370841D01*
X254001Y370841D01*
X254001Y370839D01*
X252984Y370839D01*
X252926Y370831D01*
X252868Y370832D01*
X252786Y370811D01*
X252703Y370799D01*
X252649Y370775D01*
X252593Y370761D01*
X252520Y370718D01*
X252443Y370683D01*
X252398Y370645D01*
X252348Y370615D01*
X252290Y370554D01*
X252226Y370499D01*
X252194Y370451D01*
X252154Y370408D01*
X252115Y370333D01*
X252069Y370263D01*
X252051Y370207D01*
X252024Y370155D01*
X252013Y370087D01*
X251983Y369992D01*
X251980Y369892D01*
X251969Y369824D01*
X251969Y359074D01*
X251204Y359195D01*
G37*
%LPD*%
%LPC*%
G36*
X217291Y322071D02*
X217291Y322071D01*
X217291Y351156D01*
X223595Y351156D01*
X224242Y350983D01*
X224821Y350648D01*
X225294Y350175D01*
X225628Y349596D01*
X225802Y348949D01*
X225802Y322071D01*
X217291Y322071D01*
G37*
%LPD*%
%LPC*%
G36*
X264291Y322071D02*
X264291Y322071D01*
X264291Y351156D01*
X270596Y351156D01*
X271242Y350983D01*
X271821Y350648D01*
X272294Y350175D01*
X272629Y349596D01*
X272802Y348949D01*
X272802Y322071D01*
X264291Y322071D01*
G37*
%LPD*%
%LPC*%
G36*
X264291Y288924D02*
X264291Y288924D01*
X264291Y318009D01*
X272802Y318009D01*
X272802Y291131D01*
X272629Y290484D01*
X272294Y289905D01*
X271821Y289432D01*
X271242Y289097D01*
X270596Y288924D01*
X264291Y288924D01*
G37*
%LPD*%
%LPC*%
G36*
X217291Y288924D02*
X217291Y288924D01*
X217291Y318009D01*
X225802Y318009D01*
X225802Y291131D01*
X225628Y290484D01*
X225294Y289905D01*
X224821Y289432D01*
X224242Y289097D01*
X223595Y288924D01*
X217291Y288924D01*
G37*
%LPD*%
%LPC*%
G36*
X204718Y322071D02*
X204718Y322071D01*
X204718Y348949D01*
X204891Y349596D01*
X205226Y350175D01*
X205699Y350648D01*
X206278Y350983D01*
X206924Y351156D01*
X213229Y351156D01*
X213229Y322071D01*
X204718Y322071D01*
G37*
%LPD*%
%LPC*%
G36*
X251718Y322071D02*
X251718Y322071D01*
X251718Y348949D01*
X251892Y349596D01*
X252226Y350175D01*
X252699Y350648D01*
X253278Y350983D01*
X253925Y351156D01*
X260229Y351156D01*
X260229Y322071D01*
X251718Y322071D01*
G37*
%LPD*%
%LPC*%
G36*
X206924Y288924D02*
X206924Y288924D01*
X206278Y289097D01*
X205699Y289432D01*
X205226Y289905D01*
X204891Y290484D01*
X204718Y291131D01*
X204718Y318009D01*
X213229Y318009D01*
X213229Y288924D01*
X206924Y288924D01*
G37*
%LPD*%
%LPC*%
G36*
X253925Y288924D02*
X253925Y288924D01*
X253278Y289097D01*
X252699Y289432D01*
X252226Y289905D01*
X251892Y290484D01*
X251718Y291131D01*
X251718Y318009D01*
X260229Y318009D01*
X260229Y288924D01*
X253925Y288924D01*
G37*
%LPD*%
%LPC*%
G36*
X37083Y337023D02*
X37083Y337023D01*
X37083Y348889D01*
X38712Y348631D01*
X40728Y347976D01*
X42616Y347014D01*
X44330Y345769D01*
X45829Y344270D01*
X47074Y342556D01*
X48036Y340668D01*
X48691Y338652D01*
X48949Y337023D01*
X37083Y337023D01*
G37*
%LPD*%
%LPC*%
G36*
X37083Y298977D02*
X37083Y298977D01*
X48949Y298977D01*
X48691Y297347D01*
X48036Y295332D01*
X47074Y293444D01*
X45829Y291730D01*
X44330Y290231D01*
X42616Y288986D01*
X40728Y288024D01*
X38712Y287369D01*
X37083Y287111D01*
X37083Y298977D01*
G37*
%LPD*%
%LPC*%
G36*
X37083Y333977D02*
X37083Y333977D01*
X48949Y333977D01*
X48691Y332348D01*
X48036Y330332D01*
X47074Y328444D01*
X45829Y326730D01*
X44330Y325231D01*
X42616Y323986D01*
X40728Y323024D01*
X38712Y322369D01*
X37083Y322111D01*
X37083Y333977D01*
G37*
%LPD*%
%LPC*%
G36*
X32408Y287369D02*
X32408Y287369D01*
X30392Y288024D01*
X28504Y288986D01*
X26790Y290231D01*
X25291Y291730D01*
X24046Y293444D01*
X23084Y295332D01*
X22429Y297347D01*
X22171Y298977D01*
X34037Y298977D01*
X34037Y287111D01*
X32408Y287369D01*
G37*
%LPD*%
%LPC*%
G36*
X75183Y384787D02*
X75183Y384787D01*
X86501Y384787D01*
X86501Y379626D01*
X86328Y378979D01*
X85993Y378400D01*
X85520Y377927D01*
X84941Y377592D01*
X84294Y377419D01*
X75183Y377419D01*
X75183Y384787D01*
G37*
%LPD*%
%LPC*%
G36*
X63026Y377419D02*
X63026Y377419D01*
X62379Y377592D01*
X61800Y377927D01*
X61327Y378400D01*
X60992Y378979D01*
X60819Y379626D01*
X60819Y384787D01*
X72137Y384787D01*
X72137Y377419D01*
X63026Y377419D01*
G37*
%LPD*%
%LPC*%
G36*
X90423Y297433D02*
X90423Y297433D01*
X90423Y304801D01*
X99394Y304801D01*
X100041Y304628D01*
X100620Y304293D01*
X101093Y303820D01*
X101428Y303241D01*
X101601Y302594D01*
X101601Y297433D01*
X90423Y297433D01*
G37*
%LPD*%
%LPC*%
G36*
X90423Y330453D02*
X90423Y330453D01*
X90423Y337821D01*
X99394Y337821D01*
X100041Y337648D01*
X100620Y337313D01*
X101093Y336840D01*
X101428Y336261D01*
X101601Y335614D01*
X101601Y330453D01*
X90423Y330453D01*
G37*
%LPD*%
%LPC*%
G36*
X200913Y382523D02*
X200913Y382523D01*
X200913Y393701D01*
X206074Y393701D01*
X206721Y393528D01*
X207300Y393193D01*
X207773Y392720D01*
X208108Y392141D01*
X208281Y391494D01*
X208281Y382523D01*
X200913Y382523D01*
G37*
%LPD*%
%LPC*%
G36*
X573023Y195833D02*
X573023Y195833D01*
X573023Y203201D01*
X581994Y203201D01*
X582641Y203028D01*
X583220Y202693D01*
X583693Y202220D01*
X584028Y201641D01*
X584201Y200994D01*
X584201Y195833D01*
X573023Y195833D01*
G37*
%LPD*%
%LPC*%
G36*
X129793Y369823D02*
X129793Y369823D01*
X129793Y381001D01*
X134954Y381001D01*
X135601Y380828D01*
X136180Y380493D01*
X136653Y380020D01*
X136988Y379441D01*
X137161Y378794D01*
X137161Y369823D01*
X129793Y369823D01*
G37*
%LPD*%
%LPC*%
G36*
X162813Y369823D02*
X162813Y369823D01*
X162813Y381001D01*
X167974Y381001D01*
X168621Y380828D01*
X169200Y380493D01*
X169673Y380020D01*
X170008Y379441D01*
X170181Y378794D01*
X170181Y369823D01*
X162813Y369823D01*
G37*
%LPD*%
%LPC*%
G36*
X573023Y256793D02*
X573023Y256793D01*
X573023Y264161D01*
X581994Y264161D01*
X582641Y263988D01*
X583220Y263653D01*
X583693Y263180D01*
X584028Y262601D01*
X584201Y261954D01*
X584201Y256793D01*
X573023Y256793D01*
G37*
%LPD*%
%LPC*%
G36*
X190499Y382523D02*
X190499Y382523D01*
X190499Y391494D01*
X190672Y392141D01*
X191007Y392720D01*
X191480Y393193D01*
X192059Y393528D01*
X192706Y393701D01*
X197867Y393701D01*
X197867Y382523D01*
X190499Y382523D01*
G37*
%LPD*%
%LPC*%
G36*
X152399Y369823D02*
X152399Y369823D01*
X152399Y378794D01*
X152572Y379441D01*
X152907Y380020D01*
X153380Y380493D01*
X153959Y380828D01*
X154606Y381001D01*
X159767Y381001D01*
X159767Y369823D01*
X152399Y369823D01*
G37*
%LPD*%
%LPC*%
G36*
X119379Y369823D02*
X119379Y369823D01*
X119379Y378794D01*
X119552Y379441D01*
X119887Y380020D01*
X120360Y380493D01*
X120939Y380828D01*
X121586Y381001D01*
X126747Y381001D01*
X126747Y369823D01*
X119379Y369823D01*
G37*
%LPD*%
%LPC*%
G36*
X558799Y256793D02*
X558799Y256793D01*
X558799Y261954D01*
X558972Y262601D01*
X559307Y263180D01*
X559780Y263653D01*
X560359Y263988D01*
X561006Y264161D01*
X569977Y264161D01*
X569977Y256793D01*
X558799Y256793D01*
G37*
%LPD*%
%LPC*%
G36*
X76199Y330453D02*
X76199Y330453D01*
X76199Y335614D01*
X76372Y336261D01*
X76707Y336840D01*
X77180Y337313D01*
X77759Y337648D01*
X78406Y337821D01*
X87377Y337821D01*
X87377Y330453D01*
X76199Y330453D01*
G37*
%LPD*%
%LPC*%
G36*
X200913Y368299D02*
X200913Y368299D01*
X200913Y379477D01*
X208281Y379477D01*
X208281Y370506D01*
X208108Y369859D01*
X207773Y369280D01*
X207300Y368807D01*
X206721Y368472D01*
X206074Y368299D01*
X200913Y368299D01*
G37*
%LPD*%
%LPC*%
G36*
X162813Y355599D02*
X162813Y355599D01*
X162813Y366777D01*
X170181Y366777D01*
X170181Y357806D01*
X170008Y357159D01*
X169673Y356580D01*
X169200Y356107D01*
X168621Y355772D01*
X167974Y355599D01*
X162813Y355599D01*
G37*
%LPD*%
%LPC*%
G36*
X76199Y297433D02*
X76199Y297433D01*
X76199Y302594D01*
X76372Y303241D01*
X76707Y303820D01*
X77180Y304293D01*
X77759Y304628D01*
X78406Y304801D01*
X87377Y304801D01*
X87377Y297433D01*
X76199Y297433D01*
G37*
%LPD*%
%LPC*%
G36*
X129793Y355599D02*
X129793Y355599D01*
X129793Y366777D01*
X137161Y366777D01*
X137161Y357806D01*
X136988Y357159D01*
X136653Y356580D01*
X136180Y356107D01*
X135601Y355772D01*
X134954Y355599D01*
X129793Y355599D01*
G37*
%LPD*%
%LPC*%
G36*
X558799Y195833D02*
X558799Y195833D01*
X558799Y200994D01*
X558972Y201641D01*
X559307Y202220D01*
X559780Y202693D01*
X560359Y203028D01*
X561006Y203201D01*
X569977Y203201D01*
X569977Y195833D01*
X558799Y195833D01*
G37*
%LPD*%
%LPC*%
G36*
X573023Y185419D02*
X573023Y185419D01*
X573023Y192787D01*
X584201Y192787D01*
X584201Y187626D01*
X584028Y186979D01*
X583693Y186400D01*
X583220Y185927D01*
X582641Y185592D01*
X581994Y185419D01*
X573023Y185419D01*
G37*
%LPD*%
%LPC*%
G36*
X90423Y287019D02*
X90423Y287019D01*
X90423Y294387D01*
X101601Y294387D01*
X101601Y289226D01*
X101428Y288579D01*
X101093Y288000D01*
X100620Y287527D01*
X100041Y287192D01*
X99394Y287019D01*
X90423Y287019D01*
G37*
%LPD*%
%LPC*%
G36*
X573023Y246379D02*
X573023Y246379D01*
X573023Y253747D01*
X584201Y253747D01*
X584201Y248586D01*
X584028Y247939D01*
X583693Y247360D01*
X583220Y246887D01*
X582641Y246552D01*
X581994Y246379D01*
X573023Y246379D01*
G37*
%LPD*%
%LPC*%
G36*
X561006Y246379D02*
X561006Y246379D01*
X560359Y246552D01*
X559780Y246887D01*
X559307Y247360D01*
X558972Y247939D01*
X558799Y248586D01*
X558799Y253747D01*
X569977Y253747D01*
X569977Y246379D01*
X561006Y246379D01*
G37*
%LPD*%
%LPC*%
G36*
X78406Y287019D02*
X78406Y287019D01*
X77759Y287192D01*
X77180Y287527D01*
X76707Y288000D01*
X76372Y288579D01*
X76199Y289226D01*
X76199Y294387D01*
X87377Y294387D01*
X87377Y287019D01*
X78406Y287019D01*
G37*
%LPD*%
%LPC*%
G36*
X561006Y185419D02*
X561006Y185419D01*
X560359Y185592D01*
X559780Y185927D01*
X559307Y186400D01*
X558972Y186979D01*
X558799Y187626D01*
X558799Y192787D01*
X569977Y192787D01*
X569977Y185419D01*
X561006Y185419D01*
G37*
%LPD*%
%LPC*%
G36*
X78406Y320039D02*
X78406Y320039D01*
X77759Y320212D01*
X77180Y320547D01*
X76707Y321020D01*
X76372Y321599D01*
X76199Y322246D01*
X76199Y327407D01*
X87377Y327407D01*
X87377Y320039D01*
X78406Y320039D01*
G37*
%LPD*%
%LPC*%
G36*
X192706Y368299D02*
X192706Y368299D01*
X192059Y368472D01*
X191480Y368807D01*
X191007Y369280D01*
X190672Y369859D01*
X190499Y370506D01*
X190499Y379477D01*
X197867Y379477D01*
X197867Y368299D01*
X192706Y368299D01*
G37*
%LPD*%
%LPC*%
G36*
X154606Y355599D02*
X154606Y355599D01*
X153959Y355772D01*
X153380Y356107D01*
X152907Y356580D01*
X152572Y357159D01*
X152399Y357806D01*
X152399Y366777D01*
X159767Y366777D01*
X159767Y355599D01*
X154606Y355599D01*
G37*
%LPD*%
%LPC*%
G36*
X121586Y355599D02*
X121586Y355599D01*
X120939Y355772D01*
X120360Y356107D01*
X119887Y356580D01*
X119552Y357159D01*
X119379Y357806D01*
X119379Y366777D01*
X126747Y366777D01*
X126747Y355599D01*
X121586Y355599D01*
G37*
%LPD*%
%LPC*%
G36*
X649223Y90423D02*
X649223Y90423D01*
X649223Y100746D01*
X650496Y100545D01*
X652283Y99964D01*
X653957Y99111D01*
X655478Y98006D01*
X656806Y96678D01*
X657911Y95157D01*
X658764Y93483D01*
X659345Y91696D01*
X659546Y90423D01*
X649223Y90423D01*
G37*
%LPD*%
%LPC*%
G36*
X649223Y141223D02*
X649223Y141223D01*
X649223Y151546D01*
X650496Y151345D01*
X652283Y150764D01*
X653957Y149911D01*
X655478Y148806D01*
X656806Y147478D01*
X657911Y145957D01*
X658764Y144283D01*
X659345Y142496D01*
X659546Y141223D01*
X649223Y141223D01*
G37*
%LPD*%
%LPC*%
G36*
X128523Y49783D02*
X128523Y49783D01*
X128523Y60106D01*
X129796Y59905D01*
X131583Y59324D01*
X133257Y58471D01*
X134778Y57366D01*
X136106Y56038D01*
X137211Y54517D01*
X138064Y52843D01*
X138645Y51056D01*
X138846Y49783D01*
X128523Y49783D01*
G37*
%LPD*%
%LPC*%
G36*
X489203Y219963D02*
X489203Y219963D01*
X489203Y230286D01*
X490476Y230085D01*
X492263Y229504D01*
X493937Y228651D01*
X495458Y227546D01*
X496786Y226218D01*
X497891Y224697D01*
X498744Y223023D01*
X499325Y221236D01*
X499526Y219963D01*
X489203Y219963D01*
G37*
%LPD*%
%LPC*%
G36*
X618235Y29717D02*
X618235Y29717D01*
X618235Y40040D01*
X619508Y39839D01*
X621295Y39258D01*
X622969Y38405D01*
X624490Y37300D01*
X625818Y35972D01*
X626923Y34451D01*
X627776Y32777D01*
X628357Y30990D01*
X628558Y29717D01*
X618235Y29717D01*
G37*
%LPD*%
%LPC*%
G36*
X489203Y169163D02*
X489203Y169163D01*
X489203Y179486D01*
X490476Y179285D01*
X492263Y178704D01*
X493937Y177851D01*
X495458Y176746D01*
X496786Y175418D01*
X497891Y173897D01*
X498744Y172223D01*
X499325Y170436D01*
X499526Y169163D01*
X489203Y169163D01*
G37*
%LPD*%
%LPC*%
G36*
X649223Y255523D02*
X649223Y255523D01*
X649223Y265846D01*
X650496Y265645D01*
X652283Y265064D01*
X653957Y264211D01*
X655478Y263106D01*
X656806Y261778D01*
X657911Y260257D01*
X658764Y258583D01*
X659345Y256796D01*
X659546Y255523D01*
X649223Y255523D01*
G37*
%LPD*%
%LPC*%
G36*
X585723Y382523D02*
X585723Y382523D01*
X585723Y392846D01*
X586996Y392645D01*
X588783Y392064D01*
X590457Y391211D01*
X591978Y390106D01*
X593306Y388778D01*
X594411Y387257D01*
X595264Y385583D01*
X595845Y383796D01*
X596046Y382523D01*
X585723Y382523D01*
G37*
%LPD*%
%LPC*%
G36*
X649223Y204723D02*
X649223Y204723D01*
X649223Y215046D01*
X650496Y214845D01*
X652283Y214264D01*
X653957Y213411D01*
X655478Y212306D01*
X656806Y210978D01*
X657911Y209457D01*
X658764Y207783D01*
X659345Y205996D01*
X659546Y204723D01*
X649223Y204723D01*
G37*
%LPD*%
%LPC*%
G36*
X370331Y74929D02*
X370331Y74929D01*
X370331Y85252D01*
X371604Y85051D01*
X373391Y84470D01*
X375065Y83617D01*
X376586Y82512D01*
X377914Y81184D01*
X379019Y79663D01*
X379872Y77989D01*
X380453Y76202D01*
X380654Y74929D01*
X370331Y74929D01*
G37*
%LPD*%
%LPC*%
G36*
X461771Y74929D02*
X461771Y74929D01*
X461771Y85252D01*
X463044Y85051D01*
X464831Y84470D01*
X466505Y83617D01*
X468026Y82512D01*
X469354Y81184D01*
X470459Y79663D01*
X471312Y77989D01*
X471893Y76202D01*
X472094Y74929D01*
X461771Y74929D01*
G37*
%LPD*%
%LPC*%
G36*
X103123Y372363D02*
X103123Y372363D01*
X103123Y382686D01*
X104396Y382485D01*
X106183Y381904D01*
X107857Y381051D01*
X109378Y379946D01*
X110706Y378618D01*
X111811Y377097D01*
X112664Y375423D01*
X113245Y373636D01*
X113446Y372363D01*
X103123Y372363D01*
G37*
%LPD*%
%LPC*%
G36*
X649223Y138177D02*
X649223Y138177D01*
X659546Y138177D01*
X659345Y136904D01*
X658764Y135117D01*
X657911Y133443D01*
X656806Y131922D01*
X655478Y130594D01*
X653957Y129489D01*
X652283Y128636D01*
X650496Y128055D01*
X649223Y127854D01*
X649223Y138177D01*
G37*
%LPD*%
%LPC*%
G36*
X572354Y382523D02*
X572354Y382523D01*
X572555Y383796D01*
X573136Y385583D01*
X573989Y387257D01*
X575094Y388778D01*
X576422Y390106D01*
X577943Y391211D01*
X579617Y392064D01*
X581404Y392645D01*
X582677Y392846D01*
X582677Y382523D01*
X572354Y382523D01*
G37*
%LPD*%
%LPC*%
G36*
X585723Y379477D02*
X585723Y379477D01*
X596046Y379477D01*
X595845Y378204D01*
X595264Y376417D01*
X594411Y374743D01*
X593306Y373222D01*
X591978Y371894D01*
X590457Y370789D01*
X588783Y369936D01*
X586996Y369355D01*
X585723Y369154D01*
X585723Y379477D01*
G37*
%LPD*%
%LPC*%
G36*
X635854Y141223D02*
X635854Y141223D01*
X636055Y142496D01*
X636636Y144283D01*
X637489Y145957D01*
X638594Y147478D01*
X639922Y148806D01*
X641443Y149911D01*
X643117Y150764D01*
X644904Y151345D01*
X646177Y151546D01*
X646177Y141223D01*
X635854Y141223D01*
G37*
%LPD*%
%LPC*%
G36*
X475834Y169163D02*
X475834Y169163D01*
X476035Y170436D01*
X476616Y172223D01*
X477469Y173897D01*
X478574Y175418D01*
X479902Y176746D01*
X481423Y177851D01*
X483097Y178704D01*
X484884Y179285D01*
X486157Y179486D01*
X486157Y169163D01*
X475834Y169163D01*
G37*
%LPD*%
%LPC*%
G36*
X475834Y219963D02*
X475834Y219963D01*
X476035Y221236D01*
X476616Y223023D01*
X477469Y224697D01*
X478574Y226218D01*
X479902Y227546D01*
X481423Y228651D01*
X483097Y229504D01*
X484884Y230085D01*
X486157Y230286D01*
X486157Y219963D01*
X475834Y219963D01*
G37*
%LPD*%
%LPC*%
G36*
X489203Y166117D02*
X489203Y166117D01*
X499526Y166117D01*
X499325Y164844D01*
X498744Y163057D01*
X497891Y161383D01*
X496786Y159862D01*
X495458Y158534D01*
X493937Y157429D01*
X492263Y156576D01*
X490476Y155995D01*
X489203Y155794D01*
X489203Y166117D01*
G37*
%LPD*%
%LPC*%
G36*
X489203Y216917D02*
X489203Y216917D01*
X499526Y216917D01*
X499325Y215644D01*
X498744Y213857D01*
X497891Y212183D01*
X496786Y210662D01*
X495458Y209334D01*
X493937Y208229D01*
X492263Y207376D01*
X490476Y206795D01*
X489203Y206594D01*
X489203Y216917D01*
G37*
%LPD*%
%LPC*%
G36*
X635854Y204723D02*
X635854Y204723D01*
X636055Y205996D01*
X636636Y207783D01*
X637489Y209457D01*
X638594Y210978D01*
X639922Y212306D01*
X641443Y213411D01*
X643117Y214264D01*
X644904Y214845D01*
X646177Y215046D01*
X646177Y204723D01*
X635854Y204723D01*
G37*
%LPD*%
%LPC*%
G36*
X89754Y372363D02*
X89754Y372363D01*
X89955Y373636D01*
X90536Y375423D01*
X91389Y377097D01*
X92494Y378618D01*
X93822Y379946D01*
X95343Y381051D01*
X97017Y381904D01*
X98804Y382485D01*
X100077Y382686D01*
X100077Y372363D01*
X89754Y372363D01*
G37*
%LPD*%
%LPC*%
G36*
X604866Y29717D02*
X604866Y29717D01*
X605067Y30990D01*
X605648Y32777D01*
X606501Y34451D01*
X607606Y35972D01*
X608934Y37300D01*
X610455Y38405D01*
X612129Y39258D01*
X613916Y39839D01*
X615189Y40040D01*
X615189Y29717D01*
X604866Y29717D01*
G37*
%LPD*%
%LPC*%
G36*
X649223Y252477D02*
X649223Y252477D01*
X659546Y252477D01*
X659345Y251204D01*
X658764Y249417D01*
X657911Y247743D01*
X656806Y246222D01*
X655478Y244894D01*
X653957Y243789D01*
X652283Y242936D01*
X650496Y242355D01*
X649223Y242154D01*
X649223Y252477D01*
G37*
%LPD*%
%LPC*%
G36*
X128523Y46737D02*
X128523Y46737D01*
X138846Y46737D01*
X138645Y45464D01*
X138064Y43677D01*
X137211Y42003D01*
X136106Y40482D01*
X134778Y39154D01*
X133257Y38049D01*
X131583Y37196D01*
X129796Y36615D01*
X128523Y36414D01*
X128523Y46737D01*
G37*
%LPD*%
%LPC*%
G36*
X115154Y49783D02*
X115154Y49783D01*
X115355Y51056D01*
X115936Y52843D01*
X116789Y54517D01*
X117894Y56038D01*
X119222Y57366D01*
X120743Y58471D01*
X122417Y59324D01*
X124204Y59905D01*
X125477Y60106D01*
X125477Y49783D01*
X115154Y49783D01*
G37*
%LPD*%
%LPC*%
G36*
X635854Y90423D02*
X635854Y90423D01*
X636055Y91696D01*
X636636Y93483D01*
X637489Y95157D01*
X638594Y96678D01*
X639922Y98006D01*
X641443Y99111D01*
X643117Y99964D01*
X644904Y100545D01*
X646177Y100746D01*
X646177Y90423D01*
X635854Y90423D01*
G37*
%LPD*%
%LPC*%
G36*
X103123Y369317D02*
X103123Y369317D01*
X113446Y369317D01*
X113245Y368044D01*
X112664Y366257D01*
X111811Y364583D01*
X110706Y363062D01*
X109378Y361734D01*
X107857Y360629D01*
X106183Y359776D01*
X104396Y359195D01*
X103123Y358994D01*
X103123Y369317D01*
G37*
%LPD*%
%LPC*%
G36*
X649223Y201677D02*
X649223Y201677D01*
X659546Y201677D01*
X659345Y200404D01*
X658764Y198617D01*
X657911Y196943D01*
X656806Y195422D01*
X655478Y194094D01*
X653957Y192989D01*
X652283Y192136D01*
X650496Y191555D01*
X649223Y191354D01*
X649223Y201677D01*
G37*
%LPD*%
%LPC*%
G36*
X461771Y71883D02*
X461771Y71883D01*
X472094Y71883D01*
X471893Y70610D01*
X471312Y68823D01*
X470459Y67149D01*
X469354Y65628D01*
X468026Y64300D01*
X466505Y63195D01*
X464831Y62342D01*
X463044Y61761D01*
X461771Y61560D01*
X461771Y71883D01*
G37*
%LPD*%
%LPC*%
G36*
X618235Y26671D02*
X618235Y26671D01*
X628558Y26671D01*
X628357Y25398D01*
X627776Y23611D01*
X626923Y21937D01*
X625818Y20416D01*
X624490Y19088D01*
X622969Y17983D01*
X621295Y17130D01*
X619508Y16549D01*
X618235Y16348D01*
X618235Y26671D01*
G37*
%LPD*%
%LPC*%
G36*
X635854Y255523D02*
X635854Y255523D01*
X636055Y256796D01*
X636636Y258583D01*
X637489Y260257D01*
X638594Y261778D01*
X639922Y263106D01*
X641443Y264211D01*
X643117Y265064D01*
X644904Y265645D01*
X646177Y265846D01*
X646177Y255523D01*
X635854Y255523D01*
G37*
%LPD*%
%LPC*%
G36*
X370331Y71883D02*
X370331Y71883D01*
X380654Y71883D01*
X380453Y70610D01*
X379872Y68823D01*
X379019Y67149D01*
X377914Y65628D01*
X376586Y64300D01*
X375065Y63195D01*
X373391Y62342D01*
X371604Y61761D01*
X370331Y61560D01*
X370331Y71883D01*
G37*
%LPD*%
%LPC*%
G36*
X356962Y74929D02*
X356962Y74929D01*
X357163Y76202D01*
X357744Y77989D01*
X358597Y79663D01*
X359702Y81184D01*
X361030Y82512D01*
X362551Y83617D01*
X364225Y84470D01*
X366012Y85051D01*
X367285Y85252D01*
X367285Y74929D01*
X356962Y74929D01*
G37*
%LPD*%
%LPC*%
G36*
X448402Y74929D02*
X448402Y74929D01*
X448603Y76202D01*
X449184Y77989D01*
X450037Y79663D01*
X451142Y81184D01*
X452470Y82512D01*
X453991Y83617D01*
X455665Y84470D01*
X457452Y85051D01*
X458725Y85252D01*
X458725Y74929D01*
X448402Y74929D01*
G37*
%LPD*%
%LPC*%
G36*
X649223Y87377D02*
X649223Y87377D01*
X659546Y87377D01*
X659345Y86104D01*
X658764Y84317D01*
X657911Y82643D01*
X656806Y81122D01*
X655478Y79794D01*
X653957Y78689D01*
X652283Y77836D01*
X650496Y77255D01*
X649223Y77054D01*
X649223Y87377D01*
G37*
%LPD*%
%LPC*%
G36*
X644904Y128055D02*
X644904Y128055D01*
X643117Y128636D01*
X641443Y129489D01*
X639922Y130594D01*
X638594Y131922D01*
X637489Y133443D01*
X636636Y135117D01*
X636055Y136904D01*
X635854Y138177D01*
X646177Y138177D01*
X646177Y127854D01*
X644904Y128055D01*
G37*
%LPD*%
%LPC*%
G36*
X484884Y155995D02*
X484884Y155995D01*
X483097Y156576D01*
X481423Y157429D01*
X479902Y158534D01*
X478574Y159862D01*
X477469Y161383D01*
X476616Y163057D01*
X476035Y164844D01*
X475834Y166117D01*
X486157Y166117D01*
X486157Y155794D01*
X484884Y155995D01*
G37*
%LPD*%
%LPC*%
G36*
X644904Y77255D02*
X644904Y77255D01*
X643117Y77836D01*
X641443Y78689D01*
X639922Y79794D01*
X638594Y81122D01*
X637489Y82643D01*
X636636Y84317D01*
X636055Y86104D01*
X635854Y87377D01*
X646177Y87377D01*
X646177Y77054D01*
X644904Y77255D01*
G37*
%LPD*%
%LPC*%
G36*
X124204Y36615D02*
X124204Y36615D01*
X122417Y37196D01*
X120743Y38049D01*
X119222Y39154D01*
X117894Y40482D01*
X116789Y42003D01*
X115936Y43677D01*
X115355Y45464D01*
X115154Y46737D01*
X125477Y46737D01*
X125477Y36414D01*
X124204Y36615D01*
G37*
%LPD*%
%LPC*%
G36*
X457452Y61761D02*
X457452Y61761D01*
X455665Y62342D01*
X453991Y63195D01*
X452470Y64300D01*
X451142Y65628D01*
X450037Y67149D01*
X449184Y68823D01*
X448603Y70610D01*
X448402Y71883D01*
X458725Y71883D01*
X458725Y61560D01*
X457452Y61761D01*
G37*
%LPD*%
%LPC*%
G36*
X366012Y61761D02*
X366012Y61761D01*
X364225Y62342D01*
X362551Y63195D01*
X361030Y64300D01*
X359702Y65628D01*
X358597Y67149D01*
X357744Y68823D01*
X357163Y70610D01*
X356962Y71883D01*
X367285Y71883D01*
X367285Y61560D01*
X366012Y61761D01*
G37*
%LPD*%
%LPC*%
G36*
X613916Y16549D02*
X613916Y16549D01*
X612129Y17130D01*
X610455Y17983D01*
X608934Y19088D01*
X607606Y20416D01*
X606501Y21937D01*
X605648Y23611D01*
X605067Y25398D01*
X604866Y26671D01*
X615189Y26671D01*
X615189Y16348D01*
X613916Y16549D01*
G37*
%LPD*%
%LPC*%
G36*
X644904Y191555D02*
X644904Y191555D01*
X643117Y192136D01*
X641443Y192989D01*
X639922Y194094D01*
X638594Y195422D01*
X637489Y196943D01*
X636636Y198617D01*
X636055Y200404D01*
X635854Y201677D01*
X646177Y201677D01*
X646177Y191354D01*
X644904Y191555D01*
G37*
%LPD*%
%LPC*%
G36*
X581404Y369355D02*
X581404Y369355D01*
X579617Y369936D01*
X577943Y370789D01*
X576422Y371894D01*
X575094Y373222D01*
X573989Y374743D01*
X573136Y376417D01*
X572555Y378204D01*
X572354Y379477D01*
X582677Y379477D01*
X582677Y369154D01*
X581404Y369355D01*
G37*
%LPD*%
%LPC*%
G36*
X484884Y206795D02*
X484884Y206795D01*
X483097Y207376D01*
X481423Y208229D01*
X479902Y209334D01*
X478574Y210662D01*
X477469Y212183D01*
X476616Y213857D01*
X476035Y215644D01*
X475834Y216917D01*
X486157Y216917D01*
X486157Y206594D01*
X484884Y206795D01*
G37*
%LPD*%
%LPC*%
G36*
X98804Y359195D02*
X98804Y359195D01*
X97017Y359776D01*
X95343Y360629D01*
X93822Y361734D01*
X92494Y363062D01*
X91389Y364583D01*
X90536Y366257D01*
X89955Y368044D01*
X89754Y369317D01*
X100077Y369317D01*
X100077Y358994D01*
X98804Y359195D01*
G37*
%LPD*%
%LPC*%
G36*
X644904Y242355D02*
X644904Y242355D01*
X643117Y242936D01*
X641443Y243789D01*
X639922Y244894D01*
X638594Y246222D01*
X637489Y247743D01*
X636636Y249417D01*
X636055Y251204D01*
X635854Y252477D01*
X646177Y252477D01*
X646177Y242154D01*
X644904Y242355D01*
G37*
%LPD*%
%LPC*%
G36*
X270406Y368159D02*
X270406Y368159D01*
X269759Y368332D01*
X269180Y368667D01*
X268707Y369140D01*
X268372Y369719D01*
X268199Y370365D01*
X268199Y378969D01*
X275059Y378969D01*
X275059Y368159D01*
X270406Y368159D01*
G37*
%LPD*%
%LPC*%
G36*
X234441Y383031D02*
X234441Y383031D01*
X234441Y393701D01*
X239094Y393701D01*
X239741Y393528D01*
X240320Y393193D01*
X240793Y392720D01*
X241128Y392141D01*
X241301Y391494D01*
X241301Y383031D01*
X234441Y383031D01*
G37*
%LPD*%
%LPC*%
G36*
X223519Y383031D02*
X223519Y383031D01*
X223519Y391494D01*
X223692Y392141D01*
X224027Y392720D01*
X224500Y393193D01*
X225079Y393528D01*
X225726Y393701D01*
X230379Y393701D01*
X230379Y383031D01*
X223519Y383031D01*
G37*
%LPD*%
%LPC*%
G36*
X225726Y368299D02*
X225726Y368299D01*
X225079Y368472D01*
X224500Y368807D01*
X224027Y369280D01*
X223692Y369859D01*
X223519Y370506D01*
X223519Y378969D01*
X230379Y378969D01*
X230379Y368299D01*
X225726Y368299D01*
G37*
%LPD*%
%LPC*%
G36*
X256031Y372871D02*
X256031Y372871D01*
X256031Y382606D01*
X256796Y382485D01*
X258583Y381904D01*
X260257Y381051D01*
X261778Y379946D01*
X263106Y378618D01*
X264211Y377097D01*
X265064Y375423D01*
X265645Y373636D01*
X265766Y372871D01*
X256031Y372871D01*
G37*
%LPD*%
%LPC*%
G36*
X256031Y368809D02*
X256031Y368809D01*
X265766Y368809D01*
X265645Y368044D01*
X265064Y366257D01*
X264211Y364583D01*
X263106Y363062D01*
X261778Y361734D01*
X260257Y360629D01*
X258583Y359776D01*
X256796Y359195D01*
X256031Y359074D01*
X256031Y368809D01*
G37*
%LPD*%
%LPC*%
G36*
X52323Y242823D02*
X52323Y242823D01*
X52323Y250881D01*
X58174Y250881D01*
X58821Y250708D01*
X59400Y250373D01*
X59873Y249900D01*
X60208Y249321D01*
X60381Y248674D01*
X60381Y242823D01*
X52323Y242823D01*
G37*
%LPD*%
%LPC*%
G36*
X255523Y90423D02*
X255523Y90423D01*
X255523Y98481D01*
X261374Y98481D01*
X262021Y98308D01*
X262600Y97973D01*
X263073Y97500D01*
X263408Y96921D01*
X263581Y96274D01*
X263581Y90423D01*
X255523Y90423D01*
G37*
%LPD*%
%LPC*%
G36*
X41219Y242823D02*
X41219Y242823D01*
X41219Y248674D01*
X41392Y249321D01*
X41727Y249900D01*
X42200Y250373D01*
X42779Y250708D01*
X43426Y250881D01*
X49277Y250881D01*
X49277Y242823D01*
X41219Y242823D01*
G37*
%LPD*%
%LPC*%
G36*
X244419Y90423D02*
X244419Y90423D01*
X244419Y96274D01*
X244592Y96921D01*
X244927Y97500D01*
X245400Y97973D01*
X245979Y98308D01*
X246626Y98481D01*
X252477Y98481D01*
X252477Y90423D01*
X244419Y90423D01*
G37*
%LPD*%
%LPC*%
G36*
X255523Y79319D02*
X255523Y79319D01*
X255523Y87377D01*
X263581Y87377D01*
X263581Y81526D01*
X263408Y80879D01*
X263073Y80300D01*
X262600Y79827D01*
X262021Y79492D01*
X261374Y79319D01*
X255523Y79319D01*
G37*
%LPD*%
%LPC*%
G36*
X52323Y231719D02*
X52323Y231719D01*
X52323Y239777D01*
X60381Y239777D01*
X60381Y233926D01*
X60208Y233279D01*
X59873Y232700D01*
X59400Y232227D01*
X58821Y231892D01*
X58174Y231719D01*
X52323Y231719D01*
G37*
%LPD*%
%LPC*%
G36*
X246626Y79319D02*
X246626Y79319D01*
X245979Y79492D01*
X245400Y79827D01*
X244927Y80300D01*
X244592Y80879D01*
X244419Y81526D01*
X244419Y87377D01*
X252477Y87377D01*
X252477Y79319D01*
X246626Y79319D01*
G37*
%LPD*%
%LPC*%
G36*
X43426Y231719D02*
X43426Y231719D01*
X42779Y231892D01*
X42200Y232227D01*
X41727Y232700D01*
X41392Y233279D01*
X41219Y233926D01*
X41219Y239777D01*
X49277Y239777D01*
X49277Y231719D01*
X43426Y231719D01*
G37*
%LPD*%
%LPC*%
G36*
X217183Y420623D02*
X217183Y420623D01*
X217183Y428641D01*
X221994Y428641D01*
X222641Y428468D01*
X223220Y428133D01*
X223693Y427660D01*
X224028Y427081D01*
X224201Y426434D01*
X224201Y420623D01*
X217183Y420623D01*
G37*
%LPD*%
%LPC*%
G36*
X281163Y420623D02*
X281163Y420623D01*
X281163Y428641D01*
X285974Y428641D01*
X286621Y428468D01*
X287200Y428133D01*
X287673Y427660D01*
X288008Y427081D01*
X288181Y426434D01*
X288181Y420623D01*
X281163Y420623D01*
G37*
%LPD*%
%LPC*%
G36*
X281163Y409559D02*
X281163Y409559D01*
X281163Y417577D01*
X288181Y417577D01*
X288181Y411766D01*
X288008Y411119D01*
X287673Y410540D01*
X287200Y410067D01*
X286621Y409732D01*
X285974Y409559D01*
X281163Y409559D01*
G37*
%LPD*%
%LPC*%
G36*
X207119Y420623D02*
X207119Y420623D01*
X207119Y426434D01*
X207292Y427081D01*
X207627Y427660D01*
X208100Y428133D01*
X208679Y428468D01*
X209326Y428641D01*
X214137Y428641D01*
X214137Y420623D01*
X207119Y420623D01*
G37*
%LPD*%
%LPC*%
G36*
X271099Y420623D02*
X271099Y420623D01*
X271099Y426434D01*
X271272Y427081D01*
X271607Y427660D01*
X272080Y428133D01*
X272659Y428468D01*
X273306Y428641D01*
X278117Y428641D01*
X278117Y420623D01*
X271099Y420623D01*
G37*
%LPD*%
%LPC*%
G36*
X273306Y409559D02*
X273306Y409559D01*
X272659Y409732D01*
X272080Y410067D01*
X271607Y410540D01*
X271272Y411119D01*
X271099Y411766D01*
X271099Y417577D01*
X278117Y417577D01*
X278117Y409559D01*
X273306Y409559D01*
G37*
%LPD*%
%LPC*%
G36*
X130824Y338374D02*
X130824Y338374D01*
X130824Y344041D01*
X132035Y344041D01*
X132681Y343868D01*
X132819Y343787D01*
X132883Y343764D01*
X132942Y343731D01*
X132997Y343720D01*
X133049Y343701D01*
X133117Y343698D01*
X133184Y343686D01*
X133239Y343694D01*
X133295Y343692D01*
X133360Y343711D01*
X133427Y343720D01*
X133500Y343752D01*
X133531Y343761D01*
X133548Y343773D01*
X133581Y343788D01*
X133719Y343868D01*
X134366Y344041D01*
X135576Y344041D01*
X135576Y338374D01*
X130824Y338374D01*
G37*
%LPD*%
%LPC*%
G36*
X137324Y338374D02*
X137324Y338374D01*
X137324Y344041D01*
X138535Y344041D01*
X139181Y343868D01*
X139319Y343788D01*
X139383Y343764D01*
X139442Y343731D01*
X139497Y343720D01*
X139549Y343701D01*
X139617Y343698D01*
X139683Y343686D01*
X139739Y343694D01*
X139795Y343691D01*
X139860Y343711D01*
X139927Y343720D01*
X140000Y343752D01*
X140031Y343761D01*
X140048Y343773D01*
X140081Y343787D01*
X140219Y343868D01*
X140866Y344041D01*
X142076Y344041D01*
X142076Y338374D01*
X137324Y338374D01*
G37*
%LPD*%
%LPC*%
G36*
X143824Y296626D02*
X143824Y296626D01*
X148576Y296626D01*
X148576Y290959D01*
X147366Y290959D01*
X146719Y291132D01*
X146581Y291213D01*
X146517Y291236D01*
X146458Y291269D01*
X146403Y291280D01*
X146351Y291299D01*
X146283Y291302D01*
X146216Y291314D01*
X146161Y291306D01*
X146105Y291308D01*
X146040Y291289D01*
X145973Y291280D01*
X145900Y291248D01*
X145869Y291239D01*
X145852Y291227D01*
X145819Y291212D01*
X145681Y291132D01*
X145034Y290959D01*
X143824Y290959D01*
X143824Y296626D01*
G37*
%LPD*%
%LPC*%
G36*
X113159Y321624D02*
X113159Y321624D01*
X113159Y322834D01*
X113332Y323481D01*
X113413Y323619D01*
X113436Y323683D01*
X113469Y323742D01*
X113480Y323797D01*
X113499Y323849D01*
X113502Y323917D01*
X113514Y323984D01*
X113506Y324039D01*
X113508Y324095D01*
X113489Y324160D01*
X113480Y324227D01*
X113448Y324300D01*
X113439Y324331D01*
X113427Y324348D01*
X113412Y324381D01*
X113332Y324519D01*
X113159Y325166D01*
X113159Y326376D01*
X118826Y326376D01*
X118826Y321624D01*
X113159Y321624D01*
G37*
%LPD*%
%LPC*%
G36*
X113159Y315124D02*
X113159Y315124D01*
X113159Y316334D01*
X113332Y316981D01*
X113412Y317119D01*
X113436Y317183D01*
X113469Y317242D01*
X113480Y317297D01*
X113499Y317349D01*
X113502Y317417D01*
X113514Y317483D01*
X113506Y317539D01*
X113509Y317595D01*
X113489Y317660D01*
X113480Y317727D01*
X113448Y317800D01*
X113439Y317831D01*
X113427Y317848D01*
X113413Y317881D01*
X113332Y318019D01*
X113159Y318666D01*
X113159Y319876D01*
X118826Y319876D01*
X118826Y315124D01*
X113159Y315124D01*
G37*
%LPD*%
%LPC*%
G36*
X150324Y338374D02*
X150324Y338374D01*
X150324Y344041D01*
X151535Y344041D01*
X152181Y343868D01*
X152760Y343533D01*
X153233Y343060D01*
X153568Y342481D01*
X153741Y341834D01*
X153741Y338374D01*
X150324Y338374D01*
G37*
%LPD*%
%LPC*%
G36*
X160574Y328124D02*
X160574Y328124D01*
X160574Y331541D01*
X164035Y331541D01*
X164681Y331368D01*
X165260Y331033D01*
X165733Y330560D01*
X166068Y329981D01*
X166241Y329334D01*
X166241Y328124D01*
X160574Y328124D01*
G37*
%LPD*%
%LPC*%
G36*
X113159Y328124D02*
X113159Y328124D01*
X113159Y329334D01*
X113332Y329981D01*
X113667Y330560D01*
X114140Y331033D01*
X114719Y331368D01*
X115366Y331541D01*
X118826Y331541D01*
X118826Y328124D01*
X113159Y328124D01*
G37*
%LPD*%
%LPC*%
G36*
X150324Y296626D02*
X150324Y296626D01*
X153741Y296626D01*
X153741Y295122D01*
X153741Y293165D01*
X153568Y292519D01*
X153233Y291940D01*
X152760Y291467D01*
X152181Y291132D01*
X151534Y290959D01*
X150324Y290959D01*
X150324Y296626D01*
G37*
%LPD*%
%LPC*%
G36*
X125659Y338374D02*
X125659Y338374D01*
X125659Y341834D01*
X125832Y342481D01*
X126167Y343060D01*
X126640Y343533D01*
X127219Y343868D01*
X127866Y344041D01*
X129076Y344041D01*
X129076Y338374D01*
X125659Y338374D01*
G37*
%LPD*%
%LPC*%
G36*
X127866Y290959D02*
X127866Y290959D01*
X127219Y291132D01*
X126640Y291467D01*
X126167Y291940D01*
X125832Y292519D01*
X125659Y293166D01*
X125659Y296626D01*
X129076Y296626D01*
X129076Y290959D01*
X127866Y290959D01*
G37*
%LPD*%
%LPC*%
G36*
X50799Y241299D02*
X50799Y241299D01*
X50799Y241301D01*
X50801Y241301D01*
X50801Y241299D01*
X50799Y241299D01*
G37*
%LPD*%
%LPC*%
G36*
X616711Y28193D02*
X616711Y28193D01*
X616711Y28195D01*
X616713Y28195D01*
X616713Y28193D01*
X616711Y28193D01*
G37*
%LPD*%
%LPC*%
G36*
X487679Y218439D02*
X487679Y218439D01*
X487679Y218441D01*
X487681Y218441D01*
X487681Y218439D01*
X487679Y218439D01*
G37*
%LPD*%
%LPC*%
G36*
X101599Y370839D02*
X101599Y370839D01*
X101599Y370841D01*
X101601Y370841D01*
X101601Y370839D01*
X101599Y370839D01*
G37*
%LPD*%
%LPC*%
G36*
X126999Y48259D02*
X126999Y48259D01*
X126999Y48261D01*
X127001Y48261D01*
X127001Y48259D01*
X126999Y48259D01*
G37*
%LPD*%
%LPC*%
G36*
X584199Y380999D02*
X584199Y380999D01*
X584199Y381001D01*
X584201Y381001D01*
X584201Y380999D01*
X584199Y380999D01*
G37*
%LPD*%
%LPC*%
G36*
X487679Y167639D02*
X487679Y167639D01*
X487679Y167641D01*
X487681Y167641D01*
X487681Y167639D01*
X487679Y167639D01*
G37*
%LPD*%
%LPC*%
G36*
X647699Y203199D02*
X647699Y203199D01*
X647699Y203201D01*
X647701Y203201D01*
X647701Y203199D01*
X647699Y203199D01*
G37*
%LPD*%
%LPC*%
G36*
X460247Y73405D02*
X460247Y73405D01*
X460247Y73407D01*
X460249Y73407D01*
X460249Y73405D01*
X460247Y73405D01*
G37*
%LPD*%
%LPC*%
G36*
X368807Y73405D02*
X368807Y73405D01*
X368807Y73407D01*
X368809Y73407D01*
X368809Y73405D01*
X368807Y73405D01*
G37*
%LPD*%
%LPC*%
G36*
X647699Y139699D02*
X647699Y139699D01*
X647699Y139701D01*
X647701Y139701D01*
X647701Y139699D01*
X647699Y139699D01*
G37*
%LPD*%
%LPC*%
G36*
X647699Y253999D02*
X647699Y253999D01*
X647699Y254001D01*
X647701Y254001D01*
X647701Y253999D01*
X647699Y253999D01*
G37*
%LPD*%
%LPC*%
G36*
X253999Y88899D02*
X253999Y88899D01*
X253999Y88901D01*
X254001Y88901D01*
X254001Y88899D01*
X253999Y88899D01*
G37*
%LPD*%
%LPC*%
G36*
X647699Y88899D02*
X647699Y88899D01*
X647699Y88901D01*
X647701Y88901D01*
X647701Y88899D01*
X647699Y88899D01*
G37*
%LPD*%
%LPC*%
G36*
X571499Y194309D02*
X571499Y194309D01*
X571499Y194311D01*
X571501Y194311D01*
X571501Y194309D01*
X571499Y194309D01*
G37*
%LPD*%
%LPC*%
G36*
X161289Y368299D02*
X161289Y368299D01*
X161289Y368301D01*
X161291Y368301D01*
X161291Y368299D01*
X161289Y368299D01*
G37*
%LPD*%
%LPC*%
G36*
X571499Y255269D02*
X571499Y255269D01*
X571499Y255271D01*
X571501Y255271D01*
X571501Y255269D01*
X571499Y255269D01*
G37*
%LPD*%
%LPC*%
G36*
X88899Y295909D02*
X88899Y295909D01*
X88899Y295911D01*
X88901Y295911D01*
X88901Y295909D01*
X88899Y295909D01*
G37*
%LPD*%
%LPC*%
G36*
X279639Y419099D02*
X279639Y419099D01*
X279639Y419101D01*
X279641Y419101D01*
X279641Y419099D01*
X279639Y419099D01*
G37*
%LPD*%
%LPC*%
G36*
X232409Y380999D02*
X232409Y380999D01*
X232409Y381001D01*
X232411Y381001D01*
X232411Y380999D01*
X232409Y380999D01*
G37*
%LPD*%
%LPC*%
G36*
X199389Y380999D02*
X199389Y380999D01*
X199389Y381001D01*
X199391Y381001D01*
X199391Y380999D01*
X199389Y380999D01*
G37*
%LPD*%
%LPC*%
G36*
X262259Y320039D02*
X262259Y320039D01*
X262259Y320041D01*
X262261Y320041D01*
X262261Y320039D01*
X262259Y320039D01*
G37*
%LPD*%
%LPC*%
G36*
X215259Y320039D02*
X215259Y320039D01*
X215259Y320041D01*
X215261Y320041D01*
X215261Y320039D01*
X215259Y320039D01*
G37*
%LPD*%
%LPC*%
G36*
X88899Y328929D02*
X88899Y328929D01*
X88899Y328931D01*
X88901Y328931D01*
X88901Y328929D01*
X88899Y328929D01*
G37*
%LPD*%
%LPC*%
G36*
X128269Y368299D02*
X128269Y368299D01*
X128269Y368301D01*
X128271Y368301D01*
X128271Y368299D01*
X128269Y368299D01*
G37*
%LPD*%
D10*
X460248Y73406D03*
X525272Y73406D03*
X460248Y28194D03*
X525272Y28194D03*
X368808Y73406D03*
X433832Y73406D03*
X368808Y28194D03*
X433832Y28194D03*
D11*
X128270Y368300D03*
X161290Y368300D03*
D12*
X571500Y194310D03*
X571500Y161290D03*
X571500Y222250D03*
X571500Y255270D03*
X88900Y295910D03*
X88900Y328930D03*
D11*
X232410Y381000D03*
X199390Y381000D03*
D13*
X149450Y337500D03*
X142950Y337500D03*
X136450Y337500D03*
X129950Y337500D03*
D14*
X119700Y327250D03*
X119700Y320750D03*
X119700Y314250D03*
X119700Y307750D03*
D13*
X129950Y297500D03*
X136450Y297500D03*
X142950Y297500D03*
X149450Y297500D03*
D14*
X159700Y307750D03*
X159700Y314250D03*
X159700Y320750D03*
X159700Y327250D03*
D15*
X139700Y317500D03*
D16*
X35560Y335500D03*
X35560Y300500D03*
D10*
X381000Y381000D03*
X406400Y381000D03*
X431800Y381000D03*
X457200Y381000D03*
X482600Y381000D03*
X508000Y381000D03*
X533400Y381000D03*
X558800Y381000D03*
X584200Y381000D03*
X647700Y177800D03*
X647700Y203200D03*
X647700Y228600D03*
X647700Y254000D03*
X127000Y48260D03*
X127000Y22860D03*
X487680Y243840D03*
X487680Y218440D03*
X487680Y193040D03*
X487680Y167640D03*
D17*
X609600Y160250D03*
X609600Y195350D03*
X609600Y221210D03*
X609600Y256310D03*
D18*
X426950Y243840D03*
X462050Y243840D03*
X426950Y193040D03*
X462050Y193040D03*
D10*
X616712Y28194D03*
X551688Y28194D03*
X616712Y73406D03*
X551688Y73406D03*
D19*
X127000Y88900D03*
X152400Y88900D03*
X177800Y88900D03*
X203200Y88900D03*
X228600Y88900D03*
X254000Y88900D03*
X101600Y88900D03*
X50800Y88900D03*
X76200Y88900D03*
X25400Y88900D03*
X25400Y241300D03*
X50800Y241300D03*
X76200Y241300D03*
X101600Y241300D03*
X127000Y241300D03*
X152400Y241300D03*
X177800Y241300D03*
X203200Y241300D03*
X228600Y241300D03*
X254000Y241300D03*
D10*
X101600Y370840D03*
X254000Y370840D03*
X647700Y63500D03*
X647700Y88900D03*
X647700Y114300D03*
X647700Y139700D03*
D20*
X309640Y419100D03*
X279640Y419100D03*
X185660Y419100D03*
X215660Y419100D03*
D17*
X73660Y386310D03*
X73660Y421410D03*
D18*
X277090Y381000D03*
X312190Y381000D03*
D21*
X215260Y320040D03*
X262260Y320040D03*
D22*
X147320Y287020D03*
X162560Y287020D03*
X109220Y325120D03*
D23*
X117570Y325120D01*
X119700Y327250D01*
X119700Y320750D01*
X119700Y314250D01*
D22*
X241300Y421640D03*
X307340Y276860D03*
X127000Y165100D03*
X248920Y165100D03*
X248920Y33020D03*
X167640Y406400D03*
X182880Y358140D03*
X137160Y406400D03*
X106680Y406400D03*
X134620Y325120D03*
X147320Y325120D03*
X147320Y309880D03*
X134620Y309880D03*
D24*
X139700Y317500D02*
X147320Y309880D01*
D23*
X119700Y307750D02*
X111350Y307750D01*
X90170Y328930D02*
X88900Y328930D01*
X90170Y328930D02*
X111350Y307750D01*
D22*
X246380Y274320D03*
D23*
X136450Y275030D02*
X136450Y297500D01*
X136450Y275030D02*
X137160Y274320D01*
D25*
X246380Y274320D01*
X76200Y259080D02*
X76200Y241300D01*
X76200Y259080D02*
X91440Y274320D01*
X137160Y274320D01*
D26*
X276860Y274320D03*
D27*
X152400Y132080D02*
X152400Y88900D01*
D22*
X152400Y132080D03*
D27*
X574040Y160250D02*
X609600Y160250D01*
X574040Y160250D02*
X572540Y160250D01*
X571500Y161290D01*
X383540Y241300D02*
X254000Y241300D01*
X383540Y241300D02*
X411480Y269240D01*
X520700Y269240D01*
X535940Y254000D01*
X535940Y177800D01*
X553720Y160020D01*
X573810Y160020D01*
X574040Y160250D01*
X571500Y222250D02*
X608560Y222250D01*
X609600Y221210D01*
X243840Y256540D02*
X228600Y241300D01*
X243840Y256540D02*
X388620Y256540D01*
X408940Y276860D01*
X523240Y276860D02*
X543560Y256540D01*
X543560Y233680D01*
X556260Y220980D01*
X570230Y220980D01*
X571500Y222250D01*
X523240Y276860D02*
X408940Y276860D01*
D28*
X485394Y53340D02*
X460248Y28194D01*
X637540Y53340D02*
X647700Y63500D01*
X637540Y53340D02*
X485394Y53340D01*
D27*
X637310Y228600D02*
X609600Y256310D01*
X637310Y228600D02*
X647700Y228600D01*
X647700Y177800D02*
X627150Y177800D01*
X609600Y195350D01*
D28*
X647700Y114300D02*
X434340Y114300D01*
X401320Y81280D01*
X401320Y60706D01*
X368808Y28194D01*
D27*
X411480Y243840D02*
X426950Y243840D01*
X210820Y226060D02*
X203200Y233680D01*
X203200Y241300D01*
X393700Y226060D02*
X411480Y243840D01*
X393700Y226060D02*
X210820Y226060D01*
X419100Y193040D02*
X426950Y193040D01*
X419100Y193040D02*
X391160Y220980D01*
X185420Y220980D02*
X177800Y228600D01*
X177800Y241300D01*
X185420Y220980D02*
X391160Y220980D01*
D23*
X160110Y307340D02*
X159700Y307750D01*
X160110Y307340D02*
X167640Y307340D01*
X177800Y297180D01*
X177800Y292100D01*
D22*
X177800Y292100D03*
D27*
X462050Y243840D02*
X487680Y243840D01*
X487680Y193040D02*
X462050Y193040D01*
D28*
X183350Y421410D02*
X73660Y421410D01*
X183350Y421410D02*
X185660Y419100D01*
D24*
X309640Y419100D02*
X309640Y383550D01*
X312190Y381000D01*
M02*
