G04 EAGLE Gerber RS-274X export*
G75*
%MOMM*%
%FSLAX34Y34*%
%LPD*%
%INBottom Copper*%
%IPPOS*%
%AMOC8*
5,1,8,0,0,1.08239X$1,22.5*%
G01*
%ADD10C,1.879600*%
%ADD11R,0.600000X2.200000*%
%ADD12C,2.184400*%
%ADD13R,1.270000X2.060000*%
%ADD14R,2.060000X1.270000*%
%ADD15R,1.408000X1.408000*%
%ADD16R,2.032000X1.270000*%
%ADD17C,0.756400*%
%ADD18C,0.304800*%
%ADD19P,0.818720X8X22.500000*%
%ADD20C,0.254000*%
%ADD21C,0.152400*%
%ADD22C,0.200000*%

G36*
X654242Y10172D02*
X654242Y10172D01*
X654314Y10174D01*
X654363Y10192D01*
X654414Y10200D01*
X654478Y10234D01*
X654545Y10259D01*
X654586Y10291D01*
X654632Y10316D01*
X654681Y10368D01*
X654737Y10412D01*
X654765Y10456D01*
X654801Y10494D01*
X654831Y10559D01*
X654870Y10619D01*
X654883Y10670D01*
X654905Y10717D01*
X654913Y10788D01*
X654930Y10858D01*
X654926Y10910D01*
X654932Y10961D01*
X654916Y11032D01*
X654911Y11103D01*
X654891Y11151D01*
X654879Y11202D01*
X654843Y11263D01*
X654815Y11329D01*
X654770Y11385D01*
X654753Y11413D01*
X654735Y11428D01*
X654710Y11460D01*
X653720Y12450D01*
X650239Y20853D01*
X650239Y29947D01*
X653720Y38350D01*
X660150Y44780D01*
X668553Y48261D01*
X677647Y48261D01*
X686050Y44780D01*
X686840Y43990D01*
X686898Y43948D01*
X686950Y43899D01*
X686997Y43877D01*
X687039Y43847D01*
X687108Y43826D01*
X687173Y43795D01*
X687225Y43790D01*
X687275Y43774D01*
X687346Y43776D01*
X687417Y43768D01*
X687468Y43779D01*
X687520Y43781D01*
X687588Y43805D01*
X687658Y43821D01*
X687703Y43847D01*
X687751Y43865D01*
X687807Y43910D01*
X687869Y43947D01*
X687903Y43986D01*
X687943Y44019D01*
X687982Y44079D01*
X688029Y44134D01*
X688048Y44182D01*
X688076Y44226D01*
X688094Y44295D01*
X688121Y44362D01*
X688129Y44433D01*
X688137Y44464D01*
X688135Y44488D01*
X688139Y44529D01*
X688139Y397431D01*
X688128Y397502D01*
X688126Y397574D01*
X688108Y397623D01*
X688100Y397674D01*
X688066Y397738D01*
X688041Y397805D01*
X688009Y397846D01*
X687984Y397892D01*
X687932Y397941D01*
X687888Y397997D01*
X687844Y398025D01*
X687806Y398061D01*
X687741Y398091D01*
X687681Y398130D01*
X687630Y398143D01*
X687583Y398165D01*
X687512Y398173D01*
X687442Y398190D01*
X687390Y398186D01*
X687339Y398192D01*
X687268Y398176D01*
X687197Y398171D01*
X687149Y398151D01*
X687098Y398139D01*
X687037Y398103D01*
X686971Y398075D01*
X686915Y398030D01*
X686887Y398013D01*
X686872Y397995D01*
X686840Y397970D01*
X686050Y397180D01*
X677647Y393699D01*
X668553Y393699D01*
X660150Y397180D01*
X653720Y403610D01*
X650239Y412013D01*
X650239Y421107D01*
X653720Y429510D01*
X653950Y429740D01*
X653992Y429798D01*
X654041Y429850D01*
X654063Y429897D01*
X654093Y429939D01*
X654114Y430008D01*
X654145Y430073D01*
X654150Y430125D01*
X654166Y430175D01*
X654164Y430246D01*
X654172Y430317D01*
X654161Y430368D01*
X654159Y430420D01*
X654135Y430488D01*
X654119Y430558D01*
X654093Y430603D01*
X654075Y430651D01*
X654030Y430707D01*
X653993Y430769D01*
X653954Y430803D01*
X653921Y430843D01*
X653861Y430882D01*
X653806Y430929D01*
X653758Y430948D01*
X653714Y430976D01*
X653645Y430994D01*
X653578Y431021D01*
X653507Y431029D01*
X653476Y431037D01*
X653452Y431035D01*
X653411Y431039D01*
X45089Y431039D01*
X45018Y431028D01*
X44946Y431026D01*
X44897Y431008D01*
X44846Y431000D01*
X44782Y430966D01*
X44715Y430941D01*
X44674Y430909D01*
X44628Y430884D01*
X44579Y430833D01*
X44523Y430788D01*
X44495Y430744D01*
X44459Y430706D01*
X44429Y430641D01*
X44390Y430581D01*
X44377Y430530D01*
X44355Y430483D01*
X44347Y430412D01*
X44330Y430342D01*
X44334Y430290D01*
X44328Y430239D01*
X44344Y430168D01*
X44349Y430097D01*
X44369Y430049D01*
X44381Y429998D01*
X44417Y429937D01*
X44445Y429871D01*
X44490Y429815D01*
X44507Y429787D01*
X44525Y429772D01*
X44550Y429740D01*
X44780Y429510D01*
X48261Y421107D01*
X48261Y412013D01*
X44780Y403610D01*
X38350Y397180D01*
X29947Y393699D01*
X20853Y393699D01*
X12450Y397180D01*
X11460Y398170D01*
X11402Y398212D01*
X11350Y398261D01*
X11303Y398283D01*
X11261Y398313D01*
X11192Y398334D01*
X11127Y398365D01*
X11075Y398370D01*
X11025Y398386D01*
X10954Y398384D01*
X10883Y398392D01*
X10832Y398381D01*
X10780Y398379D01*
X10712Y398355D01*
X10642Y398339D01*
X10597Y398313D01*
X10549Y398295D01*
X10493Y398250D01*
X10431Y398213D01*
X10397Y398174D01*
X10357Y398141D01*
X10318Y398081D01*
X10271Y398026D01*
X10252Y397978D01*
X10224Y397934D01*
X10206Y397865D01*
X10179Y397798D01*
X10171Y397727D01*
X10163Y397696D01*
X10165Y397672D01*
X10161Y397631D01*
X10161Y231851D01*
X10172Y231780D01*
X10174Y231708D01*
X10192Y231659D01*
X10200Y231608D01*
X10234Y231545D01*
X10259Y231477D01*
X10291Y231437D01*
X10316Y231391D01*
X10368Y231341D01*
X10412Y231285D01*
X10456Y231257D01*
X10494Y231221D01*
X10559Y231191D01*
X10619Y231152D01*
X10670Y231140D01*
X10717Y231118D01*
X10788Y231110D01*
X10858Y231092D01*
X10910Y231096D01*
X10961Y231091D01*
X11032Y231106D01*
X11103Y231111D01*
X11151Y231132D01*
X11202Y231143D01*
X11263Y231180D01*
X11329Y231208D01*
X11385Y231253D01*
X11413Y231269D01*
X11428Y231287D01*
X11460Y231313D01*
X16612Y236465D01*
X16665Y236539D01*
X16725Y236608D01*
X16737Y236638D01*
X16756Y236664D01*
X16783Y236751D01*
X16795Y236782D01*
X16807Y236808D01*
X16808Y236814D01*
X16817Y236836D01*
X16821Y236877D01*
X16828Y236899D01*
X16827Y236932D01*
X16835Y237003D01*
X16835Y248972D01*
X17728Y249865D01*
X33072Y249865D01*
X33965Y248972D01*
X33965Y233628D01*
X33072Y232735D01*
X21103Y232735D01*
X21013Y232721D01*
X20922Y232713D01*
X20892Y232701D01*
X20860Y232696D01*
X20780Y232653D01*
X20696Y232617D01*
X20664Y232591D01*
X20643Y232580D01*
X20621Y232557D01*
X20565Y232512D01*
X14448Y226395D01*
X14395Y226321D01*
X14335Y226252D01*
X14323Y226222D01*
X14304Y226196D01*
X14277Y226109D01*
X14243Y226024D01*
X14239Y225983D01*
X14232Y225961D01*
X14233Y225928D01*
X14225Y225857D01*
X14225Y70053D01*
X14239Y69963D01*
X14247Y69872D01*
X14259Y69842D01*
X14264Y69810D01*
X14307Y69730D01*
X14343Y69646D01*
X14369Y69614D01*
X14380Y69593D01*
X14403Y69571D01*
X14448Y69515D01*
X27605Y56358D01*
X27679Y56305D01*
X27748Y56245D01*
X27778Y56233D01*
X27804Y56214D01*
X27891Y56187D01*
X27976Y56153D01*
X28017Y56149D01*
X28039Y56142D01*
X28072Y56143D01*
X28143Y56135D01*
X94261Y56135D01*
X94271Y56136D01*
X94287Y56135D01*
X95440Y56175D01*
X96256Y55360D01*
X96264Y55354D01*
X96275Y55341D01*
X120702Y32556D01*
X120788Y32499D01*
X120872Y32437D01*
X120890Y32431D01*
X120907Y32420D01*
X121007Y32393D01*
X121106Y32361D01*
X121125Y32361D01*
X121144Y32356D01*
X121247Y32362D01*
X121351Y32363D01*
X121375Y32370D01*
X121390Y32371D01*
X121419Y32383D01*
X121513Y32410D01*
X124827Y33783D01*
X129173Y33783D01*
X133187Y32120D01*
X136260Y29047D01*
X137923Y25033D01*
X137923Y20687D01*
X136260Y16673D01*
X133187Y13600D01*
X129173Y11937D01*
X124827Y11937D01*
X120813Y13600D01*
X117740Y16673D01*
X116077Y20687D01*
X116077Y25033D01*
X117128Y27570D01*
X117130Y27577D01*
X117134Y27583D01*
X117158Y27697D01*
X117184Y27809D01*
X117184Y27816D01*
X117185Y27823D01*
X117172Y27939D01*
X117161Y28054D01*
X117158Y28061D01*
X117158Y28068D01*
X117108Y28173D01*
X117061Y28279D01*
X117057Y28284D01*
X117054Y28291D01*
X116944Y28418D01*
X93441Y50341D01*
X93376Y50384D01*
X93317Y50435D01*
X93275Y50452D01*
X93237Y50477D01*
X93161Y50498D01*
X93089Y50527D01*
X93028Y50534D01*
X92999Y50541D01*
X92972Y50540D01*
X92922Y50545D01*
X25512Y50545D01*
X23652Y52405D01*
X11460Y64597D01*
X11402Y64639D01*
X11350Y64689D01*
X11303Y64711D01*
X11261Y64741D01*
X11192Y64762D01*
X11127Y64792D01*
X11075Y64798D01*
X11025Y64813D01*
X10954Y64811D01*
X10883Y64819D01*
X10832Y64808D01*
X10780Y64807D01*
X10712Y64782D01*
X10642Y64767D01*
X10597Y64740D01*
X10549Y64722D01*
X10493Y64678D01*
X10431Y64641D01*
X10397Y64601D01*
X10357Y64569D01*
X10318Y64508D01*
X10271Y64454D01*
X10252Y64406D01*
X10224Y64362D01*
X10206Y64292D01*
X10179Y64226D01*
X10171Y64154D01*
X10163Y64123D01*
X10165Y64100D01*
X10161Y64059D01*
X10161Y44329D01*
X10172Y44258D01*
X10174Y44186D01*
X10192Y44137D01*
X10200Y44086D01*
X10234Y44022D01*
X10259Y43955D01*
X10291Y43914D01*
X10316Y43868D01*
X10368Y43819D01*
X10412Y43763D01*
X10456Y43735D01*
X10494Y43699D01*
X10559Y43669D01*
X10619Y43630D01*
X10670Y43617D01*
X10717Y43595D01*
X10788Y43587D01*
X10858Y43570D01*
X10910Y43574D01*
X10961Y43568D01*
X11032Y43584D01*
X11103Y43589D01*
X11151Y43609D01*
X11202Y43621D01*
X11263Y43657D01*
X11329Y43685D01*
X11385Y43730D01*
X11413Y43747D01*
X11428Y43765D01*
X11460Y43790D01*
X12450Y44780D01*
X20853Y48261D01*
X29947Y48261D01*
X38350Y44780D01*
X44780Y38350D01*
X48261Y29947D01*
X48261Y20853D01*
X44780Y12450D01*
X43790Y11460D01*
X43748Y11402D01*
X43699Y11350D01*
X43677Y11303D01*
X43647Y11261D01*
X43626Y11192D01*
X43595Y11127D01*
X43590Y11075D01*
X43574Y11025D01*
X43576Y10954D01*
X43568Y10883D01*
X43579Y10832D01*
X43581Y10780D01*
X43605Y10712D01*
X43621Y10642D01*
X43647Y10597D01*
X43665Y10549D01*
X43710Y10493D01*
X43747Y10431D01*
X43786Y10397D01*
X43819Y10357D01*
X43879Y10318D01*
X43934Y10271D01*
X43982Y10252D01*
X44026Y10224D01*
X44095Y10206D01*
X44162Y10179D01*
X44233Y10171D01*
X44264Y10163D01*
X44288Y10165D01*
X44329Y10161D01*
X654171Y10161D01*
X654242Y10172D01*
G37*
%LPC*%
G36*
X383118Y236675D02*
X383118Y236675D01*
X382225Y237568D01*
X382225Y260832D01*
X383118Y261725D01*
X383464Y261725D01*
X383484Y261728D01*
X383503Y261726D01*
X383605Y261748D01*
X383707Y261764D01*
X383724Y261774D01*
X383744Y261778D01*
X383833Y261831D01*
X383924Y261880D01*
X383938Y261894D01*
X383955Y261904D01*
X384022Y261983D01*
X384094Y262058D01*
X384102Y262076D01*
X384115Y262091D01*
X384154Y262187D01*
X384197Y262281D01*
X384199Y262301D01*
X384207Y262319D01*
X384225Y262486D01*
X384225Y291276D01*
X392654Y299705D01*
X412659Y299705D01*
X412749Y299719D01*
X412840Y299727D01*
X412870Y299739D01*
X412902Y299744D01*
X412982Y299787D01*
X413066Y299823D01*
X413098Y299849D01*
X413119Y299860D01*
X413141Y299883D01*
X413197Y299928D01*
X416352Y303083D01*
X416405Y303157D01*
X416465Y303226D01*
X416477Y303256D01*
X416496Y303283D01*
X416523Y303370D01*
X416557Y303454D01*
X416561Y303495D01*
X416568Y303518D01*
X416567Y303550D01*
X416575Y303621D01*
X416575Y304014D01*
X416573Y304029D01*
X416574Y304043D01*
X416573Y304046D01*
X416574Y304053D01*
X416552Y304155D01*
X416536Y304257D01*
X416526Y304274D01*
X416522Y304294D01*
X416469Y304383D01*
X416420Y304474D01*
X416406Y304488D01*
X416396Y304505D01*
X416317Y304572D01*
X416242Y304644D01*
X416224Y304652D01*
X416209Y304665D01*
X416113Y304704D01*
X416019Y304747D01*
X415999Y304749D01*
X415981Y304757D01*
X415814Y304775D01*
X408168Y304775D01*
X407275Y305668D01*
X407275Y319632D01*
X408168Y320525D01*
X430032Y320525D01*
X430925Y319632D01*
X430925Y305668D01*
X430032Y304775D01*
X422386Y304775D01*
X422366Y304772D01*
X422347Y304774D01*
X422245Y304752D01*
X422143Y304736D01*
X422126Y304726D01*
X422106Y304722D01*
X422017Y304669D01*
X421926Y304620D01*
X421912Y304606D01*
X421895Y304596D01*
X421828Y304517D01*
X421756Y304442D01*
X421748Y304424D01*
X421735Y304409D01*
X421696Y304313D01*
X421653Y304219D01*
X421651Y304199D01*
X421643Y304181D01*
X421625Y304014D01*
X421625Y301214D01*
X419923Y299512D01*
X416335Y295924D01*
X416293Y295866D01*
X416244Y295814D01*
X416222Y295767D01*
X416191Y295725D01*
X416170Y295656D01*
X416140Y295591D01*
X416134Y295539D01*
X416119Y295489D01*
X416121Y295418D01*
X416113Y295347D01*
X416124Y295296D01*
X416125Y295244D01*
X416150Y295176D01*
X416165Y295106D01*
X416192Y295061D01*
X416210Y295013D01*
X416255Y294957D01*
X416291Y294895D01*
X416331Y294861D01*
X416363Y294821D01*
X416424Y294782D01*
X416478Y294735D01*
X416527Y294716D01*
X416570Y294688D01*
X416640Y294670D01*
X416706Y294643D01*
X416778Y294635D01*
X416809Y294627D01*
X416832Y294629D01*
X416873Y294625D01*
X450759Y294625D01*
X450849Y294639D01*
X450940Y294647D01*
X450970Y294659D01*
X451002Y294664D01*
X451082Y294707D01*
X451166Y294743D01*
X451198Y294769D01*
X451219Y294780D01*
X451241Y294803D01*
X451297Y294848D01*
X454452Y298003D01*
X454505Y298077D01*
X454565Y298146D01*
X454577Y298176D01*
X454596Y298203D01*
X454623Y298290D01*
X454657Y298374D01*
X454661Y298415D01*
X454668Y298438D01*
X454667Y298470D01*
X454675Y298541D01*
X454675Y304014D01*
X454673Y304029D01*
X454674Y304043D01*
X454673Y304046D01*
X454674Y304053D01*
X454652Y304155D01*
X454636Y304257D01*
X454626Y304274D01*
X454622Y304294D01*
X454569Y304383D01*
X454520Y304474D01*
X454506Y304488D01*
X454496Y304505D01*
X454417Y304572D01*
X454342Y304644D01*
X454324Y304652D01*
X454309Y304665D01*
X454213Y304704D01*
X454119Y304747D01*
X454099Y304749D01*
X454081Y304757D01*
X453914Y304775D01*
X446268Y304775D01*
X445375Y305668D01*
X445375Y319632D01*
X446268Y320525D01*
X468132Y320525D01*
X469025Y319632D01*
X469025Y305668D01*
X468132Y304775D01*
X460486Y304775D01*
X460466Y304772D01*
X460447Y304774D01*
X460345Y304752D01*
X460243Y304736D01*
X460226Y304726D01*
X460206Y304722D01*
X460117Y304669D01*
X460026Y304620D01*
X460012Y304606D01*
X459995Y304596D01*
X459928Y304517D01*
X459856Y304442D01*
X459848Y304424D01*
X459835Y304409D01*
X459796Y304313D01*
X459753Y304219D01*
X459751Y304199D01*
X459743Y304181D01*
X459725Y304014D01*
X459725Y296134D01*
X454868Y291277D01*
X454435Y290844D01*
X454393Y290786D01*
X454344Y290734D01*
X454322Y290687D01*
X454291Y290645D01*
X454270Y290576D01*
X454240Y290511D01*
X454234Y290459D01*
X454219Y290409D01*
X454221Y290338D01*
X454213Y290267D01*
X454224Y290216D01*
X454225Y290164D01*
X454250Y290096D01*
X454265Y290026D01*
X454292Y289981D01*
X454310Y289933D01*
X454354Y289877D01*
X454391Y289815D01*
X454431Y289781D01*
X454463Y289741D01*
X454524Y289702D01*
X454578Y289655D01*
X454627Y289636D01*
X454670Y289608D01*
X454740Y289590D01*
X454806Y289563D01*
X454878Y289555D01*
X454909Y289547D01*
X454932Y289549D01*
X454973Y289545D01*
X488859Y289545D01*
X488949Y289559D01*
X489040Y289567D01*
X489070Y289579D01*
X489102Y289584D01*
X489182Y289627D01*
X489266Y289663D01*
X489298Y289689D01*
X489319Y289700D01*
X489341Y289723D01*
X489397Y289768D01*
X492552Y292923D01*
X492605Y292997D01*
X492665Y293066D01*
X492677Y293096D01*
X492696Y293123D01*
X492723Y293210D01*
X492757Y293294D01*
X492761Y293335D01*
X492768Y293358D01*
X492767Y293390D01*
X492775Y293461D01*
X492775Y304014D01*
X492773Y304029D01*
X492774Y304043D01*
X492773Y304046D01*
X492774Y304053D01*
X492752Y304155D01*
X492736Y304257D01*
X492726Y304274D01*
X492722Y304294D01*
X492669Y304383D01*
X492620Y304474D01*
X492606Y304488D01*
X492596Y304505D01*
X492517Y304572D01*
X492442Y304644D01*
X492424Y304652D01*
X492409Y304665D01*
X492313Y304704D01*
X492219Y304747D01*
X492199Y304749D01*
X492181Y304757D01*
X492014Y304775D01*
X484368Y304775D01*
X483475Y305668D01*
X483475Y319632D01*
X484368Y320525D01*
X506232Y320525D01*
X507125Y319632D01*
X507125Y305668D01*
X506232Y304775D01*
X498586Y304775D01*
X498566Y304772D01*
X498547Y304774D01*
X498445Y304752D01*
X498343Y304736D01*
X498326Y304726D01*
X498306Y304722D01*
X498217Y304669D01*
X498126Y304620D01*
X498112Y304606D01*
X498095Y304596D01*
X498028Y304517D01*
X497956Y304442D01*
X497948Y304424D01*
X497935Y304409D01*
X497896Y304313D01*
X497853Y304219D01*
X497851Y304199D01*
X497843Y304181D01*
X497825Y304014D01*
X497825Y291054D01*
X492968Y286197D01*
X492535Y285764D01*
X492493Y285706D01*
X492444Y285654D01*
X492422Y285607D01*
X492391Y285565D01*
X492370Y285496D01*
X492340Y285431D01*
X492334Y285379D01*
X492319Y285329D01*
X492321Y285258D01*
X492313Y285187D01*
X492324Y285136D01*
X492325Y285084D01*
X492350Y285016D01*
X492365Y284946D01*
X492392Y284901D01*
X492410Y284853D01*
X492454Y284797D01*
X492491Y284735D01*
X492531Y284701D01*
X492563Y284661D01*
X492624Y284622D01*
X492678Y284575D01*
X492727Y284556D01*
X492770Y284528D01*
X492840Y284510D01*
X492906Y284483D01*
X492978Y284475D01*
X493009Y284467D01*
X493032Y284469D01*
X493073Y284465D01*
X493939Y284465D01*
X494029Y284479D01*
X494120Y284487D01*
X494150Y284499D01*
X494182Y284504D01*
X494262Y284547D01*
X494346Y284583D01*
X494378Y284609D01*
X494399Y284620D01*
X494421Y284643D01*
X494477Y284688D01*
X506954Y297165D01*
X530114Y297165D01*
X530134Y297168D01*
X530153Y297166D01*
X530255Y297188D01*
X530357Y297204D01*
X530374Y297214D01*
X530394Y297218D01*
X530483Y297271D01*
X530574Y297320D01*
X530588Y297334D01*
X530605Y297344D01*
X530672Y297423D01*
X530744Y297498D01*
X530752Y297516D01*
X530765Y297531D01*
X530804Y297627D01*
X530847Y297721D01*
X530849Y297741D01*
X530857Y297759D01*
X530875Y297926D01*
X530875Y304014D01*
X530873Y304029D01*
X530874Y304043D01*
X530873Y304046D01*
X530874Y304053D01*
X530852Y304155D01*
X530836Y304257D01*
X530826Y304274D01*
X530822Y304294D01*
X530769Y304383D01*
X530720Y304474D01*
X530706Y304488D01*
X530696Y304505D01*
X530617Y304572D01*
X530542Y304644D01*
X530524Y304652D01*
X530509Y304665D01*
X530413Y304704D01*
X530319Y304747D01*
X530299Y304749D01*
X530281Y304757D01*
X530114Y304775D01*
X522468Y304775D01*
X521575Y305668D01*
X521575Y319632D01*
X522468Y320525D01*
X544332Y320525D01*
X545225Y319632D01*
X545225Y305668D01*
X544332Y304775D01*
X536686Y304775D01*
X536666Y304772D01*
X536647Y304774D01*
X536545Y304752D01*
X536443Y304736D01*
X536426Y304726D01*
X536406Y304722D01*
X536317Y304669D01*
X536226Y304620D01*
X536212Y304606D01*
X536195Y304596D01*
X536128Y304517D01*
X536056Y304442D01*
X536048Y304424D01*
X536035Y304409D01*
X535996Y304313D01*
X535953Y304219D01*
X535951Y304199D01*
X535943Y304181D01*
X535925Y304014D01*
X535925Y293594D01*
X535715Y293384D01*
X535673Y293326D01*
X535624Y293274D01*
X535602Y293227D01*
X535571Y293185D01*
X535550Y293116D01*
X535520Y293051D01*
X535514Y292999D01*
X535499Y292949D01*
X535501Y292878D01*
X535493Y292807D01*
X535504Y292756D01*
X535505Y292704D01*
X535530Y292636D01*
X535545Y292566D01*
X535572Y292521D01*
X535590Y292473D01*
X535634Y292417D01*
X535671Y292355D01*
X535711Y292321D01*
X535743Y292281D01*
X535804Y292242D01*
X535858Y292195D01*
X535907Y292176D01*
X535950Y292148D01*
X536020Y292130D01*
X536086Y292103D01*
X536158Y292095D01*
X536189Y292087D01*
X536212Y292089D01*
X536253Y292085D01*
X565059Y292085D01*
X565149Y292099D01*
X565240Y292107D01*
X565270Y292119D01*
X565302Y292124D01*
X565382Y292167D01*
X565466Y292203D01*
X565498Y292229D01*
X565519Y292240D01*
X565541Y292263D01*
X565597Y292308D01*
X568752Y295463D01*
X568805Y295537D01*
X568865Y295606D01*
X568877Y295636D01*
X568896Y295663D01*
X568923Y295750D01*
X568957Y295834D01*
X568961Y295875D01*
X568968Y295898D01*
X568967Y295930D01*
X568975Y296001D01*
X568975Y304014D01*
X568973Y304029D01*
X568974Y304043D01*
X568973Y304046D01*
X568974Y304053D01*
X568952Y304155D01*
X568936Y304257D01*
X568926Y304274D01*
X568922Y304294D01*
X568869Y304383D01*
X568820Y304474D01*
X568806Y304488D01*
X568796Y304505D01*
X568717Y304572D01*
X568642Y304644D01*
X568624Y304652D01*
X568609Y304665D01*
X568513Y304704D01*
X568419Y304747D01*
X568399Y304749D01*
X568381Y304757D01*
X568214Y304775D01*
X560568Y304775D01*
X559675Y305668D01*
X559675Y319632D01*
X560568Y320525D01*
X582432Y320525D01*
X583325Y319632D01*
X583325Y305668D01*
X582432Y304775D01*
X574786Y304775D01*
X574766Y304772D01*
X574747Y304774D01*
X574645Y304752D01*
X574543Y304736D01*
X574526Y304726D01*
X574506Y304722D01*
X574417Y304669D01*
X574326Y304620D01*
X574312Y304606D01*
X574295Y304596D01*
X574228Y304517D01*
X574156Y304442D01*
X574148Y304424D01*
X574135Y304409D01*
X574096Y304313D01*
X574053Y304219D01*
X574051Y304199D01*
X574043Y304181D01*
X574025Y304014D01*
X574025Y293594D01*
X569168Y288737D01*
X568735Y288304D01*
X568693Y288246D01*
X568644Y288194D01*
X568622Y288147D01*
X568591Y288105D01*
X568570Y288036D01*
X568540Y287971D01*
X568534Y287919D01*
X568519Y287869D01*
X568521Y287798D01*
X568513Y287727D01*
X568524Y287676D01*
X568525Y287624D01*
X568550Y287556D01*
X568565Y287486D01*
X568592Y287441D01*
X568610Y287393D01*
X568654Y287337D01*
X568691Y287275D01*
X568731Y287241D01*
X568763Y287201D01*
X568824Y287162D01*
X568878Y287115D01*
X568927Y287096D01*
X568970Y287068D01*
X569040Y287050D01*
X569106Y287023D01*
X569178Y287015D01*
X569209Y287007D01*
X569232Y287009D01*
X569273Y287005D01*
X572679Y287005D01*
X572769Y287019D01*
X572860Y287027D01*
X572890Y287039D01*
X572922Y287044D01*
X573002Y287087D01*
X573086Y287123D01*
X573118Y287149D01*
X573139Y287160D01*
X573161Y287183D01*
X573217Y287228D01*
X583154Y297165D01*
X603159Y297165D01*
X603249Y297179D01*
X603340Y297187D01*
X603370Y297199D01*
X603402Y297204D01*
X603482Y297247D01*
X603566Y297283D01*
X603598Y297309D01*
X603619Y297320D01*
X603641Y297343D01*
X603697Y297388D01*
X606852Y300543D01*
X606905Y300617D01*
X606965Y300686D01*
X606977Y300716D01*
X606996Y300743D01*
X607023Y300830D01*
X607057Y300914D01*
X607061Y300955D01*
X607068Y300978D01*
X607067Y301010D01*
X607075Y301081D01*
X607075Y304014D01*
X607073Y304029D01*
X607074Y304043D01*
X607073Y304046D01*
X607074Y304053D01*
X607052Y304155D01*
X607036Y304257D01*
X607026Y304274D01*
X607022Y304294D01*
X606969Y304383D01*
X606920Y304474D01*
X606906Y304488D01*
X606896Y304505D01*
X606817Y304572D01*
X606742Y304644D01*
X606724Y304652D01*
X606709Y304665D01*
X606613Y304704D01*
X606519Y304747D01*
X606499Y304749D01*
X606481Y304757D01*
X606314Y304775D01*
X598668Y304775D01*
X597775Y305668D01*
X597775Y319632D01*
X598668Y320525D01*
X620532Y320525D01*
X621425Y319632D01*
X621425Y305668D01*
X620532Y304775D01*
X612886Y304775D01*
X612866Y304772D01*
X612847Y304774D01*
X612745Y304752D01*
X612643Y304736D01*
X612626Y304726D01*
X612606Y304722D01*
X612517Y304669D01*
X612426Y304620D01*
X612412Y304606D01*
X612395Y304596D01*
X612328Y304517D01*
X612256Y304442D01*
X612248Y304424D01*
X612235Y304409D01*
X612196Y304313D01*
X612153Y304219D01*
X612151Y304199D01*
X612143Y304181D01*
X612125Y304014D01*
X612125Y298674D01*
X610423Y296972D01*
X605566Y292115D01*
X585561Y292115D01*
X585471Y292101D01*
X585380Y292093D01*
X585350Y292081D01*
X585318Y292076D01*
X585238Y292033D01*
X585154Y291997D01*
X585122Y291971D01*
X585101Y291960D01*
X585079Y291937D01*
X585023Y291892D01*
X575086Y281955D01*
X519521Y281955D01*
X519431Y281941D01*
X519340Y281933D01*
X519310Y281921D01*
X519278Y281916D01*
X519198Y281873D01*
X519114Y281837D01*
X519082Y281811D01*
X519061Y281800D01*
X519039Y281777D01*
X518983Y281732D01*
X506506Y269255D01*
X458561Y269255D01*
X458471Y269241D01*
X458380Y269233D01*
X458350Y269221D01*
X458318Y269216D01*
X458238Y269173D01*
X458154Y269137D01*
X458122Y269111D01*
X458101Y269100D01*
X458079Y269077D01*
X458023Y269032D01*
X453298Y264307D01*
X453245Y264233D01*
X453185Y264164D01*
X453173Y264134D01*
X453154Y264107D01*
X453127Y264020D01*
X453093Y263936D01*
X453089Y263895D01*
X453082Y263872D01*
X453083Y263840D01*
X453075Y263769D01*
X453075Y262486D01*
X453078Y262466D01*
X453076Y262447D01*
X453098Y262345D01*
X453114Y262243D01*
X453124Y262226D01*
X453128Y262206D01*
X453181Y262117D01*
X453230Y262026D01*
X453244Y262012D01*
X453254Y261995D01*
X453333Y261928D01*
X453408Y261856D01*
X453426Y261848D01*
X453441Y261835D01*
X453537Y261796D01*
X453631Y261753D01*
X453651Y261751D01*
X453669Y261743D01*
X453836Y261725D01*
X454182Y261725D01*
X455075Y260832D01*
X455075Y237568D01*
X454182Y236675D01*
X446918Y236675D01*
X446025Y237568D01*
X446025Y260832D01*
X446918Y261725D01*
X447264Y261725D01*
X447284Y261728D01*
X447303Y261726D01*
X447405Y261748D01*
X447507Y261764D01*
X447524Y261774D01*
X447544Y261778D01*
X447633Y261831D01*
X447724Y261880D01*
X447738Y261894D01*
X447755Y261904D01*
X447822Y261983D01*
X447894Y262058D01*
X447902Y262076D01*
X447915Y262091D01*
X447954Y262187D01*
X447997Y262281D01*
X447999Y262301D01*
X448007Y262319D01*
X448025Y262486D01*
X448025Y266176D01*
X454452Y272603D01*
X454885Y273036D01*
X454927Y273094D01*
X454976Y273146D01*
X454998Y273193D01*
X455029Y273235D01*
X455050Y273304D01*
X455080Y273369D01*
X455086Y273421D01*
X455101Y273471D01*
X455099Y273542D01*
X455107Y273613D01*
X455096Y273664D01*
X455095Y273716D01*
X455070Y273784D01*
X455055Y273854D01*
X455028Y273899D01*
X455010Y273947D01*
X454966Y274003D01*
X454929Y274065D01*
X454889Y274099D01*
X454857Y274139D01*
X454796Y274178D01*
X454742Y274225D01*
X454693Y274244D01*
X454650Y274272D01*
X454580Y274290D01*
X454514Y274317D01*
X454442Y274325D01*
X454411Y274333D01*
X454388Y274331D01*
X454347Y274335D01*
X445861Y274335D01*
X445771Y274321D01*
X445680Y274313D01*
X445650Y274301D01*
X445618Y274296D01*
X445538Y274253D01*
X445454Y274217D01*
X445422Y274191D01*
X445401Y274180D01*
X445382Y274161D01*
X445380Y274160D01*
X445374Y274154D01*
X445323Y274112D01*
X440298Y269087D01*
X440245Y269013D01*
X440185Y268944D01*
X440173Y268914D01*
X440154Y268887D01*
X440127Y268800D01*
X440093Y268716D01*
X440089Y268675D01*
X440082Y268652D01*
X440083Y268620D01*
X440075Y268549D01*
X440075Y262486D01*
X440078Y262466D01*
X440076Y262447D01*
X440098Y262345D01*
X440114Y262243D01*
X440124Y262226D01*
X440128Y262206D01*
X440181Y262117D01*
X440230Y262026D01*
X440244Y262012D01*
X440254Y261995D01*
X440333Y261928D01*
X440408Y261856D01*
X440426Y261848D01*
X440441Y261835D01*
X440537Y261796D01*
X440631Y261753D01*
X440651Y261751D01*
X440669Y261743D01*
X440836Y261725D01*
X441182Y261725D01*
X442075Y260832D01*
X442075Y237568D01*
X441182Y236675D01*
X433918Y236675D01*
X433025Y237568D01*
X433025Y260832D01*
X433918Y261725D01*
X434264Y261725D01*
X434284Y261728D01*
X434303Y261726D01*
X434405Y261748D01*
X434507Y261764D01*
X434524Y261774D01*
X434544Y261778D01*
X434633Y261831D01*
X434724Y261880D01*
X434738Y261894D01*
X434755Y261904D01*
X434822Y261983D01*
X434894Y262058D01*
X434902Y262076D01*
X434915Y262091D01*
X434954Y262187D01*
X434997Y262281D01*
X434999Y262301D01*
X435007Y262319D01*
X435025Y262486D01*
X435025Y270956D01*
X441752Y277683D01*
X442185Y278116D01*
X442227Y278174D01*
X442276Y278226D01*
X442298Y278273D01*
X442329Y278315D01*
X442350Y278384D01*
X442380Y278449D01*
X442386Y278501D01*
X442401Y278551D01*
X442399Y278622D01*
X442407Y278693D01*
X442396Y278744D01*
X442395Y278796D01*
X442370Y278864D01*
X442355Y278934D01*
X442328Y278979D01*
X442310Y279027D01*
X442266Y279083D01*
X442229Y279145D01*
X442189Y279179D01*
X442157Y279219D01*
X442096Y279258D01*
X442042Y279305D01*
X441993Y279324D01*
X441950Y279352D01*
X441880Y279370D01*
X441814Y279397D01*
X441742Y279405D01*
X441711Y279413D01*
X441688Y279411D01*
X441647Y279415D01*
X433161Y279415D01*
X433071Y279401D01*
X432980Y279393D01*
X432950Y279381D01*
X432918Y279376D01*
X432838Y279333D01*
X432754Y279297D01*
X432722Y279271D01*
X432701Y279260D01*
X432679Y279237D01*
X432623Y279192D01*
X427598Y274167D01*
X427545Y274093D01*
X427485Y274024D01*
X427473Y273994D01*
X427454Y273967D01*
X427427Y273880D01*
X427393Y273796D01*
X427389Y273755D01*
X427382Y273732D01*
X427383Y273700D01*
X427375Y273629D01*
X427375Y262486D01*
X427378Y262466D01*
X427376Y262447D01*
X427398Y262345D01*
X427414Y262243D01*
X427424Y262226D01*
X427428Y262206D01*
X427481Y262117D01*
X427530Y262026D01*
X427544Y262012D01*
X427554Y261995D01*
X427633Y261928D01*
X427708Y261856D01*
X427726Y261848D01*
X427741Y261835D01*
X427837Y261796D01*
X427931Y261753D01*
X427951Y261751D01*
X427969Y261743D01*
X428136Y261725D01*
X428482Y261725D01*
X429375Y260832D01*
X429375Y237568D01*
X428482Y236675D01*
X421218Y236675D01*
X420325Y237568D01*
X420325Y260832D01*
X421218Y261725D01*
X421564Y261725D01*
X421584Y261728D01*
X421603Y261726D01*
X421705Y261748D01*
X421807Y261764D01*
X421824Y261774D01*
X421844Y261778D01*
X421933Y261831D01*
X422024Y261880D01*
X422038Y261894D01*
X422055Y261904D01*
X422122Y261983D01*
X422194Y262058D01*
X422202Y262076D01*
X422215Y262091D01*
X422254Y262187D01*
X422297Y262281D01*
X422299Y262301D01*
X422307Y262319D01*
X422325Y262486D01*
X422325Y276036D01*
X429052Y282763D01*
X429485Y283196D01*
X429527Y283254D01*
X429576Y283306D01*
X429598Y283353D01*
X429629Y283395D01*
X429650Y283464D01*
X429680Y283529D01*
X429686Y283581D01*
X429701Y283631D01*
X429699Y283702D01*
X429707Y283773D01*
X429696Y283824D01*
X429695Y283876D01*
X429670Y283944D01*
X429655Y284014D01*
X429628Y284059D01*
X429610Y284107D01*
X429566Y284163D01*
X429529Y284225D01*
X429489Y284259D01*
X429457Y284299D01*
X429396Y284338D01*
X429342Y284385D01*
X429293Y284404D01*
X429250Y284432D01*
X429180Y284450D01*
X429114Y284477D01*
X429042Y284485D01*
X429011Y284493D01*
X428988Y284491D01*
X428947Y284495D01*
X420461Y284495D01*
X420371Y284481D01*
X420280Y284473D01*
X420250Y284461D01*
X420218Y284456D01*
X420138Y284413D01*
X420054Y284377D01*
X420022Y284351D01*
X420001Y284340D01*
X419979Y284317D01*
X419923Y284272D01*
X414898Y279247D01*
X414845Y279173D01*
X414785Y279104D01*
X414773Y279074D01*
X414754Y279047D01*
X414727Y278960D01*
X414693Y278876D01*
X414689Y278835D01*
X414682Y278812D01*
X414683Y278780D01*
X414675Y278709D01*
X414675Y262486D01*
X414678Y262466D01*
X414676Y262447D01*
X414698Y262345D01*
X414714Y262243D01*
X414724Y262226D01*
X414728Y262206D01*
X414781Y262117D01*
X414830Y262026D01*
X414844Y262012D01*
X414854Y261995D01*
X414933Y261928D01*
X415008Y261856D01*
X415026Y261848D01*
X415041Y261835D01*
X415137Y261796D01*
X415231Y261753D01*
X415251Y261751D01*
X415269Y261743D01*
X415436Y261725D01*
X415782Y261725D01*
X416675Y260832D01*
X416675Y237568D01*
X415782Y236675D01*
X408518Y236675D01*
X407625Y237568D01*
X407625Y260832D01*
X408518Y261725D01*
X408864Y261725D01*
X408884Y261728D01*
X408903Y261726D01*
X409005Y261748D01*
X409107Y261764D01*
X409124Y261774D01*
X409144Y261778D01*
X409233Y261831D01*
X409324Y261880D01*
X409338Y261894D01*
X409355Y261904D01*
X409422Y261983D01*
X409494Y262058D01*
X409502Y262076D01*
X409515Y262091D01*
X409554Y262187D01*
X409597Y262281D01*
X409599Y262301D01*
X409607Y262319D01*
X409625Y262486D01*
X409625Y281116D01*
X416352Y287843D01*
X416785Y288276D01*
X416827Y288334D01*
X416876Y288386D01*
X416898Y288433D01*
X416929Y288475D01*
X416950Y288544D01*
X416980Y288609D01*
X416986Y288661D01*
X417001Y288711D01*
X416999Y288782D01*
X417007Y288853D01*
X416996Y288904D01*
X416995Y288956D01*
X416970Y289024D01*
X416955Y289094D01*
X416928Y289139D01*
X416910Y289187D01*
X416866Y289243D01*
X416829Y289305D01*
X416789Y289339D01*
X416757Y289379D01*
X416696Y289418D01*
X416642Y289465D01*
X416593Y289484D01*
X416550Y289512D01*
X416480Y289530D01*
X416414Y289557D01*
X416342Y289565D01*
X416311Y289573D01*
X416288Y289571D01*
X416247Y289575D01*
X407761Y289575D01*
X407671Y289561D01*
X407580Y289553D01*
X407550Y289541D01*
X407518Y289536D01*
X407438Y289493D01*
X407354Y289457D01*
X407322Y289431D01*
X407301Y289420D01*
X407279Y289397D01*
X407223Y289352D01*
X402198Y284327D01*
X402145Y284253D01*
X402085Y284184D01*
X402073Y284154D01*
X402054Y284127D01*
X402027Y284040D01*
X401993Y283956D01*
X401989Y283915D01*
X401982Y283892D01*
X401983Y283860D01*
X401975Y283789D01*
X401975Y262486D01*
X401978Y262466D01*
X401976Y262447D01*
X401998Y262345D01*
X402014Y262243D01*
X402024Y262226D01*
X402028Y262206D01*
X402081Y262117D01*
X402130Y262026D01*
X402144Y262012D01*
X402154Y261995D01*
X402233Y261928D01*
X402308Y261856D01*
X402326Y261848D01*
X402341Y261835D01*
X402437Y261796D01*
X402531Y261753D01*
X402551Y261751D01*
X402569Y261743D01*
X402736Y261725D01*
X403082Y261725D01*
X403975Y260832D01*
X403975Y237568D01*
X403082Y236675D01*
X395818Y236675D01*
X394925Y237568D01*
X394925Y260832D01*
X395818Y261725D01*
X396164Y261725D01*
X396184Y261728D01*
X396203Y261726D01*
X396305Y261748D01*
X396407Y261764D01*
X396424Y261774D01*
X396444Y261778D01*
X396533Y261831D01*
X396624Y261880D01*
X396638Y261894D01*
X396655Y261904D01*
X396722Y261983D01*
X396794Y262058D01*
X396802Y262076D01*
X396815Y262091D01*
X396854Y262187D01*
X396897Y262281D01*
X396899Y262301D01*
X396907Y262319D01*
X396925Y262486D01*
X396925Y286196D01*
X403652Y292923D01*
X404085Y293356D01*
X404127Y293414D01*
X404176Y293466D01*
X404198Y293513D01*
X404229Y293555D01*
X404250Y293624D01*
X404280Y293689D01*
X404286Y293741D01*
X404301Y293791D01*
X404299Y293862D01*
X404307Y293933D01*
X404296Y293984D01*
X404295Y294036D01*
X404270Y294104D01*
X404255Y294174D01*
X404228Y294219D01*
X404210Y294267D01*
X404166Y294323D01*
X404129Y294385D01*
X404089Y294419D01*
X404057Y294459D01*
X403996Y294498D01*
X403942Y294545D01*
X403893Y294564D01*
X403850Y294592D01*
X403780Y294610D01*
X403714Y294637D01*
X403642Y294645D01*
X403611Y294653D01*
X403588Y294651D01*
X403547Y294655D01*
X395061Y294655D01*
X394971Y294641D01*
X394880Y294633D01*
X394850Y294621D01*
X394818Y294616D01*
X394738Y294573D01*
X394654Y294537D01*
X394622Y294511D01*
X394601Y294500D01*
X394579Y294477D01*
X394523Y294432D01*
X389498Y289407D01*
X389445Y289333D01*
X389385Y289264D01*
X389373Y289234D01*
X389354Y289207D01*
X389327Y289120D01*
X389293Y289036D01*
X389289Y288995D01*
X389282Y288972D01*
X389283Y288940D01*
X389275Y288869D01*
X389275Y262486D01*
X389278Y262466D01*
X389276Y262447D01*
X389298Y262345D01*
X389314Y262243D01*
X389324Y262226D01*
X389328Y262206D01*
X389381Y262117D01*
X389430Y262026D01*
X389444Y262012D01*
X389454Y261995D01*
X389533Y261928D01*
X389608Y261856D01*
X389626Y261848D01*
X389641Y261835D01*
X389737Y261796D01*
X389831Y261753D01*
X389851Y261751D01*
X389869Y261743D01*
X390036Y261725D01*
X390382Y261725D01*
X391275Y260832D01*
X391275Y237568D01*
X390382Y236675D01*
X383118Y236675D01*
G37*
%LPD*%
%LPC*%
G36*
X614539Y62483D02*
X614539Y62483D01*
X610525Y64146D01*
X607452Y67219D01*
X605789Y71233D01*
X605789Y75579D01*
X607452Y79593D01*
X610525Y82666D01*
X613717Y83988D01*
X613817Y84050D01*
X613917Y84110D01*
X613921Y84115D01*
X613926Y84118D01*
X614000Y84207D01*
X614077Y84297D01*
X614079Y84303D01*
X614083Y84307D01*
X614125Y84416D01*
X614169Y84525D01*
X614170Y84532D01*
X614171Y84537D01*
X614172Y84555D01*
X614187Y84692D01*
X614187Y93127D01*
X614173Y93217D01*
X614165Y93308D01*
X614153Y93338D01*
X614148Y93370D01*
X614125Y93413D01*
X614124Y93417D01*
X614112Y93436D01*
X614105Y93450D01*
X614069Y93534D01*
X614043Y93566D01*
X614032Y93587D01*
X614009Y93609D01*
X614008Y93610D01*
X613998Y93628D01*
X613986Y93638D01*
X613964Y93665D01*
X598617Y109012D01*
X598543Y109065D01*
X598474Y109125D01*
X598444Y109137D01*
X598417Y109156D01*
X598330Y109183D01*
X598246Y109217D01*
X598205Y109221D01*
X598182Y109228D01*
X598150Y109227D01*
X598079Y109235D01*
X242661Y109235D01*
X242571Y109221D01*
X242480Y109213D01*
X242450Y109201D01*
X242418Y109196D01*
X242338Y109153D01*
X242254Y109117D01*
X242222Y109091D01*
X242201Y109080D01*
X242179Y109057D01*
X242123Y109012D01*
X231875Y98764D01*
X231833Y98706D01*
X231784Y98654D01*
X231762Y98607D01*
X231731Y98565D01*
X231710Y98496D01*
X231680Y98431D01*
X231674Y98379D01*
X231659Y98329D01*
X231661Y98258D01*
X231653Y98187D01*
X231664Y98136D01*
X231665Y98084D01*
X231690Y98016D01*
X231705Y97946D01*
X231732Y97901D01*
X231750Y97853D01*
X231795Y97797D01*
X231831Y97735D01*
X231871Y97701D01*
X231903Y97661D01*
X231964Y97622D01*
X232018Y97575D01*
X232067Y97556D01*
X232110Y97528D01*
X232180Y97510D01*
X232246Y97483D01*
X232318Y97475D01*
X232349Y97467D01*
X232372Y97469D01*
X232413Y97465D01*
X236272Y97465D01*
X237165Y96572D01*
X237165Y81228D01*
X236272Y80335D01*
X220928Y80335D01*
X220035Y81228D01*
X220035Y96572D01*
X220928Y97465D01*
X225314Y97465D01*
X225334Y97468D01*
X225353Y97466D01*
X225455Y97488D01*
X225557Y97504D01*
X225574Y97514D01*
X225594Y97518D01*
X225683Y97571D01*
X225774Y97620D01*
X225788Y97634D01*
X225805Y97644D01*
X225872Y97723D01*
X225944Y97798D01*
X225952Y97816D01*
X225965Y97831D01*
X226004Y97927D01*
X226047Y98021D01*
X226049Y98041D01*
X226057Y98059D01*
X226075Y98226D01*
X226075Y100106D01*
X240254Y114285D01*
X600486Y114285D01*
X619237Y95534D01*
X619237Y84692D01*
X619256Y84577D01*
X619273Y84461D01*
X619275Y84455D01*
X619276Y84449D01*
X619331Y84346D01*
X619384Y84241D01*
X619389Y84237D01*
X619392Y84231D01*
X619476Y84152D01*
X619560Y84069D01*
X619566Y84065D01*
X619570Y84062D01*
X619587Y84054D01*
X619707Y83988D01*
X622899Y82666D01*
X625972Y79593D01*
X627635Y75579D01*
X627635Y71233D01*
X625972Y67219D01*
X622899Y64146D01*
X618885Y62483D01*
X614539Y62483D01*
G37*
%LPD*%
%LPC*%
G36*
X396418Y144675D02*
X396418Y144675D01*
X395525Y145568D01*
X395525Y168832D01*
X396418Y169725D01*
X397002Y169725D01*
X397022Y169728D01*
X397041Y169726D01*
X397143Y169748D01*
X397245Y169764D01*
X397262Y169774D01*
X397282Y169778D01*
X397371Y169831D01*
X397462Y169880D01*
X397476Y169894D01*
X397493Y169904D01*
X397560Y169983D01*
X397632Y170058D01*
X397640Y170076D01*
X397653Y170091D01*
X397692Y170187D01*
X397735Y170281D01*
X397737Y170301D01*
X397745Y170319D01*
X397763Y170486D01*
X397763Y227584D01*
X397760Y227604D01*
X397762Y227623D01*
X397740Y227725D01*
X397724Y227827D01*
X397714Y227844D01*
X397710Y227864D01*
X397657Y227953D01*
X397608Y228044D01*
X397594Y228058D01*
X397584Y228075D01*
X397505Y228142D01*
X397430Y228214D01*
X397412Y228222D01*
X397397Y228235D01*
X397301Y228274D01*
X397207Y228317D01*
X397187Y228319D01*
X397169Y228327D01*
X397002Y228345D01*
X333756Y228345D01*
X333736Y228342D01*
X333717Y228344D01*
X333615Y228322D01*
X333513Y228306D01*
X333496Y228296D01*
X333476Y228292D01*
X333387Y228239D01*
X333296Y228190D01*
X333282Y228176D01*
X333265Y228166D01*
X333198Y228087D01*
X333126Y228012D01*
X333118Y227994D01*
X333105Y227979D01*
X333066Y227883D01*
X333023Y227789D01*
X333021Y227769D01*
X333013Y227751D01*
X332995Y227584D01*
X332995Y218186D01*
X332998Y218166D01*
X332996Y218147D01*
X333018Y218045D01*
X333034Y217943D01*
X333044Y217926D01*
X333048Y217906D01*
X333101Y217817D01*
X333150Y217726D01*
X333164Y217712D01*
X333174Y217695D01*
X333253Y217628D01*
X333328Y217556D01*
X333346Y217548D01*
X333361Y217535D01*
X333457Y217496D01*
X333551Y217453D01*
X333571Y217451D01*
X333589Y217443D01*
X333756Y217425D01*
X340992Y217425D01*
X341885Y216532D01*
X341885Y202568D01*
X340992Y201675D01*
X319408Y201675D01*
X318515Y202568D01*
X318515Y216532D01*
X319408Y217425D01*
X326644Y217425D01*
X326664Y217428D01*
X326683Y217426D01*
X326785Y217448D01*
X326887Y217464D01*
X326904Y217474D01*
X326924Y217478D01*
X327013Y217531D01*
X327104Y217580D01*
X327118Y217594D01*
X327135Y217604D01*
X327202Y217683D01*
X327274Y217758D01*
X327282Y217776D01*
X327295Y217791D01*
X327334Y217887D01*
X327377Y217981D01*
X327379Y218001D01*
X327387Y218019D01*
X327405Y218186D01*
X327405Y227584D01*
X327402Y227604D01*
X327404Y227623D01*
X327382Y227725D01*
X327366Y227827D01*
X327356Y227844D01*
X327352Y227864D01*
X327299Y227953D01*
X327250Y228044D01*
X327236Y228058D01*
X327226Y228075D01*
X327147Y228142D01*
X327072Y228214D01*
X327054Y228222D01*
X327039Y228235D01*
X326943Y228274D01*
X326849Y228317D01*
X326829Y228319D01*
X326811Y228327D01*
X326644Y228345D01*
X298562Y228345D01*
X274065Y252842D01*
X274065Y269295D01*
X274051Y269385D01*
X274043Y269476D01*
X274031Y269505D01*
X274026Y269537D01*
X273983Y269618D01*
X273947Y269702D01*
X273921Y269734D01*
X273910Y269755D01*
X273887Y269777D01*
X273842Y269833D01*
X271553Y272122D01*
X271553Y276518D01*
X274662Y279627D01*
X279058Y279627D01*
X282167Y276518D01*
X282167Y272122D01*
X279878Y269833D01*
X279825Y269759D01*
X279765Y269689D01*
X279753Y269659D01*
X279734Y269633D01*
X279707Y269546D01*
X279673Y269461D01*
X279669Y269420D01*
X279662Y269398D01*
X279663Y269366D01*
X279655Y269295D01*
X279655Y255473D01*
X279669Y255383D01*
X279677Y255292D01*
X279689Y255262D01*
X279694Y255230D01*
X279737Y255150D01*
X279773Y255066D01*
X279799Y255034D01*
X279810Y255013D01*
X279833Y254991D01*
X279878Y254935D01*
X300655Y234158D01*
X300729Y234105D01*
X300798Y234045D01*
X300828Y234033D01*
X300854Y234014D01*
X300941Y233987D01*
X301026Y233953D01*
X301067Y233949D01*
X301089Y233942D01*
X301122Y233943D01*
X301193Y233935D01*
X455727Y233935D01*
X455817Y233949D01*
X455908Y233957D01*
X455938Y233969D01*
X455970Y233974D01*
X456050Y234017D01*
X456134Y234053D01*
X456167Y234079D01*
X456187Y234090D01*
X456209Y234113D01*
X456265Y234158D01*
X458812Y236705D01*
X458824Y236721D01*
X458840Y236733D01*
X458896Y236821D01*
X458956Y236904D01*
X458962Y236923D01*
X458973Y236940D01*
X458998Y237041D01*
X459028Y237140D01*
X459028Y237159D01*
X459033Y237179D01*
X459025Y237273D01*
X459025Y260832D01*
X459918Y261725D01*
X467182Y261725D01*
X468075Y260832D01*
X468075Y237568D01*
X467182Y236675D01*
X467003Y236675D01*
X466913Y236661D01*
X466822Y236653D01*
X466792Y236641D01*
X466760Y236636D01*
X466680Y236593D01*
X466596Y236557D01*
X466564Y236531D01*
X466543Y236520D01*
X466521Y236497D01*
X466465Y236452D01*
X458358Y228345D01*
X403098Y228345D01*
X403078Y228342D01*
X403059Y228344D01*
X402957Y228322D01*
X402855Y228306D01*
X402838Y228296D01*
X402818Y228292D01*
X402729Y228239D01*
X402638Y228190D01*
X402624Y228176D01*
X402607Y228166D01*
X402540Y228087D01*
X402468Y228012D01*
X402460Y227994D01*
X402447Y227979D01*
X402408Y227883D01*
X402365Y227789D01*
X402363Y227769D01*
X402355Y227751D01*
X402337Y227584D01*
X402337Y170486D01*
X402340Y170466D01*
X402338Y170447D01*
X402360Y170345D01*
X402376Y170243D01*
X402386Y170226D01*
X402390Y170206D01*
X402443Y170117D01*
X402492Y170026D01*
X402506Y170012D01*
X402516Y169995D01*
X402595Y169928D01*
X402670Y169856D01*
X402688Y169848D01*
X402703Y169835D01*
X402799Y169796D01*
X402893Y169753D01*
X402913Y169751D01*
X402931Y169743D01*
X403098Y169725D01*
X403682Y169725D01*
X404575Y168832D01*
X404575Y145568D01*
X403682Y144675D01*
X396418Y144675D01*
G37*
%LPD*%
%LPC*%
G36*
X119328Y80335D02*
X119328Y80335D01*
X118435Y81228D01*
X118435Y96572D01*
X119328Y97465D01*
X123714Y97465D01*
X123734Y97468D01*
X123753Y97466D01*
X123855Y97488D01*
X123957Y97504D01*
X123974Y97514D01*
X123994Y97518D01*
X124083Y97571D01*
X124174Y97620D01*
X124188Y97634D01*
X124205Y97644D01*
X124272Y97723D01*
X124344Y97798D01*
X124352Y97816D01*
X124365Y97831D01*
X124404Y97927D01*
X124447Y98021D01*
X124449Y98041D01*
X124457Y98059D01*
X124475Y98226D01*
X124475Y112806D01*
X136114Y124445D01*
X450759Y124445D01*
X450849Y124459D01*
X450940Y124467D01*
X450970Y124479D01*
X451002Y124484D01*
X451082Y124527D01*
X451166Y124563D01*
X451198Y124589D01*
X451219Y124600D01*
X451241Y124623D01*
X451297Y124668D01*
X460802Y134173D01*
X460855Y134247D01*
X460915Y134316D01*
X460927Y134346D01*
X460946Y134373D01*
X460973Y134460D01*
X461007Y134544D01*
X461011Y134585D01*
X461018Y134608D01*
X461017Y134640D01*
X461025Y134711D01*
X461025Y143914D01*
X461022Y143934D01*
X461024Y143953D01*
X461002Y144055D01*
X460986Y144157D01*
X460976Y144174D01*
X460972Y144194D01*
X460919Y144283D01*
X460870Y144374D01*
X460856Y144388D01*
X460846Y144405D01*
X460767Y144472D01*
X460692Y144544D01*
X460674Y144552D01*
X460659Y144565D01*
X460563Y144604D01*
X460469Y144647D01*
X460449Y144649D01*
X460431Y144657D01*
X460264Y144675D01*
X459918Y144675D01*
X459025Y145568D01*
X459025Y168832D01*
X459918Y169725D01*
X467182Y169725D01*
X468075Y168832D01*
X468075Y145568D01*
X467182Y144675D01*
X466836Y144675D01*
X466816Y144672D01*
X466797Y144674D01*
X466695Y144652D01*
X466593Y144636D01*
X466576Y144626D01*
X466556Y144622D01*
X466467Y144569D01*
X466376Y144520D01*
X466362Y144506D01*
X466345Y144496D01*
X466278Y144417D01*
X466206Y144342D01*
X466198Y144324D01*
X466185Y144309D01*
X466146Y144213D01*
X466103Y144119D01*
X466101Y144099D01*
X466093Y144081D01*
X466075Y143914D01*
X466075Y132304D01*
X453166Y119395D01*
X138521Y119395D01*
X138431Y119381D01*
X138340Y119373D01*
X138310Y119361D01*
X138278Y119356D01*
X138198Y119313D01*
X138114Y119277D01*
X138082Y119251D01*
X138061Y119240D01*
X138039Y119217D01*
X137983Y119172D01*
X129748Y110937D01*
X129695Y110863D01*
X129635Y110794D01*
X129623Y110764D01*
X129604Y110737D01*
X129577Y110650D01*
X129543Y110566D01*
X129539Y110525D01*
X129532Y110502D01*
X129533Y110470D01*
X129525Y110399D01*
X129525Y98226D01*
X129528Y98206D01*
X129526Y98187D01*
X129548Y98085D01*
X129564Y97983D01*
X129574Y97966D01*
X129578Y97946D01*
X129631Y97857D01*
X129680Y97766D01*
X129694Y97752D01*
X129704Y97735D01*
X129783Y97668D01*
X129858Y97596D01*
X129876Y97588D01*
X129891Y97575D01*
X129987Y97536D01*
X130081Y97493D01*
X130101Y97491D01*
X130119Y97483D01*
X130286Y97465D01*
X134672Y97465D01*
X135565Y96572D01*
X135565Y81228D01*
X134672Y80335D01*
X119328Y80335D01*
G37*
%LPD*%
%LPC*%
G36*
X458075Y17271D02*
X458075Y17271D01*
X454061Y18934D01*
X450988Y22007D01*
X449325Y26021D01*
X449325Y30367D01*
X450988Y34381D01*
X454061Y37454D01*
X457253Y38776D01*
X457353Y38838D01*
X457453Y38898D01*
X457457Y38903D01*
X457462Y38906D01*
X457537Y38996D01*
X457613Y39085D01*
X457615Y39091D01*
X457619Y39095D01*
X457661Y39204D01*
X457705Y39313D01*
X457706Y39320D01*
X457707Y39325D01*
X457708Y39343D01*
X457723Y39480D01*
X457723Y41311D01*
X457709Y41401D01*
X457701Y41492D01*
X457689Y41522D01*
X457684Y41554D01*
X457641Y41634D01*
X457605Y41718D01*
X457579Y41750D01*
X457568Y41771D01*
X457545Y41793D01*
X457500Y41849D01*
X446217Y53132D01*
X446143Y53185D01*
X446074Y53245D01*
X446044Y53257D01*
X446017Y53276D01*
X445930Y53303D01*
X445846Y53337D01*
X445805Y53341D01*
X445782Y53348D01*
X445750Y53347D01*
X445679Y53355D01*
X214854Y53355D01*
X200675Y67534D01*
X200675Y79574D01*
X200672Y79594D01*
X200674Y79613D01*
X200652Y79715D01*
X200636Y79817D01*
X200626Y79834D01*
X200622Y79854D01*
X200569Y79943D01*
X200520Y80034D01*
X200506Y80048D01*
X200496Y80065D01*
X200417Y80132D01*
X200342Y80204D01*
X200324Y80212D01*
X200309Y80225D01*
X200213Y80264D01*
X200119Y80307D01*
X200099Y80309D01*
X200081Y80317D01*
X199914Y80335D01*
X195528Y80335D01*
X194635Y81228D01*
X194635Y96572D01*
X195528Y97465D01*
X210872Y97465D01*
X211765Y96572D01*
X211765Y81228D01*
X210872Y80335D01*
X206486Y80335D01*
X206466Y80332D01*
X206447Y80334D01*
X206345Y80312D01*
X206243Y80296D01*
X206226Y80286D01*
X206206Y80282D01*
X206117Y80229D01*
X206026Y80180D01*
X206012Y80166D01*
X205995Y80156D01*
X205928Y80077D01*
X205856Y80002D01*
X205848Y79984D01*
X205835Y79969D01*
X205796Y79873D01*
X205753Y79779D01*
X205751Y79759D01*
X205743Y79741D01*
X205725Y79574D01*
X205725Y69941D01*
X205739Y69851D01*
X205747Y69760D01*
X205759Y69730D01*
X205764Y69698D01*
X205807Y69618D01*
X205843Y69534D01*
X205869Y69502D01*
X205880Y69481D01*
X205903Y69459D01*
X205948Y69403D01*
X216723Y58628D01*
X216797Y58575D01*
X216866Y58515D01*
X216896Y58503D01*
X216923Y58484D01*
X217010Y58457D01*
X217094Y58423D01*
X217135Y58419D01*
X217158Y58412D01*
X217190Y58413D01*
X217261Y58405D01*
X448086Y58405D01*
X462773Y43718D01*
X462773Y39480D01*
X462792Y39365D01*
X462809Y39249D01*
X462811Y39243D01*
X462812Y39237D01*
X462867Y39134D01*
X462920Y39029D01*
X462925Y39025D01*
X462928Y39019D01*
X463012Y38940D01*
X463096Y38857D01*
X463102Y38853D01*
X463106Y38850D01*
X463123Y38842D01*
X463243Y38776D01*
X466435Y37454D01*
X469508Y34381D01*
X471171Y30367D01*
X471171Y26021D01*
X469508Y22007D01*
X466435Y18934D01*
X462421Y17271D01*
X458075Y17271D01*
G37*
%LPD*%
%LPC*%
G36*
X150202Y126773D02*
X150202Y126773D01*
X147093Y129882D01*
X147093Y134278D01*
X150202Y137387D01*
X154598Y137387D01*
X157157Y134828D01*
X157231Y134775D01*
X157301Y134715D01*
X157331Y134703D01*
X157357Y134684D01*
X157444Y134657D01*
X157529Y134623D01*
X157570Y134619D01*
X157592Y134612D01*
X157624Y134613D01*
X157695Y134605D01*
X443139Y134605D01*
X443229Y134619D01*
X443320Y134627D01*
X443350Y134639D01*
X443382Y134644D01*
X443462Y134687D01*
X443546Y134723D01*
X443578Y134749D01*
X443599Y134760D01*
X443621Y134783D01*
X443677Y134828D01*
X448102Y139253D01*
X448155Y139327D01*
X448215Y139396D01*
X448227Y139426D01*
X448246Y139453D01*
X448273Y139540D01*
X448307Y139624D01*
X448311Y139665D01*
X448318Y139688D01*
X448317Y139720D01*
X448325Y139791D01*
X448325Y143914D01*
X448322Y143934D01*
X448324Y143953D01*
X448302Y144055D01*
X448286Y144157D01*
X448276Y144174D01*
X448272Y144194D01*
X448219Y144283D01*
X448170Y144374D01*
X448156Y144388D01*
X448146Y144405D01*
X448067Y144472D01*
X447992Y144544D01*
X447974Y144552D01*
X447959Y144565D01*
X447863Y144604D01*
X447769Y144647D01*
X447749Y144649D01*
X447731Y144657D01*
X447564Y144675D01*
X447218Y144675D01*
X446325Y145568D01*
X446325Y168832D01*
X447218Y169725D01*
X454482Y169725D01*
X455375Y168832D01*
X455375Y145568D01*
X454482Y144675D01*
X454136Y144675D01*
X454116Y144672D01*
X454097Y144674D01*
X453995Y144652D01*
X453893Y144636D01*
X453876Y144626D01*
X453856Y144622D01*
X453767Y144569D01*
X453676Y144520D01*
X453662Y144506D01*
X453645Y144496D01*
X453578Y144417D01*
X453506Y144342D01*
X453498Y144324D01*
X453485Y144309D01*
X453446Y144213D01*
X453403Y144119D01*
X453401Y144099D01*
X453393Y144081D01*
X453375Y143914D01*
X453375Y137384D01*
X445546Y129555D01*
X157695Y129555D01*
X157605Y129541D01*
X157514Y129533D01*
X157485Y129521D01*
X157453Y129516D01*
X157372Y129473D01*
X157288Y129437D01*
X157256Y129411D01*
X157235Y129400D01*
X157213Y129377D01*
X157157Y129332D01*
X154598Y126773D01*
X150202Y126773D01*
G37*
%LPD*%
%LPC*%
G36*
X366635Y17271D02*
X366635Y17271D01*
X362621Y18934D01*
X359548Y22007D01*
X357885Y26021D01*
X357885Y30367D01*
X359548Y34381D01*
X362621Y37454D01*
X365813Y38776D01*
X365913Y38838D01*
X366013Y38898D01*
X366017Y38903D01*
X366022Y38906D01*
X366097Y38996D01*
X366173Y39085D01*
X366175Y39091D01*
X366179Y39095D01*
X366221Y39204D01*
X366265Y39313D01*
X366266Y39320D01*
X366267Y39325D01*
X366268Y39343D01*
X366283Y39480D01*
X366283Y41311D01*
X366269Y41401D01*
X366261Y41492D01*
X366249Y41522D01*
X366244Y41554D01*
X366201Y41634D01*
X366165Y41718D01*
X366139Y41750D01*
X366128Y41771D01*
X366105Y41793D01*
X366060Y41849D01*
X362397Y45512D01*
X362323Y45565D01*
X362254Y45625D01*
X362224Y45637D01*
X362197Y45656D01*
X362110Y45683D01*
X362026Y45717D01*
X361985Y45721D01*
X361962Y45728D01*
X361930Y45727D01*
X361859Y45735D01*
X194534Y45735D01*
X175275Y64994D01*
X175275Y79574D01*
X175272Y79594D01*
X175274Y79613D01*
X175252Y79715D01*
X175236Y79817D01*
X175226Y79834D01*
X175222Y79854D01*
X175169Y79943D01*
X175120Y80034D01*
X175106Y80048D01*
X175096Y80065D01*
X175017Y80132D01*
X174942Y80204D01*
X174924Y80212D01*
X174909Y80225D01*
X174813Y80264D01*
X174719Y80307D01*
X174699Y80309D01*
X174681Y80317D01*
X174514Y80335D01*
X170128Y80335D01*
X169235Y81228D01*
X169235Y96572D01*
X170128Y97465D01*
X185472Y97465D01*
X186365Y96572D01*
X186365Y81228D01*
X185472Y80335D01*
X181086Y80335D01*
X181066Y80332D01*
X181047Y80334D01*
X180945Y80312D01*
X180843Y80296D01*
X180826Y80286D01*
X180806Y80282D01*
X180717Y80229D01*
X180626Y80180D01*
X180612Y80166D01*
X180595Y80156D01*
X180528Y80077D01*
X180456Y80002D01*
X180448Y79984D01*
X180435Y79969D01*
X180396Y79873D01*
X180353Y79779D01*
X180351Y79759D01*
X180343Y79741D01*
X180325Y79574D01*
X180325Y67401D01*
X180339Y67311D01*
X180347Y67220D01*
X180359Y67190D01*
X180364Y67158D01*
X180407Y67078D01*
X180443Y66994D01*
X180469Y66962D01*
X180480Y66941D01*
X180503Y66919D01*
X180548Y66863D01*
X196403Y51008D01*
X196477Y50955D01*
X196546Y50895D01*
X196576Y50883D01*
X196603Y50864D01*
X196690Y50837D01*
X196774Y50803D01*
X196815Y50799D01*
X196838Y50792D01*
X196870Y50793D01*
X196941Y50785D01*
X364266Y50785D01*
X371333Y43718D01*
X371333Y39480D01*
X371352Y39365D01*
X371369Y39249D01*
X371371Y39243D01*
X371372Y39237D01*
X371427Y39134D01*
X371480Y39029D01*
X371485Y39025D01*
X371488Y39019D01*
X371572Y38940D01*
X371656Y38857D01*
X371662Y38853D01*
X371666Y38850D01*
X371683Y38842D01*
X371803Y38776D01*
X374995Y37454D01*
X378068Y34381D01*
X379731Y30367D01*
X379731Y26021D01*
X378068Y22007D01*
X374995Y18934D01*
X370981Y17271D01*
X366635Y17271D01*
G37*
%LPD*%
%LPC*%
G36*
X598668Y339875D02*
X598668Y339875D01*
X597775Y340768D01*
X597775Y354732D01*
X597873Y354830D01*
X597885Y354846D01*
X597901Y354858D01*
X597956Y354945D01*
X598017Y355029D01*
X598023Y355048D01*
X598034Y355065D01*
X598059Y355165D01*
X598089Y355264D01*
X598089Y355284D01*
X598094Y355304D01*
X598086Y355407D01*
X598083Y355510D01*
X598076Y355529D01*
X598074Y355549D01*
X598034Y355644D01*
X597998Y355741D01*
X597986Y355757D01*
X597978Y355775D01*
X597873Y355906D01*
X593307Y360472D01*
X593233Y360525D01*
X593164Y360585D01*
X593134Y360597D01*
X593107Y360616D01*
X593020Y360643D01*
X592936Y360677D01*
X592895Y360681D01*
X592872Y360688D01*
X592840Y360687D01*
X592769Y360695D01*
X575534Y360695D01*
X564995Y371235D01*
X564901Y371302D01*
X564806Y371373D01*
X564800Y371375D01*
X564795Y371378D01*
X564684Y371412D01*
X564572Y371449D01*
X564566Y371449D01*
X564560Y371451D01*
X564443Y371448D01*
X564326Y371446D01*
X564319Y371444D01*
X564314Y371444D01*
X564297Y371438D01*
X564165Y371400D01*
X560973Y370077D01*
X556627Y370077D01*
X552613Y371740D01*
X549540Y374813D01*
X547877Y378827D01*
X547877Y383173D01*
X549540Y387187D01*
X552613Y390260D01*
X556627Y391923D01*
X560973Y391923D01*
X564987Y390260D01*
X568060Y387187D01*
X569723Y383173D01*
X569723Y378827D01*
X568400Y375635D01*
X568374Y375521D01*
X568345Y375408D01*
X568346Y375401D01*
X568344Y375395D01*
X568355Y375279D01*
X568364Y375162D01*
X568367Y375157D01*
X568367Y375150D01*
X568415Y375043D01*
X568461Y374936D01*
X568465Y374930D01*
X568467Y374926D01*
X568480Y374912D01*
X568565Y374805D01*
X577403Y365968D01*
X577477Y365915D01*
X577546Y365855D01*
X577576Y365843D01*
X577603Y365824D01*
X577690Y365797D01*
X577774Y365763D01*
X577815Y365759D01*
X577838Y365752D01*
X577870Y365753D01*
X577941Y365745D01*
X595176Y365745D01*
X605073Y355848D01*
X605147Y355795D01*
X605216Y355735D01*
X605246Y355723D01*
X605273Y355704D01*
X605360Y355677D01*
X605444Y355643D01*
X605485Y355639D01*
X605508Y355632D01*
X605540Y355633D01*
X605611Y355625D01*
X620532Y355625D01*
X621425Y354732D01*
X621425Y340768D01*
X620532Y339875D01*
X598668Y339875D01*
G37*
%LPD*%
%LPC*%
G36*
X560568Y339875D02*
X560568Y339875D01*
X559675Y340768D01*
X559675Y354732D01*
X559773Y354830D01*
X559785Y354846D01*
X559801Y354858D01*
X559856Y354945D01*
X559917Y355029D01*
X559923Y355048D01*
X559934Y355065D01*
X559959Y355165D01*
X559989Y355264D01*
X559989Y355284D01*
X559994Y355304D01*
X559986Y355407D01*
X559983Y355510D01*
X559976Y355529D01*
X559974Y355549D01*
X559934Y355644D01*
X559898Y355741D01*
X559886Y355757D01*
X559878Y355775D01*
X559773Y355906D01*
X552667Y363012D01*
X552593Y363065D01*
X552524Y363125D01*
X552494Y363137D01*
X552467Y363156D01*
X552380Y363183D01*
X552296Y363217D01*
X552255Y363221D01*
X552232Y363228D01*
X552200Y363227D01*
X552129Y363235D01*
X545054Y363235D01*
X537799Y370491D01*
X537704Y370559D01*
X537610Y370629D01*
X537604Y370631D01*
X537599Y370634D01*
X537488Y370668D01*
X537376Y370705D01*
X537370Y370705D01*
X537364Y370707D01*
X537247Y370704D01*
X537130Y370702D01*
X537123Y370700D01*
X537118Y370700D01*
X537101Y370694D01*
X536969Y370656D01*
X535573Y370077D01*
X531227Y370077D01*
X527213Y371740D01*
X524140Y374813D01*
X522477Y378827D01*
X522477Y383173D01*
X524140Y387187D01*
X527213Y390260D01*
X531227Y391923D01*
X535573Y391923D01*
X539587Y390260D01*
X542660Y387187D01*
X544323Y383173D01*
X544323Y378827D01*
X542660Y374813D01*
X542177Y374330D01*
X542165Y374314D01*
X542150Y374301D01*
X542094Y374214D01*
X542034Y374130D01*
X542028Y374111D01*
X542017Y374094D01*
X541992Y373994D01*
X541961Y373895D01*
X541962Y373875D01*
X541957Y373856D01*
X541965Y373753D01*
X541968Y373649D01*
X541974Y373630D01*
X541976Y373611D01*
X542016Y373516D01*
X542052Y373418D01*
X542065Y373403D01*
X542072Y373384D01*
X542177Y373253D01*
X546923Y368508D01*
X546997Y368455D01*
X547066Y368395D01*
X547096Y368383D01*
X547123Y368364D01*
X547210Y368337D01*
X547294Y368303D01*
X547335Y368299D01*
X547358Y368292D01*
X547390Y368293D01*
X547461Y368285D01*
X554536Y368285D01*
X566973Y355848D01*
X567047Y355795D01*
X567116Y355735D01*
X567146Y355723D01*
X567173Y355704D01*
X567260Y355677D01*
X567344Y355643D01*
X567385Y355639D01*
X567408Y355632D01*
X567440Y355633D01*
X567511Y355625D01*
X582432Y355625D01*
X583325Y354732D01*
X583325Y340768D01*
X582432Y339875D01*
X560568Y339875D01*
G37*
%LPD*%
%LPC*%
G36*
X331968Y339875D02*
X331968Y339875D01*
X331075Y340768D01*
X331075Y354732D01*
X331968Y355625D01*
X346889Y355625D01*
X346979Y355639D01*
X347070Y355647D01*
X347100Y355659D01*
X347132Y355664D01*
X347212Y355707D01*
X347296Y355743D01*
X347328Y355769D01*
X347349Y355780D01*
X347371Y355803D01*
X347427Y355848D01*
X369854Y378275D01*
X369907Y378349D01*
X369967Y378418D01*
X369979Y378448D01*
X369998Y378475D01*
X370025Y378561D01*
X370059Y378646D01*
X370063Y378687D01*
X370070Y378710D01*
X370069Y378742D01*
X370077Y378813D01*
X370077Y383173D01*
X371740Y387187D01*
X374813Y390260D01*
X378827Y391923D01*
X383173Y391923D01*
X387187Y390260D01*
X390260Y387187D01*
X391923Y383173D01*
X391923Y378827D01*
X390260Y374813D01*
X387187Y371740D01*
X383173Y370077D01*
X378827Y370077D01*
X374813Y371740D01*
X373175Y373378D01*
X373159Y373390D01*
X373146Y373405D01*
X373059Y373461D01*
X372975Y373521D01*
X372956Y373527D01*
X372939Y373538D01*
X372839Y373563D01*
X372740Y373594D01*
X372720Y373593D01*
X372701Y373598D01*
X372598Y373590D01*
X372494Y373587D01*
X372475Y373581D01*
X372456Y373579D01*
X372361Y373539D01*
X372263Y373503D01*
X372248Y373490D01*
X372229Y373483D01*
X372098Y373378D01*
X354627Y355906D01*
X354615Y355890D01*
X354599Y355878D01*
X354543Y355790D01*
X354483Y355706D01*
X354477Y355687D01*
X354466Y355671D01*
X354441Y355570D01*
X354411Y355471D01*
X354411Y355451D01*
X354406Y355432D01*
X354414Y355329D01*
X354417Y355225D01*
X354424Y355207D01*
X354426Y355187D01*
X354466Y355092D01*
X354502Y354994D01*
X354514Y354979D01*
X354522Y354961D01*
X354627Y354830D01*
X354725Y354732D01*
X354725Y340768D01*
X353832Y339875D01*
X331968Y339875D01*
G37*
%LPD*%
%LPC*%
G36*
X370068Y339875D02*
X370068Y339875D01*
X369175Y340768D01*
X369175Y354732D01*
X370068Y355625D01*
X384989Y355625D01*
X385079Y355639D01*
X385170Y355647D01*
X385200Y355659D01*
X385232Y355664D01*
X385312Y355707D01*
X385396Y355743D01*
X385428Y355769D01*
X385449Y355780D01*
X385471Y355803D01*
X385527Y355848D01*
X400278Y370598D01*
X400290Y370615D01*
X400305Y370627D01*
X400361Y370714D01*
X400421Y370798D01*
X400427Y370817D01*
X400438Y370834D01*
X400463Y370934D01*
X400494Y371033D01*
X400493Y371053D01*
X400498Y371072D01*
X400490Y371175D01*
X400487Y371279D01*
X400481Y371298D01*
X400479Y371318D01*
X400439Y371413D01*
X400403Y371510D01*
X400390Y371526D01*
X400383Y371544D01*
X400278Y371675D01*
X397140Y374813D01*
X395477Y378827D01*
X395477Y383173D01*
X397140Y387187D01*
X400213Y390260D01*
X404227Y391923D01*
X408573Y391923D01*
X412587Y390260D01*
X415660Y387187D01*
X417323Y383173D01*
X417323Y378827D01*
X415660Y374813D01*
X412587Y371740D01*
X408573Y370077D01*
X407213Y370077D01*
X407123Y370063D01*
X407032Y370055D01*
X407002Y370043D01*
X406970Y370038D01*
X406890Y369995D01*
X406806Y369959D01*
X406774Y369933D01*
X406753Y369922D01*
X406731Y369899D01*
X406675Y369854D01*
X392727Y355906D01*
X392715Y355890D01*
X392699Y355878D01*
X392643Y355790D01*
X392583Y355706D01*
X392577Y355687D01*
X392566Y355671D01*
X392541Y355570D01*
X392511Y355471D01*
X392511Y355451D01*
X392506Y355432D01*
X392514Y355329D01*
X392517Y355225D01*
X392524Y355207D01*
X392526Y355187D01*
X392566Y355092D01*
X392602Y354994D01*
X392614Y354979D01*
X392622Y354961D01*
X392727Y354830D01*
X392825Y354732D01*
X392825Y340768D01*
X391932Y339875D01*
X370068Y339875D01*
G37*
%LPD*%
%LPC*%
G36*
X522468Y339875D02*
X522468Y339875D01*
X521575Y340768D01*
X521575Y354732D01*
X521673Y354830D01*
X521685Y354846D01*
X521701Y354858D01*
X521756Y354945D01*
X521817Y355029D01*
X521823Y355048D01*
X521834Y355065D01*
X521859Y355165D01*
X521889Y355264D01*
X521889Y355284D01*
X521894Y355304D01*
X521886Y355407D01*
X521883Y355510D01*
X521876Y355529D01*
X521874Y355549D01*
X521834Y355644D01*
X521798Y355741D01*
X521786Y355757D01*
X521778Y355775D01*
X521673Y355906D01*
X507725Y369854D01*
X507651Y369907D01*
X507582Y369967D01*
X507552Y369979D01*
X507525Y369998D01*
X507439Y370025D01*
X507354Y370059D01*
X507313Y370063D01*
X507290Y370070D01*
X507258Y370069D01*
X507187Y370077D01*
X505827Y370077D01*
X501813Y371740D01*
X498740Y374813D01*
X497077Y378827D01*
X497077Y383173D01*
X498740Y387187D01*
X501813Y390260D01*
X505827Y391923D01*
X510173Y391923D01*
X514187Y390260D01*
X517260Y387187D01*
X518923Y383173D01*
X518923Y378827D01*
X517260Y374813D01*
X514122Y371675D01*
X514110Y371659D01*
X514095Y371646D01*
X514039Y371559D01*
X513979Y371475D01*
X513973Y371456D01*
X513962Y371439D01*
X513937Y371339D01*
X513906Y371240D01*
X513907Y371220D01*
X513902Y371201D01*
X513910Y371098D01*
X513913Y370994D01*
X513919Y370975D01*
X513921Y370956D01*
X513961Y370861D01*
X513997Y370763D01*
X514010Y370748D01*
X514017Y370729D01*
X514122Y370598D01*
X528873Y355848D01*
X528947Y355795D01*
X529016Y355735D01*
X529046Y355723D01*
X529073Y355704D01*
X529160Y355677D01*
X529244Y355643D01*
X529285Y355639D01*
X529308Y355632D01*
X529340Y355633D01*
X529411Y355625D01*
X544332Y355625D01*
X545225Y354732D01*
X545225Y340768D01*
X544332Y339875D01*
X522468Y339875D01*
G37*
%LPD*%
%LPC*%
G36*
X484368Y339875D02*
X484368Y339875D01*
X483475Y340768D01*
X483475Y354732D01*
X484368Y355625D01*
X492014Y355625D01*
X492034Y355628D01*
X492053Y355626D01*
X492155Y355648D01*
X492257Y355664D01*
X492274Y355674D01*
X492294Y355678D01*
X492383Y355731D01*
X492474Y355780D01*
X492488Y355794D01*
X492505Y355804D01*
X492572Y355883D01*
X492644Y355958D01*
X492652Y355976D01*
X492665Y355991D01*
X492704Y356087D01*
X492747Y356181D01*
X492749Y356201D01*
X492757Y356219D01*
X492775Y356386D01*
X492775Y366939D01*
X492761Y367029D01*
X492753Y367120D01*
X492741Y367150D01*
X492736Y367182D01*
X492693Y367262D01*
X492657Y367346D01*
X492631Y367378D01*
X492620Y367399D01*
X492597Y367421D01*
X492552Y367477D01*
X488795Y371235D01*
X488700Y371303D01*
X488606Y371373D01*
X488600Y371375D01*
X488595Y371378D01*
X488484Y371412D01*
X488372Y371449D01*
X488366Y371449D01*
X488360Y371451D01*
X488243Y371448D01*
X488126Y371446D01*
X488119Y371444D01*
X488114Y371444D01*
X488097Y371438D01*
X487965Y371400D01*
X484773Y370077D01*
X480427Y370077D01*
X476413Y371740D01*
X473340Y374813D01*
X471677Y378827D01*
X471677Y383173D01*
X473340Y387187D01*
X476413Y390260D01*
X480427Y391923D01*
X484773Y391923D01*
X488787Y390260D01*
X491860Y387187D01*
X493523Y383173D01*
X493523Y378827D01*
X492200Y375635D01*
X492174Y375521D01*
X492145Y375408D01*
X492146Y375401D01*
X492144Y375395D01*
X492155Y375279D01*
X492164Y375162D01*
X492167Y375157D01*
X492167Y375150D01*
X492215Y375043D01*
X492261Y374936D01*
X492265Y374930D01*
X492267Y374926D01*
X492280Y374912D01*
X492365Y374805D01*
X497825Y369346D01*
X497825Y356386D01*
X497828Y356366D01*
X497826Y356347D01*
X497848Y356245D01*
X497864Y356143D01*
X497874Y356126D01*
X497878Y356106D01*
X497931Y356017D01*
X497980Y355926D01*
X497994Y355912D01*
X498004Y355895D01*
X498083Y355828D01*
X498158Y355756D01*
X498176Y355748D01*
X498191Y355735D01*
X498287Y355696D01*
X498381Y355653D01*
X498401Y355651D01*
X498419Y355643D01*
X498586Y355625D01*
X506232Y355625D01*
X507125Y354732D01*
X507125Y340768D01*
X506232Y339875D01*
X484368Y339875D01*
G37*
%LPD*%
%LPC*%
G36*
X408168Y339875D02*
X408168Y339875D01*
X407275Y340768D01*
X407275Y354732D01*
X408168Y355625D01*
X415814Y355625D01*
X415834Y355628D01*
X415853Y355626D01*
X415955Y355648D01*
X416057Y355664D01*
X416074Y355674D01*
X416094Y355678D01*
X416183Y355731D01*
X416274Y355780D01*
X416288Y355794D01*
X416305Y355804D01*
X416372Y355883D01*
X416444Y355958D01*
X416452Y355976D01*
X416465Y355991D01*
X416504Y356087D01*
X416547Y356181D01*
X416549Y356201D01*
X416557Y356219D01*
X416575Y356386D01*
X416575Y369346D01*
X422035Y374805D01*
X422103Y374900D01*
X422173Y374994D01*
X422175Y375000D01*
X422178Y375005D01*
X422212Y375116D01*
X422249Y375228D01*
X422249Y375234D01*
X422251Y375240D01*
X422248Y375357D01*
X422246Y375474D01*
X422244Y375481D01*
X422244Y375486D01*
X422238Y375503D01*
X422200Y375635D01*
X420877Y378827D01*
X420877Y383173D01*
X422540Y387187D01*
X425613Y390260D01*
X429627Y391923D01*
X433973Y391923D01*
X437987Y390260D01*
X441060Y387187D01*
X442723Y383173D01*
X442723Y378827D01*
X441060Y374813D01*
X437987Y371740D01*
X433973Y370077D01*
X429627Y370077D01*
X426435Y371400D01*
X426321Y371426D01*
X426208Y371455D01*
X426201Y371454D01*
X426195Y371456D01*
X426079Y371445D01*
X425962Y371436D01*
X425957Y371433D01*
X425950Y371433D01*
X425843Y371385D01*
X425736Y371339D01*
X425730Y371335D01*
X425726Y371333D01*
X425712Y371320D01*
X425605Y371235D01*
X421848Y367477D01*
X421795Y367403D01*
X421735Y367334D01*
X421723Y367304D01*
X421704Y367277D01*
X421677Y367190D01*
X421643Y367106D01*
X421639Y367065D01*
X421632Y367042D01*
X421633Y367010D01*
X421625Y366939D01*
X421625Y356386D01*
X421628Y356366D01*
X421626Y356347D01*
X421648Y356245D01*
X421664Y356143D01*
X421674Y356126D01*
X421678Y356106D01*
X421731Y356017D01*
X421780Y355926D01*
X421794Y355912D01*
X421804Y355895D01*
X421883Y355828D01*
X421958Y355756D01*
X421976Y355748D01*
X421991Y355735D01*
X422087Y355696D01*
X422181Y355653D01*
X422201Y355651D01*
X422219Y355643D01*
X422386Y355625D01*
X430032Y355625D01*
X430925Y354732D01*
X430925Y340768D01*
X430032Y339875D01*
X408168Y339875D01*
G37*
%LPD*%
%LPC*%
G36*
X357718Y236675D02*
X357718Y236675D01*
X356825Y237568D01*
X356825Y260832D01*
X357718Y261725D01*
X358064Y261725D01*
X358084Y261728D01*
X358103Y261726D01*
X358205Y261748D01*
X358307Y261764D01*
X358324Y261774D01*
X358344Y261778D01*
X358433Y261831D01*
X358524Y261880D01*
X358538Y261894D01*
X358555Y261904D01*
X358622Y261983D01*
X358694Y262058D01*
X358702Y262076D01*
X358715Y262091D01*
X358754Y262187D01*
X358797Y262281D01*
X358799Y262301D01*
X358807Y262319D01*
X358825Y262486D01*
X358825Y292839D01*
X358811Y292929D01*
X358803Y293020D01*
X358791Y293050D01*
X358786Y293082D01*
X358743Y293162D01*
X358707Y293246D01*
X358681Y293278D01*
X358670Y293299D01*
X358647Y293321D01*
X358602Y293377D01*
X347427Y304552D01*
X347353Y304605D01*
X347284Y304665D01*
X347254Y304677D01*
X347227Y304696D01*
X347140Y304723D01*
X347056Y304757D01*
X347015Y304761D01*
X346992Y304768D01*
X346960Y304767D01*
X346889Y304775D01*
X331968Y304775D01*
X331075Y305668D01*
X331075Y319632D01*
X331968Y320525D01*
X353832Y320525D01*
X354725Y319632D01*
X354725Y305668D01*
X354627Y305570D01*
X354615Y305554D01*
X354599Y305542D01*
X354544Y305455D01*
X354483Y305371D01*
X354477Y305352D01*
X354466Y305335D01*
X354441Y305235D01*
X354411Y305136D01*
X354411Y305116D01*
X354406Y305096D01*
X354414Y304993D01*
X354417Y304890D01*
X354424Y304871D01*
X354426Y304851D01*
X354466Y304756D01*
X354502Y304659D01*
X354514Y304643D01*
X354522Y304625D01*
X354627Y304494D01*
X362173Y296948D01*
X363875Y295246D01*
X363875Y262486D01*
X363878Y262466D01*
X363876Y262447D01*
X363898Y262345D01*
X363914Y262243D01*
X363924Y262226D01*
X363928Y262206D01*
X363981Y262117D01*
X364030Y262026D01*
X364044Y262012D01*
X364054Y261995D01*
X364133Y261928D01*
X364208Y261856D01*
X364226Y261848D01*
X364241Y261835D01*
X364337Y261796D01*
X364431Y261753D01*
X364451Y261751D01*
X364469Y261743D01*
X364636Y261725D01*
X364982Y261725D01*
X365875Y260832D01*
X365875Y237568D01*
X364982Y236675D01*
X357718Y236675D01*
G37*
%LPD*%
%LPC*%
G36*
X370418Y236675D02*
X370418Y236675D01*
X369525Y237568D01*
X369525Y260832D01*
X370418Y261725D01*
X370764Y261725D01*
X370784Y261728D01*
X370803Y261726D01*
X370905Y261748D01*
X371007Y261764D01*
X371024Y261774D01*
X371044Y261778D01*
X371133Y261831D01*
X371224Y261880D01*
X371238Y261894D01*
X371255Y261904D01*
X371322Y261983D01*
X371394Y262058D01*
X371402Y262076D01*
X371415Y262091D01*
X371454Y262187D01*
X371497Y262281D01*
X371499Y262301D01*
X371507Y262319D01*
X371525Y262486D01*
X371525Y291276D01*
X378252Y298003D01*
X378305Y298077D01*
X378365Y298146D01*
X378377Y298176D01*
X378396Y298203D01*
X378423Y298290D01*
X378457Y298374D01*
X378461Y298415D01*
X378468Y298438D01*
X378467Y298470D01*
X378475Y298541D01*
X378475Y304014D01*
X378473Y304029D01*
X378474Y304043D01*
X378473Y304046D01*
X378474Y304053D01*
X378452Y304155D01*
X378436Y304257D01*
X378426Y304274D01*
X378422Y304294D01*
X378369Y304383D01*
X378320Y304474D01*
X378306Y304488D01*
X378296Y304505D01*
X378217Y304572D01*
X378142Y304644D01*
X378124Y304652D01*
X378109Y304665D01*
X378013Y304704D01*
X377919Y304747D01*
X377899Y304749D01*
X377881Y304757D01*
X377714Y304775D01*
X370068Y304775D01*
X369175Y305668D01*
X369175Y319632D01*
X370068Y320525D01*
X391932Y320525D01*
X392825Y319632D01*
X392825Y305668D01*
X391932Y304775D01*
X384286Y304775D01*
X384266Y304772D01*
X384247Y304774D01*
X384145Y304752D01*
X384043Y304736D01*
X384026Y304726D01*
X384006Y304722D01*
X383917Y304669D01*
X383826Y304620D01*
X383812Y304606D01*
X383795Y304596D01*
X383728Y304517D01*
X383656Y304442D01*
X383648Y304424D01*
X383635Y304409D01*
X383596Y304313D01*
X383553Y304219D01*
X383551Y304199D01*
X383543Y304181D01*
X383525Y304014D01*
X383525Y296134D01*
X381823Y294432D01*
X376798Y289407D01*
X376745Y289333D01*
X376685Y289264D01*
X376673Y289234D01*
X376654Y289207D01*
X376627Y289120D01*
X376593Y289036D01*
X376589Y288995D01*
X376582Y288972D01*
X376583Y288940D01*
X376575Y288869D01*
X376575Y262486D01*
X376578Y262466D01*
X376576Y262447D01*
X376598Y262345D01*
X376614Y262243D01*
X376624Y262226D01*
X376628Y262206D01*
X376681Y262117D01*
X376730Y262026D01*
X376744Y262012D01*
X376754Y261995D01*
X376833Y261928D01*
X376908Y261856D01*
X376926Y261848D01*
X376941Y261835D01*
X377037Y261796D01*
X377131Y261753D01*
X377151Y261751D01*
X377169Y261743D01*
X377336Y261725D01*
X377682Y261725D01*
X378575Y260832D01*
X378575Y237568D01*
X377682Y236675D01*
X370418Y236675D01*
G37*
%LPD*%
%LPC*%
G36*
X446268Y339875D02*
X446268Y339875D01*
X445375Y340768D01*
X445375Y354732D01*
X446268Y355625D01*
X453914Y355625D01*
X453934Y355628D01*
X453953Y355626D01*
X454055Y355648D01*
X454157Y355664D01*
X454174Y355674D01*
X454194Y355678D01*
X454283Y355731D01*
X454374Y355780D01*
X454388Y355794D01*
X454405Y355804D01*
X454472Y355883D01*
X454544Y355958D01*
X454552Y355976D01*
X454565Y355991D01*
X454604Y356087D01*
X454647Y356181D01*
X454649Y356201D01*
X454657Y356219D01*
X454675Y356386D01*
X454675Y369714D01*
X454656Y369829D01*
X454639Y369945D01*
X454637Y369951D01*
X454636Y369957D01*
X454581Y370060D01*
X454528Y370165D01*
X454523Y370169D01*
X454520Y370175D01*
X454436Y370254D01*
X454352Y370337D01*
X454346Y370341D01*
X454342Y370344D01*
X454325Y370352D01*
X454205Y370418D01*
X451013Y371740D01*
X447940Y374813D01*
X446277Y378827D01*
X446277Y383173D01*
X447940Y387187D01*
X451013Y390260D01*
X455027Y391923D01*
X459373Y391923D01*
X463387Y390260D01*
X466460Y387187D01*
X468123Y383173D01*
X468123Y378827D01*
X466460Y374813D01*
X463387Y371740D01*
X460195Y370418D01*
X460095Y370356D01*
X459995Y370296D01*
X459991Y370291D01*
X459986Y370288D01*
X459911Y370198D01*
X459835Y370109D01*
X459833Y370103D01*
X459829Y370099D01*
X459787Y369990D01*
X459743Y369881D01*
X459742Y369874D01*
X459741Y369869D01*
X459740Y369851D01*
X459725Y369714D01*
X459725Y356386D01*
X459728Y356366D01*
X459726Y356347D01*
X459748Y356245D01*
X459764Y356143D01*
X459774Y356126D01*
X459778Y356106D01*
X459831Y356017D01*
X459880Y355926D01*
X459894Y355912D01*
X459904Y355895D01*
X459983Y355828D01*
X460058Y355756D01*
X460076Y355748D01*
X460091Y355735D01*
X460187Y355696D01*
X460281Y355653D01*
X460301Y355651D01*
X460319Y355643D01*
X460486Y355625D01*
X468132Y355625D01*
X469025Y354732D01*
X469025Y340768D01*
X468132Y339875D01*
X446268Y339875D01*
G37*
%LPD*%
%LPC*%
G36*
X191368Y267575D02*
X191368Y267575D01*
X190475Y268468D01*
X190475Y275844D01*
X190473Y275861D01*
X190474Y275876D01*
X190474Y275879D01*
X190474Y275883D01*
X190452Y275985D01*
X190436Y276087D01*
X190426Y276104D01*
X190422Y276124D01*
X190369Y276213D01*
X190320Y276304D01*
X190306Y276318D01*
X190296Y276335D01*
X190217Y276402D01*
X190142Y276474D01*
X190124Y276482D01*
X190109Y276495D01*
X190013Y276534D01*
X189919Y276577D01*
X189899Y276579D01*
X189881Y276587D01*
X189714Y276605D01*
X189342Y276605D01*
X179377Y286570D01*
X179303Y286623D01*
X179234Y286683D01*
X179204Y286695D01*
X179178Y286714D01*
X179091Y286741D01*
X179006Y286775D01*
X178965Y286779D01*
X178943Y286786D01*
X178910Y286785D01*
X178839Y286793D01*
X175602Y286793D01*
X172493Y289902D01*
X172493Y294298D01*
X175602Y297407D01*
X179998Y297407D01*
X183107Y294298D01*
X183107Y291061D01*
X183110Y291042D01*
X183108Y291023D01*
X183123Y290953D01*
X183129Y290880D01*
X183141Y290850D01*
X183146Y290818D01*
X183156Y290800D01*
X183160Y290782D01*
X183195Y290723D01*
X183225Y290654D01*
X183251Y290622D01*
X183262Y290601D01*
X183277Y290586D01*
X183286Y290571D01*
X183301Y290558D01*
X183330Y290523D01*
X189176Y284677D01*
X189234Y284635D01*
X189286Y284585D01*
X189333Y284563D01*
X189375Y284533D01*
X189444Y284512D01*
X189509Y284482D01*
X189561Y284476D01*
X189611Y284461D01*
X189682Y284463D01*
X189753Y284455D01*
X189804Y284466D01*
X189856Y284467D01*
X189924Y284492D01*
X189994Y284507D01*
X190039Y284534D01*
X190087Y284552D01*
X190143Y284596D01*
X190205Y284633D01*
X190239Y284673D01*
X190279Y284705D01*
X190318Y284766D01*
X190365Y284820D01*
X190384Y284868D01*
X190412Y284912D01*
X190430Y284982D01*
X190457Y285048D01*
X190465Y285120D01*
X190473Y285151D01*
X190471Y285174D01*
X190475Y285215D01*
X190475Y290332D01*
X191368Y291225D01*
X205332Y291225D01*
X206225Y290332D01*
X206225Y268468D01*
X205332Y267575D01*
X191368Y267575D01*
G37*
%LPD*%
%LPC*%
G36*
X33084Y323053D02*
X33084Y323053D01*
X28509Y324948D01*
X25008Y328449D01*
X23113Y333024D01*
X23113Y337976D01*
X25008Y342551D01*
X28509Y346052D01*
X33084Y347947D01*
X38036Y347947D01*
X42611Y346052D01*
X46112Y342551D01*
X48007Y337976D01*
X48007Y333024D01*
X46112Y328449D01*
X42611Y324948D01*
X38036Y323053D01*
X33084Y323053D01*
G37*
%LPD*%
%LPC*%
G36*
X226468Y267575D02*
X226468Y267575D01*
X225575Y268468D01*
X225575Y290332D01*
X226468Y291225D01*
X240432Y291225D01*
X241325Y290332D01*
X241325Y278607D01*
X241336Y278537D01*
X241338Y278465D01*
X241356Y278416D01*
X241364Y278365D01*
X241398Y278301D01*
X241423Y278234D01*
X241455Y278193D01*
X241480Y278147D01*
X241532Y278098D01*
X241576Y278042D01*
X241620Y278014D01*
X241658Y277978D01*
X241723Y277948D01*
X241783Y277909D01*
X241834Y277896D01*
X241881Y277874D01*
X241952Y277866D01*
X242022Y277849D01*
X242074Y277853D01*
X242125Y277847D01*
X242196Y277862D01*
X242267Y277868D01*
X242315Y277888D01*
X242366Y277899D01*
X242427Y277936D01*
X242493Y277964D01*
X242549Y278009D01*
X242577Y278026D01*
X242592Y278043D01*
X242624Y278069D01*
X244182Y279627D01*
X248578Y279627D01*
X251687Y276518D01*
X251687Y272122D01*
X248578Y269013D01*
X244182Y269013D01*
X242624Y270571D01*
X242566Y270613D01*
X242514Y270662D01*
X242467Y270684D01*
X242425Y270714D01*
X242356Y270736D01*
X242291Y270766D01*
X242239Y270771D01*
X242189Y270787D01*
X242118Y270785D01*
X242047Y270793D01*
X241996Y270782D01*
X241944Y270780D01*
X241876Y270756D01*
X241806Y270741D01*
X241761Y270714D01*
X241713Y270696D01*
X241657Y270651D01*
X241595Y270614D01*
X241561Y270575D01*
X241521Y270542D01*
X241482Y270482D01*
X241435Y270427D01*
X241416Y270379D01*
X241388Y270335D01*
X241370Y270266D01*
X241343Y270199D01*
X241335Y270128D01*
X241327Y270097D01*
X241329Y270074D01*
X241325Y270033D01*
X241325Y268468D01*
X240432Y267575D01*
X226468Y267575D01*
G37*
%LPD*%
%LPC*%
G36*
X431659Y62483D02*
X431659Y62483D01*
X427645Y64146D01*
X424572Y67219D01*
X422909Y71233D01*
X422909Y75579D01*
X424572Y79593D01*
X427645Y82666D01*
X431659Y84329D01*
X436005Y84329D01*
X440019Y82666D01*
X443092Y79593D01*
X444755Y75579D01*
X444755Y71233D01*
X443092Y67219D01*
X440019Y64146D01*
X436005Y62483D01*
X431659Y62483D01*
G37*
%LPD*%
%LPC*%
G36*
X485507Y182117D02*
X485507Y182117D01*
X481493Y183780D01*
X478420Y186853D01*
X476757Y190867D01*
X476757Y195213D01*
X478420Y199227D01*
X481493Y202300D01*
X485507Y203963D01*
X489853Y203963D01*
X493867Y202300D01*
X496940Y199227D01*
X498603Y195213D01*
X498603Y190867D01*
X496940Y186853D01*
X493867Y183780D01*
X489853Y182117D01*
X485507Y182117D01*
G37*
%LPD*%
%LPC*%
G36*
X549515Y62483D02*
X549515Y62483D01*
X545501Y64146D01*
X542428Y67219D01*
X540765Y71233D01*
X540765Y75579D01*
X542428Y79593D01*
X545501Y82666D01*
X549515Y84329D01*
X553861Y84329D01*
X557875Y82666D01*
X560948Y79593D01*
X562611Y75579D01*
X562611Y71233D01*
X560948Y67219D01*
X557875Y64146D01*
X553861Y62483D01*
X549515Y62483D01*
G37*
%LPD*%
%LPC*%
G36*
X523099Y62483D02*
X523099Y62483D01*
X519085Y64146D01*
X516012Y67219D01*
X514349Y71233D01*
X514349Y75579D01*
X516012Y79593D01*
X519085Y82666D01*
X523099Y84329D01*
X527445Y84329D01*
X531459Y82666D01*
X534532Y79593D01*
X536195Y75579D01*
X536195Y71233D01*
X534532Y67219D01*
X531459Y64146D01*
X527445Y62483D01*
X523099Y62483D01*
G37*
%LPD*%
%LPC*%
G36*
X645527Y217677D02*
X645527Y217677D01*
X641513Y219340D01*
X638440Y222413D01*
X636777Y226427D01*
X636777Y230773D01*
X638440Y234787D01*
X641513Y237860D01*
X645527Y239523D01*
X649873Y239523D01*
X653887Y237860D01*
X656960Y234787D01*
X658623Y230773D01*
X658623Y226427D01*
X656960Y222413D01*
X653887Y219340D01*
X649873Y217677D01*
X645527Y217677D01*
G37*
%LPD*%
%LPC*%
G36*
X549515Y17271D02*
X549515Y17271D01*
X545501Y18934D01*
X542428Y22007D01*
X540765Y26021D01*
X540765Y30367D01*
X542428Y34381D01*
X545501Y37454D01*
X549515Y39117D01*
X553861Y39117D01*
X557875Y37454D01*
X560948Y34381D01*
X562611Y30367D01*
X562611Y26021D01*
X560948Y22007D01*
X557875Y18934D01*
X553861Y17271D01*
X549515Y17271D01*
G37*
%LPD*%
%LPC*%
G36*
X645527Y52577D02*
X645527Y52577D01*
X641513Y54240D01*
X638440Y57313D01*
X636777Y61327D01*
X636777Y65673D01*
X638440Y69687D01*
X641513Y72760D01*
X645527Y74423D01*
X649873Y74423D01*
X653887Y72760D01*
X656960Y69687D01*
X658623Y65673D01*
X658623Y61327D01*
X656960Y57313D01*
X653887Y54240D01*
X649873Y52577D01*
X645527Y52577D01*
G37*
%LPD*%
%LPC*%
G36*
X645527Y166877D02*
X645527Y166877D01*
X641513Y168540D01*
X638440Y171613D01*
X636777Y175627D01*
X636777Y179973D01*
X638440Y183987D01*
X641513Y187060D01*
X645527Y188723D01*
X649873Y188723D01*
X653887Y187060D01*
X656960Y183987D01*
X658623Y179973D01*
X658623Y175627D01*
X656960Y171613D01*
X653887Y168540D01*
X649873Y166877D01*
X645527Y166877D01*
G37*
%LPD*%
%LPC*%
G36*
X523099Y17271D02*
X523099Y17271D01*
X519085Y18934D01*
X516012Y22007D01*
X514349Y26021D01*
X514349Y30367D01*
X516012Y34381D01*
X519085Y37454D01*
X523099Y39117D01*
X527445Y39117D01*
X531459Y37454D01*
X534532Y34381D01*
X536195Y30367D01*
X536195Y26021D01*
X534532Y22007D01*
X531459Y18934D01*
X527445Y17271D01*
X523099Y17271D01*
G37*
%LPD*%
%LPC*%
G36*
X485507Y232917D02*
X485507Y232917D01*
X481493Y234580D01*
X478420Y237653D01*
X476757Y241667D01*
X476757Y246013D01*
X478420Y250027D01*
X481493Y253100D01*
X485507Y254763D01*
X489853Y254763D01*
X493867Y253100D01*
X496940Y250027D01*
X498603Y246013D01*
X498603Y241667D01*
X496940Y237653D01*
X493867Y234580D01*
X489853Y232917D01*
X485507Y232917D01*
G37*
%LPD*%
%LPC*%
G36*
X99427Y359917D02*
X99427Y359917D01*
X95413Y361580D01*
X92340Y364653D01*
X90677Y368667D01*
X90677Y373013D01*
X92340Y377027D01*
X95413Y380100D01*
X99427Y381763D01*
X103773Y381763D01*
X107787Y380100D01*
X110860Y377027D01*
X112523Y373013D01*
X112523Y368667D01*
X110860Y364653D01*
X107787Y361580D01*
X103773Y359917D01*
X99427Y359917D01*
G37*
%LPD*%
%LPC*%
G36*
X251827Y359917D02*
X251827Y359917D01*
X247813Y361580D01*
X244740Y364653D01*
X243077Y368667D01*
X243077Y373013D01*
X244740Y377027D01*
X247813Y380100D01*
X251827Y381763D01*
X256173Y381763D01*
X260187Y380100D01*
X263260Y377027D01*
X264923Y373013D01*
X264923Y368667D01*
X263260Y364653D01*
X260187Y361580D01*
X256173Y359917D01*
X251827Y359917D01*
G37*
%LPD*%
%LPC*%
G36*
X645527Y103377D02*
X645527Y103377D01*
X641513Y105040D01*
X638440Y108113D01*
X636777Y112127D01*
X636777Y116473D01*
X638440Y120487D01*
X641513Y123560D01*
X645527Y125223D01*
X649873Y125223D01*
X653887Y123560D01*
X656960Y120487D01*
X658623Y116473D01*
X658623Y112127D01*
X656960Y108113D01*
X653887Y105040D01*
X649873Y103377D01*
X645527Y103377D01*
G37*
%LPD*%
%LPC*%
G36*
X431659Y17271D02*
X431659Y17271D01*
X427645Y18934D01*
X424572Y22007D01*
X422909Y26021D01*
X422909Y30367D01*
X424572Y34381D01*
X427645Y37454D01*
X431659Y39117D01*
X436005Y39117D01*
X440019Y37454D01*
X443092Y34381D01*
X444755Y30367D01*
X444755Y26021D01*
X443092Y22007D01*
X440019Y18934D01*
X436005Y17271D01*
X431659Y17271D01*
G37*
%LPD*%
%LPC*%
G36*
X195528Y232735D02*
X195528Y232735D01*
X194635Y233628D01*
X194635Y248972D01*
X195528Y249865D01*
X210872Y249865D01*
X211765Y248972D01*
X211765Y233628D01*
X210872Y232735D01*
X195528Y232735D01*
G37*
%LPD*%
%LPC*%
G36*
X144728Y80335D02*
X144728Y80335D01*
X143835Y81228D01*
X143835Y96572D01*
X144728Y97465D01*
X160072Y97465D01*
X160965Y96572D01*
X160965Y81228D01*
X160072Y80335D01*
X144728Y80335D01*
G37*
%LPD*%
%LPC*%
G36*
X93928Y80335D02*
X93928Y80335D01*
X93035Y81228D01*
X93035Y96572D01*
X93928Y97465D01*
X109272Y97465D01*
X110165Y96572D01*
X110165Y81228D01*
X109272Y80335D01*
X93928Y80335D01*
G37*
%LPD*%
%LPC*%
G36*
X68528Y80335D02*
X68528Y80335D01*
X67635Y81228D01*
X67635Y96572D01*
X68528Y97465D01*
X83872Y97465D01*
X84765Y96572D01*
X84765Y81228D01*
X83872Y80335D01*
X68528Y80335D01*
G37*
%LPD*%
%LPC*%
G36*
X17728Y80335D02*
X17728Y80335D01*
X16835Y81228D01*
X16835Y96572D01*
X17728Y97465D01*
X33072Y97465D01*
X33965Y96572D01*
X33965Y81228D01*
X33072Y80335D01*
X17728Y80335D01*
G37*
%LPD*%
%LPC*%
G36*
X43128Y80335D02*
X43128Y80335D01*
X42235Y81228D01*
X42235Y96572D01*
X43128Y97465D01*
X58472Y97465D01*
X59365Y96572D01*
X59365Y81228D01*
X58472Y80335D01*
X43128Y80335D01*
G37*
%LPD*%
%LPC*%
G36*
X220928Y232735D02*
X220928Y232735D01*
X220035Y233628D01*
X220035Y248972D01*
X220928Y249865D01*
X236272Y249865D01*
X237165Y248972D01*
X237165Y233628D01*
X236272Y232735D01*
X220928Y232735D01*
G37*
%LPD*%
%LPC*%
G36*
X170128Y232735D02*
X170128Y232735D01*
X169235Y233628D01*
X169235Y248972D01*
X170128Y249865D01*
X185472Y249865D01*
X186365Y248972D01*
X186365Y233628D01*
X185472Y232735D01*
X170128Y232735D01*
G37*
%LPD*%
%LPC*%
G36*
X144728Y232735D02*
X144728Y232735D01*
X143835Y233628D01*
X143835Y248972D01*
X144728Y249865D01*
X160072Y249865D01*
X160965Y248972D01*
X160965Y233628D01*
X160072Y232735D01*
X144728Y232735D01*
G37*
%LPD*%
%LPC*%
G36*
X119328Y232735D02*
X119328Y232735D01*
X118435Y233628D01*
X118435Y248972D01*
X119328Y249865D01*
X134672Y249865D01*
X135565Y248972D01*
X135565Y233628D01*
X134672Y232735D01*
X119328Y232735D01*
G37*
%LPD*%
%LPC*%
G36*
X68528Y232735D02*
X68528Y232735D01*
X67635Y233628D01*
X67635Y248972D01*
X68528Y249865D01*
X83872Y249865D01*
X84765Y248972D01*
X84765Y233628D01*
X83872Y232735D01*
X68528Y232735D01*
G37*
%LPD*%
%LPC*%
G36*
X93928Y232735D02*
X93928Y232735D01*
X93035Y233628D01*
X93035Y248972D01*
X93928Y249865D01*
X109272Y249865D01*
X110165Y248972D01*
X110165Y233628D01*
X109272Y232735D01*
X93928Y232735D01*
G37*
%LPD*%
%LPC*%
G36*
X246328Y232735D02*
X246328Y232735D01*
X245435Y233628D01*
X245435Y248972D01*
X246328Y249865D01*
X261672Y249865D01*
X262565Y248972D01*
X262565Y233628D01*
X261672Y232735D01*
X246328Y232735D01*
G37*
%LPD*%
%LPC*%
G36*
X371018Y144675D02*
X371018Y144675D01*
X370125Y145568D01*
X370125Y168832D01*
X371018Y169725D01*
X378282Y169725D01*
X379175Y168832D01*
X379175Y145568D01*
X378282Y144675D01*
X371018Y144675D01*
G37*
%LPD*%
%LPC*%
G36*
X383718Y144675D02*
X383718Y144675D01*
X382825Y145568D01*
X382825Y168832D01*
X383718Y169725D01*
X390982Y169725D01*
X391875Y168832D01*
X391875Y145568D01*
X390982Y144675D01*
X383718Y144675D01*
G37*
%LPD*%
%LPC*%
G36*
X37083Y302023D02*
X37083Y302023D01*
X37083Y313889D01*
X38712Y313631D01*
X40728Y312976D01*
X42616Y312014D01*
X44330Y310769D01*
X45829Y309270D01*
X47074Y307556D01*
X48036Y305668D01*
X48691Y303652D01*
X48949Y302023D01*
X37083Y302023D01*
G37*
%LPD*%
%LPC*%
G36*
X37083Y298977D02*
X37083Y298977D01*
X48949Y298977D01*
X48691Y297348D01*
X48036Y295332D01*
X47074Y293444D01*
X45829Y291730D01*
X44330Y290231D01*
X42616Y288986D01*
X40728Y288024D01*
X38712Y287369D01*
X37083Y287111D01*
X37083Y298977D01*
G37*
%LPD*%
%LPC*%
G36*
X22171Y302023D02*
X22171Y302023D01*
X22429Y303652D01*
X23084Y305668D01*
X24046Y307556D01*
X25291Y309270D01*
X26790Y310769D01*
X28504Y312014D01*
X30392Y312976D01*
X32408Y313631D01*
X34037Y313889D01*
X34037Y302023D01*
X22171Y302023D01*
G37*
%LPD*%
%LPC*%
G36*
X32408Y287369D02*
X32408Y287369D01*
X30392Y288024D01*
X28504Y288986D01*
X26790Y290231D01*
X25291Y291730D01*
X24046Y293444D01*
X23084Y295332D01*
X22429Y297348D01*
X22171Y298977D01*
X34037Y298977D01*
X34037Y287111D01*
X32408Y287369D01*
G37*
%LPD*%
%LPC*%
G36*
X331723Y178053D02*
X331723Y178053D01*
X331723Y185421D01*
X340694Y185421D01*
X341341Y185248D01*
X341920Y184913D01*
X342393Y184440D01*
X342728Y183861D01*
X342901Y183214D01*
X342901Y178053D01*
X331723Y178053D01*
G37*
%LPD*%
%LPC*%
G36*
X317499Y178053D02*
X317499Y178053D01*
X317499Y183214D01*
X317672Y183861D01*
X318007Y184440D01*
X318480Y184913D01*
X319059Y185248D01*
X319706Y185421D01*
X328677Y185421D01*
X328677Y178053D01*
X317499Y178053D01*
G37*
%LPD*%
%LPC*%
G36*
X331723Y167639D02*
X331723Y167639D01*
X331723Y175007D01*
X342901Y175007D01*
X342901Y169846D01*
X342728Y169199D01*
X342393Y168620D01*
X341920Y168147D01*
X341341Y167812D01*
X340694Y167639D01*
X331723Y167639D01*
G37*
%LPD*%
%LPC*%
G36*
X319706Y167639D02*
X319706Y167639D01*
X319059Y167812D01*
X318480Y168147D01*
X318007Y168620D01*
X317672Y169199D01*
X317499Y169846D01*
X317499Y175007D01*
X328677Y175007D01*
X328677Y167639D01*
X319706Y167639D01*
G37*
%LPD*%
%LPC*%
G36*
X649223Y90423D02*
X649223Y90423D01*
X649223Y100746D01*
X650496Y100545D01*
X652283Y99964D01*
X653957Y99111D01*
X655478Y98006D01*
X656806Y96678D01*
X657911Y95157D01*
X658764Y93483D01*
X659345Y91696D01*
X659546Y90423D01*
X649223Y90423D01*
G37*
%LPD*%
%LPC*%
G36*
X649223Y141223D02*
X649223Y141223D01*
X649223Y151546D01*
X650496Y151345D01*
X652283Y150764D01*
X653957Y149911D01*
X655478Y148806D01*
X656806Y147478D01*
X657911Y145957D01*
X658764Y144283D01*
X659345Y142496D01*
X659546Y141223D01*
X649223Y141223D01*
G37*
%LPD*%
%LPC*%
G36*
X461771Y74929D02*
X461771Y74929D01*
X461771Y85252D01*
X463044Y85051D01*
X464831Y84470D01*
X466505Y83617D01*
X468026Y82512D01*
X469354Y81184D01*
X470459Y79663D01*
X471312Y77989D01*
X471893Y76202D01*
X472094Y74929D01*
X461771Y74929D01*
G37*
%LPD*%
%LPC*%
G36*
X370331Y74929D02*
X370331Y74929D01*
X370331Y85252D01*
X371604Y85051D01*
X373391Y84470D01*
X375065Y83617D01*
X376586Y82512D01*
X377914Y81184D01*
X379019Y79663D01*
X379872Y77989D01*
X380453Y76202D01*
X380654Y74929D01*
X370331Y74929D01*
G37*
%LPD*%
%LPC*%
G36*
X585723Y382523D02*
X585723Y382523D01*
X585723Y392846D01*
X586996Y392645D01*
X588783Y392064D01*
X590457Y391211D01*
X591978Y390106D01*
X593306Y388778D01*
X594411Y387257D01*
X595264Y385583D01*
X595845Y383796D01*
X596046Y382523D01*
X585723Y382523D01*
G37*
%LPD*%
%LPC*%
G36*
X489203Y169163D02*
X489203Y169163D01*
X489203Y179486D01*
X490476Y179285D01*
X492263Y178704D01*
X493937Y177851D01*
X495458Y176746D01*
X496786Y175418D01*
X497891Y173897D01*
X498744Y172223D01*
X499325Y170436D01*
X499526Y169163D01*
X489203Y169163D01*
G37*
%LPD*%
%LPC*%
G36*
X128523Y49783D02*
X128523Y49783D01*
X128523Y60106D01*
X129796Y59905D01*
X131583Y59324D01*
X133257Y58471D01*
X134778Y57366D01*
X136106Y56038D01*
X137211Y54517D01*
X138064Y52843D01*
X138645Y51056D01*
X138846Y49783D01*
X128523Y49783D01*
G37*
%LPD*%
%LPC*%
G36*
X649223Y204723D02*
X649223Y204723D01*
X649223Y215046D01*
X650496Y214845D01*
X652283Y214264D01*
X653957Y213411D01*
X655478Y212306D01*
X656806Y210978D01*
X657911Y209457D01*
X658764Y207783D01*
X659345Y205996D01*
X659546Y204723D01*
X649223Y204723D01*
G37*
%LPD*%
%LPC*%
G36*
X618235Y29717D02*
X618235Y29717D01*
X618235Y40040D01*
X619508Y39839D01*
X621295Y39258D01*
X622969Y38405D01*
X624490Y37300D01*
X625818Y35972D01*
X626923Y34451D01*
X627776Y32777D01*
X628357Y30990D01*
X628558Y29717D01*
X618235Y29717D01*
G37*
%LPD*%
%LPC*%
G36*
X489203Y219963D02*
X489203Y219963D01*
X489203Y230286D01*
X490476Y230085D01*
X492263Y229504D01*
X493937Y228651D01*
X495458Y227546D01*
X496786Y226218D01*
X497891Y224697D01*
X498744Y223023D01*
X499325Y221236D01*
X499526Y219963D01*
X489203Y219963D01*
G37*
%LPD*%
%LPC*%
G36*
X649223Y255523D02*
X649223Y255523D01*
X649223Y265846D01*
X650496Y265645D01*
X652283Y265064D01*
X653957Y264211D01*
X655478Y263106D01*
X656806Y261778D01*
X657911Y260257D01*
X658764Y258583D01*
X659345Y256796D01*
X659546Y255523D01*
X649223Y255523D01*
G37*
%LPD*%
%LPC*%
G36*
X649223Y138177D02*
X649223Y138177D01*
X659546Y138177D01*
X659345Y136904D01*
X658764Y135117D01*
X657911Y133443D01*
X656806Y131922D01*
X655478Y130594D01*
X653957Y129489D01*
X652283Y128636D01*
X650496Y128055D01*
X649223Y127854D01*
X649223Y138177D01*
G37*
%LPD*%
%LPC*%
G36*
X649223Y87377D02*
X649223Y87377D01*
X659546Y87377D01*
X659345Y86104D01*
X658764Y84317D01*
X657911Y82643D01*
X656806Y81122D01*
X655478Y79794D01*
X653957Y78689D01*
X652283Y77836D01*
X650496Y77255D01*
X649223Y77054D01*
X649223Y87377D01*
G37*
%LPD*%
%LPC*%
G36*
X370331Y71883D02*
X370331Y71883D01*
X380654Y71883D01*
X380453Y70610D01*
X379872Y68823D01*
X379019Y67149D01*
X377914Y65628D01*
X376586Y64300D01*
X375065Y63195D01*
X373391Y62342D01*
X371604Y61761D01*
X370331Y61560D01*
X370331Y71883D01*
G37*
%LPD*%
%LPC*%
G36*
X128523Y46737D02*
X128523Y46737D01*
X138846Y46737D01*
X138645Y45464D01*
X138064Y43677D01*
X137211Y42003D01*
X136106Y40482D01*
X134778Y39154D01*
X133257Y38049D01*
X131583Y37196D01*
X129796Y36615D01*
X128523Y36414D01*
X128523Y46737D01*
G37*
%LPD*%
%LPC*%
G36*
X604866Y29717D02*
X604866Y29717D01*
X605067Y30990D01*
X605648Y32777D01*
X606501Y34451D01*
X607606Y35972D01*
X608934Y37300D01*
X610455Y38405D01*
X612129Y39258D01*
X613916Y39839D01*
X615189Y40040D01*
X615189Y29717D01*
X604866Y29717D01*
G37*
%LPD*%
%LPC*%
G36*
X649223Y252477D02*
X649223Y252477D01*
X659546Y252477D01*
X659345Y251204D01*
X658764Y249417D01*
X657911Y247743D01*
X656806Y246222D01*
X655478Y244894D01*
X653957Y243789D01*
X652283Y242936D01*
X650496Y242355D01*
X649223Y242154D01*
X649223Y252477D01*
G37*
%LPD*%
%LPC*%
G36*
X635854Y255523D02*
X635854Y255523D01*
X636055Y256796D01*
X636636Y258583D01*
X637489Y260257D01*
X638594Y261778D01*
X639922Y263106D01*
X641443Y264211D01*
X643117Y265064D01*
X644904Y265645D01*
X646177Y265846D01*
X646177Y255523D01*
X635854Y255523D01*
G37*
%LPD*%
%LPC*%
G36*
X635854Y90423D02*
X635854Y90423D01*
X636055Y91696D01*
X636636Y93483D01*
X637489Y95157D01*
X638594Y96678D01*
X639922Y98006D01*
X641443Y99111D01*
X643117Y99964D01*
X644904Y100545D01*
X646177Y100746D01*
X646177Y90423D01*
X635854Y90423D01*
G37*
%LPD*%
%LPC*%
G36*
X635854Y141223D02*
X635854Y141223D01*
X636055Y142496D01*
X636636Y144283D01*
X637489Y145957D01*
X638594Y147478D01*
X639922Y148806D01*
X641443Y149911D01*
X643117Y150764D01*
X644904Y151345D01*
X646177Y151546D01*
X646177Y141223D01*
X635854Y141223D01*
G37*
%LPD*%
%LPC*%
G36*
X618235Y26671D02*
X618235Y26671D01*
X628558Y26671D01*
X628357Y25398D01*
X627776Y23611D01*
X626923Y21937D01*
X625818Y20416D01*
X624490Y19088D01*
X622969Y17983D01*
X621295Y17130D01*
X619508Y16549D01*
X618235Y16348D01*
X618235Y26671D01*
G37*
%LPD*%
%LPC*%
G36*
X585723Y379477D02*
X585723Y379477D01*
X596046Y379477D01*
X595845Y378204D01*
X595264Y376417D01*
X594411Y374743D01*
X593306Y373222D01*
X591978Y371894D01*
X590457Y370789D01*
X588783Y369936D01*
X586996Y369355D01*
X585723Y369154D01*
X585723Y379477D01*
G37*
%LPD*%
%LPC*%
G36*
X572354Y382523D02*
X572354Y382523D01*
X572555Y383796D01*
X573136Y385583D01*
X573989Y387257D01*
X575094Y388778D01*
X576422Y390106D01*
X577943Y391211D01*
X579617Y392064D01*
X581404Y392645D01*
X582677Y392846D01*
X582677Y382523D01*
X572354Y382523D01*
G37*
%LPD*%
%LPC*%
G36*
X489203Y166117D02*
X489203Y166117D01*
X499526Y166117D01*
X499325Y164844D01*
X498744Y163057D01*
X497891Y161383D01*
X496786Y159862D01*
X495458Y158534D01*
X493937Y157429D01*
X492263Y156576D01*
X490476Y155995D01*
X489203Y155794D01*
X489203Y166117D01*
G37*
%LPD*%
%LPC*%
G36*
X475834Y219963D02*
X475834Y219963D01*
X476035Y221236D01*
X476616Y223023D01*
X477469Y224697D01*
X478574Y226218D01*
X479902Y227546D01*
X481423Y228651D01*
X483097Y229504D01*
X484884Y230085D01*
X486157Y230286D01*
X486157Y219963D01*
X475834Y219963D01*
G37*
%LPD*%
%LPC*%
G36*
X115154Y49783D02*
X115154Y49783D01*
X115355Y51056D01*
X115936Y52843D01*
X116789Y54517D01*
X117894Y56038D01*
X119222Y57366D01*
X120743Y58471D01*
X122417Y59324D01*
X124204Y59905D01*
X125477Y60106D01*
X125477Y49783D01*
X115154Y49783D01*
G37*
%LPD*%
%LPC*%
G36*
X356962Y74929D02*
X356962Y74929D01*
X357163Y76202D01*
X357744Y77989D01*
X358597Y79663D01*
X359702Y81184D01*
X361030Y82512D01*
X362551Y83617D01*
X364225Y84470D01*
X366012Y85051D01*
X367285Y85252D01*
X367285Y74929D01*
X356962Y74929D01*
G37*
%LPD*%
%LPC*%
G36*
X489203Y216917D02*
X489203Y216917D01*
X499526Y216917D01*
X499325Y215644D01*
X498744Y213857D01*
X497891Y212183D01*
X496786Y210662D01*
X495458Y209334D01*
X493937Y208229D01*
X492263Y207376D01*
X490476Y206795D01*
X489203Y206594D01*
X489203Y216917D01*
G37*
%LPD*%
%LPC*%
G36*
X448402Y74929D02*
X448402Y74929D01*
X448603Y76202D01*
X449184Y77989D01*
X450037Y79663D01*
X451142Y81184D01*
X452470Y82512D01*
X453991Y83617D01*
X455665Y84470D01*
X457452Y85051D01*
X458725Y85252D01*
X458725Y74929D01*
X448402Y74929D01*
G37*
%LPD*%
%LPC*%
G36*
X635854Y204723D02*
X635854Y204723D01*
X636055Y205996D01*
X636636Y207783D01*
X637489Y209457D01*
X638594Y210978D01*
X639922Y212306D01*
X641443Y213411D01*
X643117Y214264D01*
X644904Y214845D01*
X646177Y215046D01*
X646177Y204723D01*
X635854Y204723D01*
G37*
%LPD*%
%LPC*%
G36*
X461771Y71883D02*
X461771Y71883D01*
X472094Y71883D01*
X471893Y70610D01*
X471312Y68823D01*
X470459Y67149D01*
X469354Y65628D01*
X468026Y64300D01*
X466505Y63195D01*
X464831Y62342D01*
X463044Y61761D01*
X461771Y61560D01*
X461771Y71883D01*
G37*
%LPD*%
%LPC*%
G36*
X649223Y201677D02*
X649223Y201677D01*
X659546Y201677D01*
X659345Y200404D01*
X658764Y198617D01*
X657911Y196943D01*
X656806Y195422D01*
X655478Y194094D01*
X653957Y192989D01*
X652283Y192136D01*
X650496Y191555D01*
X649223Y191354D01*
X649223Y201677D01*
G37*
%LPD*%
%LPC*%
G36*
X475834Y169163D02*
X475834Y169163D01*
X476035Y170436D01*
X476616Y172223D01*
X477469Y173897D01*
X478574Y175418D01*
X479902Y176746D01*
X481423Y177851D01*
X483097Y178704D01*
X484884Y179285D01*
X486157Y179486D01*
X486157Y169163D01*
X475834Y169163D01*
G37*
%LPD*%
%LPC*%
G36*
X644904Y128055D02*
X644904Y128055D01*
X643117Y128636D01*
X641443Y129489D01*
X639922Y130594D01*
X638594Y131922D01*
X637489Y133443D01*
X636636Y135117D01*
X636055Y136904D01*
X635854Y138177D01*
X646177Y138177D01*
X646177Y127854D01*
X644904Y128055D01*
G37*
%LPD*%
%LPC*%
G36*
X644904Y77255D02*
X644904Y77255D01*
X643117Y77836D01*
X641443Y78689D01*
X639922Y79794D01*
X638594Y81122D01*
X637489Y82643D01*
X636636Y84317D01*
X636055Y86104D01*
X635854Y87377D01*
X646177Y87377D01*
X646177Y77054D01*
X644904Y77255D01*
G37*
%LPD*%
%LPC*%
G36*
X124204Y36615D02*
X124204Y36615D01*
X122417Y37196D01*
X120743Y38049D01*
X119222Y39154D01*
X117894Y40482D01*
X116789Y42003D01*
X115936Y43677D01*
X115355Y45464D01*
X115154Y46737D01*
X125477Y46737D01*
X125477Y36414D01*
X124204Y36615D01*
G37*
%LPD*%
%LPC*%
G36*
X457452Y61761D02*
X457452Y61761D01*
X455665Y62342D01*
X453991Y63195D01*
X452470Y64300D01*
X451142Y65628D01*
X450037Y67149D01*
X449184Y68823D01*
X448603Y70610D01*
X448402Y71883D01*
X458725Y71883D01*
X458725Y61560D01*
X457452Y61761D01*
G37*
%LPD*%
%LPC*%
G36*
X366012Y61761D02*
X366012Y61761D01*
X364225Y62342D01*
X362551Y63195D01*
X361030Y64300D01*
X359702Y65628D01*
X358597Y67149D01*
X357744Y68823D01*
X357163Y70610D01*
X356962Y71883D01*
X367285Y71883D01*
X367285Y61560D01*
X366012Y61761D01*
G37*
%LPD*%
%LPC*%
G36*
X613916Y16549D02*
X613916Y16549D01*
X612129Y17130D01*
X610455Y17983D01*
X608934Y19088D01*
X607606Y20416D01*
X606501Y21937D01*
X605648Y23611D01*
X605067Y25398D01*
X604866Y26671D01*
X615189Y26671D01*
X615189Y16348D01*
X613916Y16549D01*
G37*
%LPD*%
%LPC*%
G36*
X581404Y369355D02*
X581404Y369355D01*
X579617Y369936D01*
X577943Y370789D01*
X576422Y371894D01*
X575094Y373222D01*
X573989Y374743D01*
X573136Y376417D01*
X572555Y378204D01*
X572354Y379477D01*
X582677Y379477D01*
X582677Y369154D01*
X581404Y369355D01*
G37*
%LPD*%
%LPC*%
G36*
X484884Y155995D02*
X484884Y155995D01*
X483097Y156576D01*
X481423Y157429D01*
X479902Y158534D01*
X478574Y159862D01*
X477469Y161383D01*
X476616Y163057D01*
X476035Y164844D01*
X475834Y166117D01*
X486157Y166117D01*
X486157Y155794D01*
X484884Y155995D01*
G37*
%LPD*%
%LPC*%
G36*
X644904Y191555D02*
X644904Y191555D01*
X643117Y192136D01*
X641443Y192989D01*
X639922Y194094D01*
X638594Y195422D01*
X637489Y196943D01*
X636636Y198617D01*
X636055Y200404D01*
X635854Y201677D01*
X646177Y201677D01*
X646177Y191354D01*
X644904Y191555D01*
G37*
%LPD*%
%LPC*%
G36*
X484884Y206795D02*
X484884Y206795D01*
X483097Y207376D01*
X481423Y208229D01*
X479902Y209334D01*
X478574Y210662D01*
X477469Y212183D01*
X476616Y213857D01*
X476035Y215644D01*
X475834Y216917D01*
X486157Y216917D01*
X486157Y206594D01*
X484884Y206795D01*
G37*
%LPD*%
%LPC*%
G36*
X644904Y242355D02*
X644904Y242355D01*
X643117Y242936D01*
X641443Y243789D01*
X639922Y244894D01*
X638594Y246222D01*
X637489Y247743D01*
X636636Y249417D01*
X636055Y251204D01*
X635854Y252477D01*
X646177Y252477D01*
X646177Y242154D01*
X644904Y242355D01*
G37*
%LPD*%
%LPC*%
G36*
X52323Y242823D02*
X52323Y242823D01*
X52323Y250881D01*
X58174Y250881D01*
X58821Y250708D01*
X59400Y250373D01*
X59873Y249900D01*
X60208Y249321D01*
X60381Y248674D01*
X60381Y242823D01*
X52323Y242823D01*
G37*
%LPD*%
%LPC*%
G36*
X255523Y90423D02*
X255523Y90423D01*
X255523Y98481D01*
X261374Y98481D01*
X262021Y98308D01*
X262600Y97973D01*
X263073Y97500D01*
X263408Y96921D01*
X263581Y96274D01*
X263581Y90423D01*
X255523Y90423D01*
G37*
%LPD*%
%LPC*%
G36*
X41219Y242823D02*
X41219Y242823D01*
X41219Y248674D01*
X41392Y249321D01*
X41727Y249900D01*
X42200Y250373D01*
X42779Y250708D01*
X43426Y250881D01*
X49277Y250881D01*
X49277Y242823D01*
X41219Y242823D01*
G37*
%LPD*%
%LPC*%
G36*
X244419Y90423D02*
X244419Y90423D01*
X244419Y96274D01*
X244592Y96921D01*
X244927Y97500D01*
X245400Y97973D01*
X245979Y98308D01*
X246626Y98481D01*
X252477Y98481D01*
X252477Y90423D01*
X244419Y90423D01*
G37*
%LPD*%
%LPC*%
G36*
X52323Y231719D02*
X52323Y231719D01*
X52323Y239777D01*
X60381Y239777D01*
X60381Y233926D01*
X60208Y233279D01*
X59873Y232700D01*
X59400Y232227D01*
X58821Y231892D01*
X58174Y231719D01*
X52323Y231719D01*
G37*
%LPD*%
%LPC*%
G36*
X255523Y79319D02*
X255523Y79319D01*
X255523Y87377D01*
X263581Y87377D01*
X263581Y81526D01*
X263408Y80879D01*
X263073Y80300D01*
X262600Y79827D01*
X262021Y79492D01*
X261374Y79319D01*
X255523Y79319D01*
G37*
%LPD*%
%LPC*%
G36*
X43426Y231719D02*
X43426Y231719D01*
X42779Y231892D01*
X42200Y232227D01*
X41727Y232700D01*
X41392Y233279D01*
X41219Y233926D01*
X41219Y239777D01*
X49277Y239777D01*
X49277Y231719D01*
X43426Y231719D01*
G37*
%LPD*%
%LPC*%
G36*
X246626Y79319D02*
X246626Y79319D01*
X245979Y79492D01*
X245400Y79827D01*
X244927Y80300D01*
X244592Y80879D01*
X244419Y81526D01*
X244419Y87377D01*
X252477Y87377D01*
X252477Y79319D01*
X246626Y79319D01*
G37*
%LPD*%
%LPC*%
G36*
X439649Y158699D02*
X439649Y158699D01*
X439649Y170741D01*
X441484Y170741D01*
X442131Y170568D01*
X442710Y170233D01*
X443183Y169760D01*
X443518Y169181D01*
X443691Y168534D01*
X443691Y158699D01*
X439649Y158699D01*
G37*
%LPD*%
%LPC*%
G36*
X426949Y158699D02*
X426949Y158699D01*
X426949Y170741D01*
X428784Y170741D01*
X429431Y170568D01*
X430010Y170233D01*
X430483Y169760D01*
X430818Y169181D01*
X430991Y168534D01*
X430991Y158699D01*
X426949Y158699D01*
G37*
%LPD*%
%LPC*%
G36*
X414249Y158699D02*
X414249Y158699D01*
X414249Y170741D01*
X416084Y170741D01*
X416731Y170568D01*
X417310Y170233D01*
X417783Y169760D01*
X418118Y169181D01*
X418291Y168534D01*
X418291Y158699D01*
X414249Y158699D01*
G37*
%LPD*%
%LPC*%
G36*
X363449Y158699D02*
X363449Y158699D01*
X363449Y170741D01*
X365284Y170741D01*
X365931Y170568D01*
X366510Y170233D01*
X366983Y169760D01*
X367318Y169181D01*
X367491Y168534D01*
X367491Y158699D01*
X363449Y158699D01*
G37*
%LPD*%
%LPC*%
G36*
X414249Y143659D02*
X414249Y143659D01*
X414249Y155701D01*
X418291Y155701D01*
X418291Y145866D01*
X418118Y145219D01*
X417783Y144640D01*
X417310Y144167D01*
X416731Y143832D01*
X416084Y143659D01*
X414249Y143659D01*
G37*
%LPD*%
%LPC*%
G36*
X439649Y143659D02*
X439649Y143659D01*
X439649Y155701D01*
X443691Y155701D01*
X443691Y145866D01*
X443518Y145219D01*
X443183Y144640D01*
X442710Y144167D01*
X442131Y143832D01*
X441484Y143659D01*
X439649Y143659D01*
G37*
%LPD*%
%LPC*%
G36*
X363449Y143659D02*
X363449Y143659D01*
X363449Y155701D01*
X367491Y155701D01*
X367491Y145866D01*
X367318Y145219D01*
X366983Y144640D01*
X366510Y144167D01*
X365931Y143832D01*
X365284Y143659D01*
X363449Y143659D01*
G37*
%LPD*%
%LPC*%
G36*
X426949Y143659D02*
X426949Y143659D01*
X426949Y155701D01*
X430991Y155701D01*
X430991Y145866D01*
X430818Y145219D01*
X430483Y144640D01*
X430010Y144167D01*
X429431Y143832D01*
X428784Y143659D01*
X426949Y143659D01*
G37*
%LPD*%
%LPC*%
G36*
X407209Y158699D02*
X407209Y158699D01*
X407209Y168534D01*
X407382Y169181D01*
X407717Y169760D01*
X408190Y170233D01*
X408769Y170568D01*
X409416Y170741D01*
X411251Y170741D01*
X411251Y158699D01*
X407209Y158699D01*
G37*
%LPD*%
%LPC*%
G36*
X432609Y158699D02*
X432609Y158699D01*
X432609Y168534D01*
X432782Y169181D01*
X433117Y169760D01*
X433590Y170233D01*
X434169Y170568D01*
X434816Y170741D01*
X436651Y170741D01*
X436651Y158699D01*
X432609Y158699D01*
G37*
%LPD*%
%LPC*%
G36*
X419909Y158699D02*
X419909Y158699D01*
X419909Y168534D01*
X420082Y169181D01*
X420417Y169760D01*
X420890Y170233D01*
X421469Y170568D01*
X422116Y170741D01*
X423951Y170741D01*
X423951Y158699D01*
X419909Y158699D01*
G37*
%LPD*%
%LPC*%
G36*
X356409Y158699D02*
X356409Y158699D01*
X356409Y168534D01*
X356582Y169181D01*
X356917Y169760D01*
X357390Y170233D01*
X357969Y170568D01*
X358616Y170741D01*
X360451Y170741D01*
X360451Y158699D01*
X356409Y158699D01*
G37*
%LPD*%
%LPC*%
G36*
X422116Y143659D02*
X422116Y143659D01*
X421469Y143832D01*
X420890Y144167D01*
X420417Y144640D01*
X420082Y145219D01*
X419909Y145866D01*
X419909Y155701D01*
X423951Y155701D01*
X423951Y143659D01*
X422116Y143659D01*
G37*
%LPD*%
%LPC*%
G36*
X409416Y143659D02*
X409416Y143659D01*
X408769Y143832D01*
X408190Y144167D01*
X407717Y144640D01*
X407382Y145219D01*
X407209Y145866D01*
X407209Y155701D01*
X411251Y155701D01*
X411251Y143659D01*
X409416Y143659D01*
G37*
%LPD*%
%LPC*%
G36*
X434816Y143659D02*
X434816Y143659D01*
X434169Y143832D01*
X433590Y144167D01*
X433117Y144640D01*
X432782Y145219D01*
X432609Y145866D01*
X432609Y155701D01*
X436651Y155701D01*
X436651Y143659D01*
X434816Y143659D01*
G37*
%LPD*%
%LPC*%
G36*
X358616Y143659D02*
X358616Y143659D01*
X357969Y143832D01*
X357390Y144167D01*
X356917Y144640D01*
X356582Y145219D01*
X356409Y145866D01*
X356409Y155701D01*
X360451Y155701D01*
X360451Y143659D01*
X358616Y143659D01*
G37*
%LPD*%
%LPC*%
G36*
X647699Y139699D02*
X647699Y139699D01*
X647699Y139701D01*
X647701Y139701D01*
X647701Y139699D01*
X647699Y139699D01*
G37*
%LPD*%
%LPC*%
G36*
X616711Y28193D02*
X616711Y28193D01*
X616711Y28195D01*
X616713Y28195D01*
X616713Y28193D01*
X616711Y28193D01*
G37*
%LPD*%
%LPC*%
G36*
X35559Y300499D02*
X35559Y300499D01*
X35559Y300501D01*
X35561Y300501D01*
X35561Y300499D01*
X35559Y300499D01*
G37*
%LPD*%
%LPC*%
G36*
X647699Y253999D02*
X647699Y253999D01*
X647699Y254001D01*
X647701Y254001D01*
X647701Y253999D01*
X647699Y253999D01*
G37*
%LPD*%
%LPC*%
G36*
X50799Y241299D02*
X50799Y241299D01*
X50799Y241301D01*
X50801Y241301D01*
X50801Y241299D01*
X50799Y241299D01*
G37*
%LPD*%
%LPC*%
G36*
X584199Y380999D02*
X584199Y380999D01*
X584199Y381001D01*
X584201Y381001D01*
X584201Y380999D01*
X584199Y380999D01*
G37*
%LPD*%
%LPC*%
G36*
X126999Y48259D02*
X126999Y48259D01*
X126999Y48261D01*
X127001Y48261D01*
X127001Y48259D01*
X126999Y48259D01*
G37*
%LPD*%
%LPC*%
G36*
X487679Y218439D02*
X487679Y218439D01*
X487679Y218441D01*
X487681Y218441D01*
X487681Y218439D01*
X487679Y218439D01*
G37*
%LPD*%
%LPC*%
G36*
X647699Y203199D02*
X647699Y203199D01*
X647699Y203201D01*
X647701Y203201D01*
X647701Y203199D01*
X647699Y203199D01*
G37*
%LPD*%
%LPC*%
G36*
X368807Y73405D02*
X368807Y73405D01*
X368807Y73407D01*
X368809Y73407D01*
X368809Y73405D01*
X368807Y73405D01*
G37*
%LPD*%
%LPC*%
G36*
X460247Y73405D02*
X460247Y73405D01*
X460247Y73407D01*
X460249Y73407D01*
X460249Y73405D01*
X460247Y73405D01*
G37*
%LPD*%
%LPC*%
G36*
X647699Y88899D02*
X647699Y88899D01*
X647699Y88901D01*
X647701Y88901D01*
X647701Y88899D01*
X647699Y88899D01*
G37*
%LPD*%
%LPC*%
G36*
X253999Y88899D02*
X253999Y88899D01*
X253999Y88901D01*
X254001Y88901D01*
X254001Y88899D01*
X253999Y88899D01*
G37*
%LPD*%
%LPC*%
G36*
X487679Y167639D02*
X487679Y167639D01*
X487679Y167641D01*
X487681Y167641D01*
X487681Y167639D01*
X487679Y167639D01*
G37*
%LPD*%
%LPC*%
G36*
X330199Y176529D02*
X330199Y176529D01*
X330199Y176531D01*
X330201Y176531D01*
X330201Y176529D01*
X330199Y176529D01*
G37*
%LPD*%
D10*
X460248Y73406D03*
X525272Y73406D03*
X460248Y28194D03*
X525272Y28194D03*
X368808Y73406D03*
X433832Y73406D03*
X368808Y28194D03*
X433832Y28194D03*
D11*
X450850Y157200D03*
X399450Y249200D03*
X463550Y157200D03*
X438150Y157200D03*
X425450Y157200D03*
X412150Y249200D03*
X386750Y249200D03*
X374050Y249200D03*
X400050Y157200D03*
X412750Y157200D03*
X387350Y157200D03*
X374650Y157200D03*
X424850Y249200D03*
X437550Y249200D03*
X450550Y249200D03*
X463550Y249200D03*
X361950Y157200D03*
X361350Y249200D03*
D12*
X35560Y335500D03*
X35560Y300500D03*
D10*
X381000Y381000D03*
X406400Y381000D03*
X431800Y381000D03*
X457200Y381000D03*
X482600Y381000D03*
X508000Y381000D03*
X533400Y381000D03*
X558800Y381000D03*
X584200Y381000D03*
X647700Y177800D03*
X647700Y203200D03*
X647700Y228600D03*
X647700Y254000D03*
X127000Y48260D03*
X127000Y22860D03*
X487680Y243840D03*
X487680Y218440D03*
X487680Y193040D03*
X487680Y167640D03*
D13*
X198350Y279400D03*
X233450Y279400D03*
D14*
X571500Y312650D03*
X571500Y347750D03*
X609600Y312650D03*
X609600Y347750D03*
X342900Y312650D03*
X342900Y347750D03*
X381000Y312650D03*
X381000Y347750D03*
X419100Y312650D03*
X419100Y347750D03*
X457200Y312650D03*
X457200Y347750D03*
X495300Y312650D03*
X495300Y347750D03*
X533400Y312650D03*
X533400Y347750D03*
D10*
X616712Y28194D03*
X551688Y28194D03*
X616712Y73406D03*
X551688Y73406D03*
D15*
X127000Y88900D03*
X152400Y88900D03*
X177800Y88900D03*
X203200Y88900D03*
X228600Y88900D03*
X254000Y88900D03*
X101600Y88900D03*
X50800Y88900D03*
X76200Y88900D03*
X25400Y88900D03*
X25400Y241300D03*
X50800Y241300D03*
X76200Y241300D03*
X101600Y241300D03*
X127000Y241300D03*
X152400Y241300D03*
X177800Y241300D03*
X203200Y241300D03*
X228600Y241300D03*
X254000Y241300D03*
D10*
X101600Y370840D03*
X254000Y370840D03*
X647700Y63500D03*
X647700Y88900D03*
X647700Y114300D03*
X647700Y139700D03*
D16*
X330200Y209550D03*
X330200Y176530D03*
D17*
X147320Y287020D03*
X162560Y287020D03*
X109220Y325120D03*
X241300Y421640D03*
X307340Y276860D03*
X127000Y165100D03*
X248920Y165100D03*
X248920Y33020D03*
X167640Y406400D03*
X182880Y358140D03*
X137160Y406400D03*
X106680Y406400D03*
X134620Y325120D03*
X147320Y325120D03*
X147320Y309880D03*
X134620Y309880D03*
D18*
X238530Y274320D02*
X246380Y274320D01*
X238530Y274320D02*
X233450Y279400D01*
D17*
X246380Y274320D03*
D19*
X276860Y274320D03*
D20*
X276860Y254000D01*
X299720Y231140D01*
X330200Y231140D01*
X398780Y231140D01*
X457200Y231140D01*
X463550Y237490D02*
X463550Y249200D01*
X463550Y237490D02*
X457200Y231140D01*
D21*
X400050Y229870D02*
X400050Y157200D01*
X400050Y229870D02*
X398780Y231140D01*
D20*
X330200Y231140D02*
X330200Y209550D01*
X25400Y241300D02*
X11430Y227330D01*
X11430Y68580D01*
X94323Y53340D02*
X127000Y22860D01*
X26670Y53340D02*
X11430Y68580D01*
X26670Y53340D02*
X94323Y53340D01*
D22*
X228600Y88900D02*
X228600Y99060D01*
X616712Y94488D02*
X616712Y73406D01*
X241300Y111760D02*
X228600Y99060D01*
X241300Y111760D02*
X599440Y111760D01*
X616712Y94488D01*
X450850Y138430D02*
X450850Y157200D01*
X450850Y138430D02*
X444500Y132080D01*
X152400Y132080D01*
D17*
X152400Y132080D03*
D22*
X127000Y111760D02*
X127000Y88900D01*
X463550Y133350D02*
X463550Y157200D01*
X137160Y121920D02*
X127000Y111760D01*
X137160Y121920D02*
X452120Y121920D01*
X463550Y133350D01*
X361350Y294200D02*
X342900Y312650D01*
X361350Y294200D02*
X361350Y249200D01*
X381000Y297180D02*
X381000Y312650D01*
X374050Y290230D02*
X374050Y249200D01*
X374050Y290230D02*
X381000Y297180D01*
X386750Y290230D02*
X386750Y249200D01*
X386750Y290230D02*
X393700Y297180D01*
X414020Y297180D01*
X419100Y302260D01*
X419100Y312650D01*
X399450Y285150D02*
X399450Y249200D01*
X399450Y285150D02*
X406400Y292100D01*
X452120Y292100D02*
X457200Y297180D01*
X457200Y312650D01*
X452120Y292100D02*
X406400Y292100D01*
X412150Y280070D02*
X412150Y249200D01*
X412150Y280070D02*
X419100Y287020D01*
X490220Y287020D02*
X495300Y292100D01*
X495300Y312650D01*
X490220Y287020D02*
X419100Y287020D01*
X424850Y274990D02*
X424850Y249200D01*
X424850Y274990D02*
X431800Y281940D01*
X495300Y281940D02*
X508000Y294640D01*
X533400Y294640D01*
X533400Y312650D01*
X495300Y281940D02*
X431800Y281940D01*
X437550Y269910D02*
X437550Y249200D01*
X437550Y269910D02*
X444500Y276860D01*
X500380Y276860D01*
X513080Y289560D01*
X566420Y289560D02*
X571500Y294640D01*
X571500Y312650D01*
X566420Y289560D02*
X513080Y289560D01*
X450550Y265130D02*
X450550Y249200D01*
X450550Y265130D02*
X457200Y271780D01*
X505460Y271780D01*
X518160Y284480D01*
X574040Y284480D01*
X584200Y294640D01*
X604520Y294640D01*
X609600Y299720D01*
X609600Y312650D01*
X376150Y381000D02*
X342900Y347750D01*
X376150Y381000D02*
X381000Y381000D01*
X406400Y373150D02*
X381000Y347750D01*
X406400Y373150D02*
X406400Y381000D01*
X419100Y368300D02*
X419100Y347750D01*
X419100Y368300D02*
X431800Y381000D01*
X457200Y381000D02*
X457200Y347750D01*
X495300Y347750D02*
X495300Y368300D01*
X482600Y381000D01*
X508000Y373150D02*
X533400Y347750D01*
X508000Y373150D02*
X508000Y381000D01*
X553490Y365760D02*
X571500Y347750D01*
X553490Y365760D02*
X546100Y365760D01*
X533400Y378460D01*
X533400Y381000D01*
X558800Y381000D02*
X576580Y363220D01*
X594130Y363220D02*
X609600Y347750D01*
X594130Y363220D02*
X576580Y363220D01*
X203200Y88900D02*
X203200Y68580D01*
X460248Y42672D02*
X460248Y28194D01*
X215900Y55880D02*
X203200Y68580D01*
X215900Y55880D02*
X447040Y55880D01*
X460248Y42672D01*
X177800Y66040D02*
X177800Y88900D01*
X368808Y42672D02*
X368808Y28194D01*
X195580Y48260D02*
X177800Y66040D01*
X195580Y48260D02*
X363220Y48260D01*
X368808Y42672D01*
D17*
X177800Y292100D03*
D20*
X190500Y279400D02*
X198350Y279400D01*
X190500Y279400D02*
X177800Y292100D01*
M02*
