M48
;GenerationSoftware,Autodesk,EAGLE,9.6.2*%
;CreationDate,2021-12-02T02:55:42Z*%
FMAT,2
ICI,OFF
METRIC,TZ,000.000
T6C0.350
T5C0.900
T4C1.000
T3C1.016
T2C2.540
%
G90
M71
T2
X2540Y41656
X67310Y41656
X67310Y2540
X2540Y2540
T3
X58420Y38100
X64770Y25400
X64770Y22860
X64770Y20320
X64770Y17780
X12700Y4826
X53340Y38100
X50800Y38100
X48260Y38100
X45720Y38100
X43180Y38100
X40640Y38100
X38100Y38100
X55880Y38100
X12700Y2286
X48768Y24384
X48768Y21844
X48768Y19304
X48768Y16764
X61671Y2819
X55169Y2819
X61671Y7341
X55169Y7341
X10160Y37084
X25400Y37084
X64770Y6350
X64770Y8890
X64770Y11430
X64770Y13970
X43383Y2819
X36881Y2819
X43383Y7341
X36881Y7341
X52527Y2819
X46025Y2819
X46025Y7341
X52527Y7341
T4
X3556Y33550
X3556Y30050
T5
X15240Y8890
X22860Y8890
X25400Y8890
X10160Y8890
X5080Y8890
X7620Y8890
X2540Y8890
X2540Y24130
X5080Y24130
X7620Y24130
X10160Y24130
X12700Y24130
X15240Y24130
X17780Y24130
X20320Y24130
X22860Y24130
X25400Y24130
X17780Y8890
X12700Y8890
X20320Y8890
T6
X16256Y28702
X10922Y32512
X24130Y42164
X30734Y27686
X12700Y16510
X24892Y16510
X14732Y28702
X17780Y29210
X15240Y13208
X27686Y27432
X24638Y27432
X13462Y30988
X14732Y30988
X14732Y32512
X13462Y32512
X10668Y40640
X13716Y40640
X18288Y35814
X16764Y40640
X24892Y3302
M30