G04 EAGLE Gerber RS-274X export*
G75*
%MOMM*%
%FSLAX34Y34*%
%LPD*%
%IN*%
%IPPOS*%
%AMOC8*
5,1,8,0,0,1.08239X$1,22.5*%
G01*
%ADD10C,0.254000*%


D10*
X0Y0D02*
X698300Y0D01*
X698300Y441200D01*
X0Y441200D01*
X0Y0D01*
X38100Y416061D02*
X38022Y415066D01*
X37866Y414080D01*
X37633Y413110D01*
X37324Y412161D01*
X36942Y411239D01*
X36489Y410350D01*
X35968Y409499D01*
X35381Y408691D01*
X34733Y407933D01*
X34027Y407227D01*
X33269Y406579D01*
X32461Y405992D01*
X31610Y405471D01*
X30721Y405018D01*
X29799Y404636D01*
X28850Y404327D01*
X27880Y404094D01*
X26894Y403938D01*
X25899Y403860D01*
X24901Y403860D01*
X23906Y403938D01*
X22920Y404094D01*
X21950Y404327D01*
X21001Y404636D01*
X20079Y405018D01*
X19190Y405471D01*
X18339Y405992D01*
X17531Y406579D01*
X16773Y407227D01*
X16067Y407933D01*
X15419Y408691D01*
X14832Y409499D01*
X14311Y410350D01*
X13858Y411239D01*
X13476Y412161D01*
X13167Y413110D01*
X12934Y414080D01*
X12778Y415066D01*
X12700Y416061D01*
X12700Y417059D01*
X12778Y418054D01*
X12934Y419040D01*
X13167Y420010D01*
X13476Y420959D01*
X13858Y421881D01*
X14311Y422770D01*
X14832Y423621D01*
X15419Y424429D01*
X16067Y425187D01*
X16773Y425893D01*
X17531Y426541D01*
X18339Y427128D01*
X19190Y427649D01*
X20079Y428102D01*
X21001Y428484D01*
X21950Y428793D01*
X22920Y429026D01*
X23906Y429182D01*
X24901Y429260D01*
X25899Y429260D01*
X26894Y429182D01*
X27880Y429026D01*
X28850Y428793D01*
X29799Y428484D01*
X30721Y428102D01*
X31610Y427649D01*
X32461Y427128D01*
X33269Y426541D01*
X34027Y425893D01*
X34733Y425187D01*
X35381Y424429D01*
X35968Y423621D01*
X36489Y422770D01*
X36942Y421881D01*
X37324Y420959D01*
X37633Y420010D01*
X37866Y419040D01*
X38022Y418054D01*
X38100Y417059D01*
X38100Y416061D01*
X685800Y416061D02*
X685722Y415066D01*
X685566Y414080D01*
X685333Y413110D01*
X685024Y412161D01*
X684642Y411239D01*
X684189Y410350D01*
X683668Y409499D01*
X683081Y408691D01*
X682433Y407933D01*
X681727Y407227D01*
X680969Y406579D01*
X680161Y405992D01*
X679310Y405471D01*
X678421Y405018D01*
X677499Y404636D01*
X676550Y404327D01*
X675580Y404094D01*
X674594Y403938D01*
X673599Y403860D01*
X672601Y403860D01*
X671606Y403938D01*
X670620Y404094D01*
X669650Y404327D01*
X668701Y404636D01*
X667779Y405018D01*
X666890Y405471D01*
X666039Y405992D01*
X665231Y406579D01*
X664473Y407227D01*
X663767Y407933D01*
X663119Y408691D01*
X662532Y409499D01*
X662011Y410350D01*
X661558Y411239D01*
X661176Y412161D01*
X660867Y413110D01*
X660634Y414080D01*
X660478Y415066D01*
X660400Y416061D01*
X660400Y417059D01*
X660478Y418054D01*
X660634Y419040D01*
X660867Y420010D01*
X661176Y420959D01*
X661558Y421881D01*
X662011Y422770D01*
X662532Y423621D01*
X663119Y424429D01*
X663767Y425187D01*
X664473Y425893D01*
X665231Y426541D01*
X666039Y427128D01*
X666890Y427649D01*
X667779Y428102D01*
X668701Y428484D01*
X669650Y428793D01*
X670620Y429026D01*
X671606Y429182D01*
X672601Y429260D01*
X673599Y429260D01*
X674594Y429182D01*
X675580Y429026D01*
X676550Y428793D01*
X677499Y428484D01*
X678421Y428102D01*
X679310Y427649D01*
X680161Y427128D01*
X680969Y426541D01*
X681727Y425893D01*
X682433Y425187D01*
X683081Y424429D01*
X683668Y423621D01*
X684189Y422770D01*
X684642Y421881D01*
X685024Y420959D01*
X685333Y420010D01*
X685566Y419040D01*
X685722Y418054D01*
X685800Y417059D01*
X685800Y416061D01*
X685800Y24901D02*
X685722Y23906D01*
X685566Y22920D01*
X685333Y21950D01*
X685024Y21001D01*
X684642Y20079D01*
X684189Y19190D01*
X683668Y18339D01*
X683081Y17531D01*
X682433Y16773D01*
X681727Y16067D01*
X680969Y15419D01*
X680161Y14832D01*
X679310Y14311D01*
X678421Y13858D01*
X677499Y13476D01*
X676550Y13167D01*
X675580Y12934D01*
X674594Y12778D01*
X673599Y12700D01*
X672601Y12700D01*
X671606Y12778D01*
X670620Y12934D01*
X669650Y13167D01*
X668701Y13476D01*
X667779Y13858D01*
X666890Y14311D01*
X666039Y14832D01*
X665231Y15419D01*
X664473Y16067D01*
X663767Y16773D01*
X663119Y17531D01*
X662532Y18339D01*
X662011Y19190D01*
X661558Y20079D01*
X661176Y21001D01*
X660867Y21950D01*
X660634Y22920D01*
X660478Y23906D01*
X660400Y24901D01*
X660400Y25899D01*
X660478Y26894D01*
X660634Y27880D01*
X660867Y28850D01*
X661176Y29799D01*
X661558Y30721D01*
X662011Y31610D01*
X662532Y32461D01*
X663119Y33269D01*
X663767Y34027D01*
X664473Y34733D01*
X665231Y35381D01*
X666039Y35968D01*
X666890Y36489D01*
X667779Y36942D01*
X668701Y37324D01*
X669650Y37633D01*
X670620Y37866D01*
X671606Y38022D01*
X672601Y38100D01*
X673599Y38100D01*
X674594Y38022D01*
X675580Y37866D01*
X676550Y37633D01*
X677499Y37324D01*
X678421Y36942D01*
X679310Y36489D01*
X680161Y35968D01*
X680969Y35381D01*
X681727Y34733D01*
X682433Y34027D01*
X683081Y33269D01*
X683668Y32461D01*
X684189Y31610D01*
X684642Y30721D01*
X685024Y29799D01*
X685333Y28850D01*
X685566Y27880D01*
X685722Y26894D01*
X685800Y25899D01*
X685800Y24901D01*
X38100Y24901D02*
X38022Y23906D01*
X37866Y22920D01*
X37633Y21950D01*
X37324Y21001D01*
X36942Y20079D01*
X36489Y19190D01*
X35968Y18339D01*
X35381Y17531D01*
X34733Y16773D01*
X34027Y16067D01*
X33269Y15419D01*
X32461Y14832D01*
X31610Y14311D01*
X30721Y13858D01*
X29799Y13476D01*
X28850Y13167D01*
X27880Y12934D01*
X26894Y12778D01*
X25899Y12700D01*
X24901Y12700D01*
X23906Y12778D01*
X22920Y12934D01*
X21950Y13167D01*
X21001Y13476D01*
X20079Y13858D01*
X19190Y14311D01*
X18339Y14832D01*
X17531Y15419D01*
X16773Y16067D01*
X16067Y16773D01*
X15419Y17531D01*
X14832Y18339D01*
X14311Y19190D01*
X13858Y20079D01*
X13476Y21001D01*
X13167Y21950D01*
X12934Y22920D01*
X12778Y23906D01*
X12700Y24901D01*
X12700Y25899D01*
X12778Y26894D01*
X12934Y27880D01*
X13167Y28850D01*
X13476Y29799D01*
X13858Y30721D01*
X14311Y31610D01*
X14832Y32461D01*
X15419Y33269D01*
X16067Y34027D01*
X16773Y34733D01*
X17531Y35381D01*
X18339Y35968D01*
X19190Y36489D01*
X20079Y36942D01*
X21001Y37324D01*
X21950Y37633D01*
X22920Y37866D01*
X23906Y38022D01*
X24901Y38100D01*
X25899Y38100D01*
X26894Y38022D01*
X27880Y37866D01*
X28850Y37633D01*
X29799Y37324D01*
X30721Y36942D01*
X31610Y36489D01*
X32461Y35968D01*
X33269Y35381D01*
X34027Y34733D01*
X34733Y34027D01*
X35381Y33269D01*
X35968Y32461D01*
X36489Y31610D01*
X36942Y30721D01*
X37324Y29799D01*
X37633Y28850D01*
X37866Y27880D01*
X38022Y26894D01*
X38100Y25899D01*
X38100Y24901D01*
M02*
