G04 EAGLE Gerber RS-274X export*
G75*
%MOMM*%
%FSLAX34Y34*%
%LPD*%
%INSoldermask Top*%
%IPPOS*%
%AMOC8*
5,1,8,0,0,1.08239X$1,22.5*%
G01*
%ADD10C,2.743200*%
%ADD11C,2.082800*%
%ADD12R,1.473200X2.235200*%
%ADD13R,2.235200X1.473200*%
%ADD14R,0.553200X1.003200*%
%ADD15R,1.003200X0.553200*%
%ADD16R,3.003200X3.003200*%
%ADD17C,2.387600*%
%ADD18C,1.803200*%
%ADD19R,2.263200X1.473200*%
%ADD20R,1.473200X2.263200*%
%ADD21R,1.611200X1.611200*%
%ADD22C,1.016000*%
%ADD23R,1.403200X1.603200*%
%ADD24R,1.803400X5.918200*%
%ADD25C,0.959600*%
%ADD26P,1.038661X8X22.500000*%


D10*
X25400Y416560D03*
X673100Y416560D03*
X673100Y25400D03*
X25400Y25400D03*
D11*
X460248Y73406D03*
X525272Y73406D03*
X460248Y28194D03*
X525272Y28194D03*
X368808Y73406D03*
X433832Y73406D03*
X368808Y28194D03*
X433832Y28194D03*
D12*
X128270Y368300D03*
X161290Y368300D03*
D13*
X571500Y194310D03*
X571500Y161290D03*
X571500Y222250D03*
X571500Y255270D03*
X88900Y295910D03*
X88900Y328930D03*
D12*
X232410Y381000D03*
X199390Y381000D03*
D14*
X149450Y337500D03*
X142950Y337500D03*
X136450Y337500D03*
X129950Y337500D03*
D15*
X119700Y327250D03*
X119700Y320750D03*
X119700Y314250D03*
X119700Y307750D03*
D14*
X129950Y297500D03*
X136450Y297500D03*
X142950Y297500D03*
X149450Y297500D03*
D15*
X159700Y307750D03*
X159700Y314250D03*
X159700Y320750D03*
X159700Y327250D03*
D16*
X139700Y317500D03*
D17*
X38100Y299500D03*
X38100Y334500D03*
D11*
X381000Y381000D03*
X406400Y381000D03*
X431800Y381000D03*
X457200Y381000D03*
X482600Y381000D03*
X508000Y381000D03*
X533400Y381000D03*
X558800Y381000D03*
X584200Y381000D03*
X647700Y177800D03*
X647700Y203200D03*
X647700Y228600D03*
X647700Y254000D03*
D18*
X86200Y38100D03*
X66200Y38100D03*
D11*
X487680Y243840D03*
X487680Y218440D03*
X487680Y193040D03*
X487680Y167640D03*
D19*
X609600Y160250D03*
X609600Y195350D03*
X609600Y221210D03*
X609600Y256310D03*
D20*
X426950Y243840D03*
X462050Y243840D03*
X426950Y193040D03*
X462050Y193040D03*
D11*
X616712Y28194D03*
X551688Y28194D03*
X616712Y73406D03*
X551688Y73406D03*
D21*
X127000Y88900D03*
X152400Y88900D03*
X177800Y88900D03*
X203200Y88900D03*
X228600Y88900D03*
X254000Y88900D03*
X101600Y88900D03*
X50800Y88900D03*
X76200Y88900D03*
X25400Y88900D03*
X25400Y241300D03*
X50800Y241300D03*
X76200Y241300D03*
X101600Y241300D03*
X127000Y241300D03*
X152400Y241300D03*
X177800Y241300D03*
X203200Y241300D03*
X228600Y241300D03*
X254000Y241300D03*
D22*
X101600Y370840D03*
X254000Y370840D03*
D11*
X647700Y53340D03*
X647700Y78740D03*
X647700Y104140D03*
X647700Y129540D03*
D23*
X309640Y419100D03*
X279640Y419100D03*
X185660Y419100D03*
X215660Y419100D03*
D19*
X63500Y386310D03*
X63500Y421410D03*
D20*
X277090Y381000D03*
X312190Y381000D03*
D24*
X215260Y320040D03*
X262260Y320040D03*
D25*
X147320Y287020D03*
X162560Y287020D03*
X109220Y325120D03*
X241300Y421640D03*
X307340Y276860D03*
X127000Y165100D03*
X248920Y165100D03*
X248920Y33020D03*
X167640Y406400D03*
X182880Y358140D03*
X127000Y406400D03*
X91440Y406400D03*
X134620Y325120D03*
X147320Y325120D03*
X147320Y309880D03*
X134620Y309880D03*
X246380Y274320D03*
D26*
X276860Y274320D03*
D25*
X152400Y132080D03*
X177800Y292100D03*
M02*
